<svg width="617" height="730" viewBox="0 0 617 730" fill="none" xmlns="http://www.w3.org/2000/svg">
<circle opacity="0.9" cx="342" cy="125" r="34" fill="#FFA41B"/>
<g filter="url(#filter0_d)">
<path d="M456.748 87.0252C408.749 73.5251 415.748 114.025 425.748 114.025C429.857 114.025 438.373 115.025 448.749 115.025H480.249C520.248 115.025 531.749 112.358 532.249 111.525C535.749 85.0251 514.582 87.5251 503.249 90.5251C505.082 80.6918 503.149 60.8252 480.748 60.0252C458.348 59.2252 455.415 77.6918 456.748 87.0252Z" fill="white"/>
</g>
<g filter="url(#filter1_d)">
<path d="M70.2482 87.0252C22.249 73.5251 29.2484 114.025 39.2483 114.025C43.3566 114.025 51.8729 115.025 62.249 115.025H93.749C133.748 115.025 145.249 112.358 145.749 111.525C149.249 85.0251 128.082 87.5251 116.749 90.5251C118.582 80.6918 116.649 60.8252 94.2482 60.0252C71.8476 59.2252 68.9147 77.6918 70.2482 87.0252Z" fill="white"/>
</g>
<g filter="url(#filter2_d)">
<path d="M119.256 11.7874C98.2283 5.89917 101.295 23.5638 105.675 23.5638C107.475 23.5638 111.206 24 115.751 24H129.551C147.074 24 152.112 22.8369 152.331 22.4734C153.864 10.9151 144.592 12.0055 139.627 13.314C140.43 9.02503 139.583 0.359911 129.77 0.0109799C119.956 -0.337952 118.672 7.71655 119.256 11.7874Z" fill="white"/>
</g>
<g filter="url(#filter3_d)">
<path fill-rule="evenodd" clip-rule="evenodd" d="M358.122 137.536C355.947 137.536 353.849 137.861 351.87 138.46C348.26 123.287 334.593 112 318.281 112C302.07 112 288.472 123.148 284.761 138.179C283.085 137.761 281.332 137.536 279.527 137.536C267.638 137.536 258 147.152 258 159.014C258 170.876 267.638 180.491 279.527 180.491H313.016C314.733 180.753 316.491 180.889 318.281 180.889C320.071 180.889 321.829 180.753 323.546 180.491H358.122C370.01 180.491 379.648 170.876 379.648 159.014C379.648 147.152 370.01 137.536 358.122 137.536Z" fill="#EDEDED"/>
</g>
<path opacity="0.1" d="M352.252 333.47C313.384 332.119 276.365 319.573 241.01 305.844C205.655 292.115 170.648 276.909 132.71 269.63C108.31 264.952 80.4074 264.291 60.7449 277.371C41.8272 289.983 35.7135 311.693 32.4224 331.86C29.9541 347.031 28.5007 363 35.2751 377.203C39.9775 387.064 48.3313 395.352 54.1087 404.793C74.2036 437.656 60.0002 478.206 38.2298 510.27C28.0203 525.326 16.1651 539.697 8.27974 555.708C0.394351 571.719 -3.25106 590.09 3.6434 606.438C10.4838 622.653 26.7771 634.808 44.4276 643.366C80.2692 660.783 122.501 665.725 163.705 668.542C254.883 674.782 346.553 672.079 437.971 669.377C471.806 668.374 505.786 667.359 539.075 662.128C557.555 659.227 576.641 654.615 590.057 643.51C607.089 629.379 611.311 605.453 599.9 587.73C580.754 558.008 527.833 550.627 514.434 518.732C507.065 501.171 514.632 481.617 525.334 465.329C548.3 430.401 586.79 399.754 588.82 359.829C590.213 332.407 571.71 304.943 543.099 291.965C513.107 278.368 471.524 280.08 449.411 302.589C426.602 325.741 386.556 334.671 352.252 333.47Z" fill="#232323"/>
<path opacity="0.1" d="M348.186 711.933C471.234 711.933 570.983 704.517 570.983 695.369C570.983 686.221 471.234 678.806 348.186 678.806C225.139 678.806 125.39 686.221 125.39 695.369C125.39 704.517 225.139 711.933 348.186 711.933Z" fill="#000733"/>
<path d="M175.915 641.721C175.915 641.721 188.527 639.703 196.094 648.621C196.094 648.621 190.545 652.993 178.605 646.94L175.915 641.721Z" fill="#000839"/>
<path d="M174.558 641.559C174.558 641.559 166.516 651.48 170.462 662.488C170.462 662.488 177.02 659.858 177.735 646.489L174.558 641.559Z" fill="#000839"/>
<path d="M167.351 625.241C167.351 625.241 172.396 615.993 192.574 628.941C192.574 628.941 189.884 635.163 180.972 634.658C172.059 634.154 169.693 630.148 167.351 625.241Z" fill="#000839"/>
<path d="M166.036 624.575C166.036 624.575 155.568 623.374 154.553 647.342C154.553 647.342 161.189 648.717 165.903 641.138C170.618 633.559 168.672 629.307 166.036 624.575Z" fill="#000839"/>
<path d="M159.94 605.465C159.94 605.465 165.825 589.154 187.181 600.756C187.181 600.756 182.305 615.722 162.126 611.014L159.94 605.465Z" fill="#000839"/>
<path d="M153.376 581.082C153.376 581.082 164.48 564.596 184.155 579.881C184.155 579.881 177.26 595.351 155.057 586.943L153.376 581.082Z" fill="#000839"/>
<path d="M151.022 557.87C151.022 557.87 163.976 542.736 183.482 557.87C183.482 557.87 171.207 571.155 151.022 561.738V557.87Z" fill="#000839"/>
<path d="M149.004 535.337C149.004 535.337 162.126 519.53 180.791 534.496C180.791 534.496 165.994 548.453 149.004 539.037V535.337Z" fill="#000839"/>
<path d="M150.181 515.326C150.181 515.326 163.994 494.973 181.464 508.768C181.464 508.768 166.666 526.257 150.181 519.194V515.326Z" fill="#000839"/>
<path d="M153.376 491.946C153.376 491.946 168.011 471.767 184.995 487.238C184.995 487.238 167.675 504.732 153.376 495.646V491.946Z" fill="#000839"/>
<path d="M158.258 471.053C158.258 471.053 175.579 452.093 190.689 459.642C190.689 459.642 172.636 479.779 157.502 476.08L158.258 471.053Z" fill="#000839"/>
<path d="M164.312 451.252C164.312 451.252 184.323 428.046 195.926 435.782C195.926 435.782 181.2 453.799 162.895 455.6L164.312 451.252Z" fill="#000839"/>
<path d="M173.05 428.281C173.05 428.281 190.545 409.315 203.325 414.023C203.325 414.023 188.359 433.698 170.702 434.202L173.05 428.281Z" fill="#000839"/>
<path d="M180.96 406.793C180.96 406.793 200.298 388.626 208.706 391.821C208.706 391.821 194.749 412.005 180.119 410.828L180.96 406.793Z" fill="#000839"/>
<path d="M188.695 386.92C188.695 386.92 205.342 365.228 214.423 366.909C214.423 366.909 204.333 386.247 188.695 389.13V386.92Z" fill="#000839"/>
<path d="M197.091 360.195C197.091 360.195 211.804 343.559 219.75 343.601C219.75 343.601 208.135 365.822 196.484 365.618L197.091 360.195Z" fill="#000839"/>
<path d="M202.063 342.382L216.273 307.736C216.273 307.736 216.987 339.055 200.256 348.808L202.063 342.382Z" fill="#000839"/>
<path d="M207.835 304.174C207.835 304.174 210.189 275.251 208.676 272.897C208.676 272.897 218.837 296.919 207.733 316.954L207.835 304.174Z" fill="#000839"/>
<path d="M159.387 605.074C159.387 605.074 144.65 595.94 135.107 618.287C135.107 618.287 148.223 626.989 161.117 610.774L159.387 605.074Z" fill="#000839"/>
<path d="M152.937 580.151C152.937 580.151 134.86 571.905 126.086 595.237C126.086 595.237 140.055 604.846 154.583 586.049L152.937 580.151Z" fill="#000839"/>
<path d="M150.181 559.281C150.181 559.281 137.233 544.147 117.75 559.281C117.75 559.281 130.026 572.566 150.181 563.149V559.281Z" fill="#000839"/>
<path d="M148.565 535.337C148.565 535.337 135.449 519.53 116.777 534.496C116.777 534.496 131.581 548.453 148.565 539.037V535.337Z" fill="#000839"/>
<path d="M150.181 515.903C150.181 515.903 140.98 493.081 120.981 502.913C120.981 502.913 131.792 523.122 149.37 519.68L150.181 515.903Z" fill="#000839"/>
<path d="M154.535 491.832C154.535 491.832 145.394 468.645 125.107 479.401C125.107 479.401 137.527 500.655 153.634 495.418L154.535 491.832Z" fill="#000839"/>
<path d="M160.204 471.173C160.204 471.173 156.601 445.751 139.785 443.475C139.785 443.475 143.346 470.284 157.934 475.755L160.204 471.173Z" fill="#000839"/>
<path d="M164.738 451.294C164.738 451.294 163.333 420.666 149.43 419.603C149.43 419.603 149.898 442.85 163.171 455.636L164.738 451.294Z" fill="#000839"/>
<path d="M174.492 427.404C174.492 427.404 170.342 401.934 157.075 398.817C157.075 398.817 158.721 423.488 173.182 433.65L174.492 427.404Z" fill="#000839"/>
<path d="M182.533 406.973C182.533 406.973 182.389 380.446 174.287 376.542C174.287 376.542 169.255 400.565 180.185 410.36L182.533 406.973Z" fill="#000839"/>
<path d="M189.313 386.65C189.313 386.65 188.178 359.33 179.783 355.48C179.783 355.48 176.906 377.101 188.052 388.439L189.313 386.65Z" fill="#000839"/>
<path d="M198.262 362.369C198.262 362.369 198.208 340.148 192.22 334.941C192.22 334.941 186.257 359.282 195.133 366.843L198.262 362.369Z" fill="#000839"/>
<path d="M201.355 341.277L195.529 304.289C195.529 304.289 187.608 334.593 201.637 347.944L201.355 341.277Z" fill="#000839"/>
<path d="M202.496 304.529C202.496 304.529 187.53 279.665 187.836 276.903C187.836 276.903 189.428 302.961 208.255 315.939L202.496 304.529Z" fill="#000839"/>
<path d="M204.249 297.184C204.249 297.184 190.124 261.871 183.734 259C183.734 259 203.913 269.258 205.427 296.163L204.249 297.184Z" fill="#000839"/>
<path d="M196.406 365.828L195.445 365.528C207.366 326.66 210.339 301.868 203.817 295.658L204.514 294.926C211.426 301.484 208.622 325.999 196.406 365.828Z" fill="#444053"/>
<path d="M163.585 456.819L162.156 456.315C163.417 452.754 164.786 449.138 166.216 445.577C178.659 414.546 189.247 385.719 196.04 363.564L197.283 362.963C190.479 385.118 180.077 415.086 167.621 446.141C166.198 449.685 164.841 453.276 163.585 456.819Z" fill="#444053"/>
<path d="M193.662 670.818C193.469 670.602 174.143 648.85 160.679 611.699C152.783 589.954 148.384 567.095 147.646 543.973C146.728 515.068 152.787 482.788 163.183 453.474L164.312 454.796C140.986 520.593 150.253 576.98 162.546 610.93C175.873 647.738 194.977 669.257 195.163 669.473L193.662 670.818Z" fill="#444053"/>
<path d="M109.457 666.074C109.457 666.074 86.6052 664.698 89.3017 680.709C89.3017 680.709 88.7672 683.538 91.3316 684.823C91.3316 684.823 91.3677 683.622 93.6738 684.036C94.493 684.174 95.3255 684.215 96.1542 684.156C97.2759 684.081 98.3426 683.643 99.193 682.907C99.193 682.907 105.613 680.253 108.111 669.755C108.111 669.755 109.961 667.467 109.883 666.878L106.027 668.524C106.027 668.524 107.349 671.304 106.31 673.617C106.31 673.617 106.184 668.626 105.445 668.74C105.295 668.74 103.439 669.707 103.439 669.707C103.439 669.707 105.709 674.553 103.998 678.073C103.998 678.073 104.646 672.103 102.736 670.055L100.022 671.641C100.022 671.641 102.67 676.643 100.875 680.727C100.875 680.727 101.331 674.463 99.4513 672.025L96.9889 673.947C96.9889 673.947 99.4753 678.878 97.9619 682.265C97.9619 682.265 97.7637 674.974 96.4544 674.421C96.4544 674.421 94.3044 676.319 93.9741 677.1C93.9741 677.1 95.6797 680.703 94.6227 682.571C94.6227 682.571 93.9741 677.712 93.4216 677.688C93.4216 677.688 91.2776 680.907 91.0554 683.093C91.1592 681.055 91.7949 679.08 92.8991 677.364C91.6634 677.598 90.5234 678.189 89.62 679.064C89.62 679.064 89.9503 676.788 93.4276 676.589C93.4276 676.589 95.2293 674.145 95.6737 673.995C95.6737 673.995 92.2145 673.707 90.1185 674.638C90.1185 674.638 91.9622 672.494 96.3103 673.436L98.7126 671.455C98.7126 671.455 94.1603 670.854 92.2265 671.521C92.2265 671.521 94.4486 669.623 99.3672 671.004L102.01 669.425C102.01 669.425 98.13 668.59 95.8118 668.89C95.8118 668.89 98.2561 667.575 102.784 668.998L104.676 668.151C104.676 668.151 101.829 667.593 101.001 667.503C100.172 667.413 100.118 667.185 100.118 667.185C101.921 666.885 103.772 667.093 105.463 667.785C105.463 667.785 109.523 666.326 109.457 666.074Z" fill="#000839"/>
<path d="M43.0343 673.503C43.0343 673.503 20.2129 672.127 22.8854 688.138C22.8854 688.138 22.3449 690.967 24.9093 692.252C24.9093 692.252 24.9513 691.051 27.2575 691.466C28.0763 691.606 28.9092 691.647 29.7378 691.586C30.858 691.512 31.9232 691.073 32.7706 690.336C32.7706 690.336 39.1967 687.682 41.695 677.184C41.695 677.184 43.5387 674.896 43.4967 674.307L39.6411 675.953C39.6411 675.953 40.9623 678.734 39.9234 681.046C39.9234 681.046 39.7972 676.055 39.0585 676.169C38.9084 676.169 37.0527 677.136 37.0527 677.136C37.0527 677.136 39.3228 681.983 37.6112 685.502C37.6112 685.502 38.2598 679.532 36.344 677.484L33.6294 679.07C33.6294 679.07 36.2779 684.073 34.4822 688.156C34.4822 688.156 34.9447 681.893 33.0589 679.454L30.6026 681.376C30.6026 681.376 33.0889 686.307 31.5755 689.694C31.5755 689.694 31.3773 682.403 30.0681 681.851C30.0681 681.851 27.9181 683.748 27.5878 684.529C27.5878 684.529 29.2934 688.132 28.2364 690C28.2364 690 27.5878 685.142 27.0353 685.118C27.0353 685.118 24.8973 688.337 24.669 690.523C24.7763 688.484 25.414 686.509 26.5188 684.793C25.2816 685.028 24.1397 685.618 23.2337 686.493C23.2337 686.493 23.57 684.217 27.0473 684.019C27.0473 684.019 28.849 681.574 29.2934 681.43C29.2934 681.43 25.8341 681.136 23.7382 682.067C23.7382 682.067 25.5819 679.923 29.93 680.866L32.3322 678.884C32.3322 678.884 27.78 678.283 25.8462 678.95C25.8462 678.95 28.0682 677.052 32.9869 678.433L35.6293 676.854C35.6293 676.854 31.7437 676.019 29.4315 676.319C29.4315 676.319 31.8758 675.004 36.4041 676.427L38.2958 675.581C38.2958 675.581 35.4492 675.022 34.6144 674.932C33.7796 674.842 33.7376 674.614 33.7376 674.614C35.5405 674.318 37.3903 674.525 39.0826 675.214C39.0826 675.214 43.0823 673.755 43.0343 673.503Z" fill="#000839"/>
<path d="M80.053 690.943C80.053 690.943 57.2316 689.568 59.8981 705.579C59.8981 705.579 59.3636 708.407 61.928 709.692C61.928 709.692 61.97 708.491 64.2702 708.906C65.0913 709.044 65.9259 709.084 66.7565 709.026C67.8762 708.949 68.9406 708.511 69.7894 707.777C69.7894 707.777 76.2094 705.122 78.7077 694.624C78.7077 694.624 80.5575 692.336 80.5094 691.748L76.6538 693.393C76.6538 693.393 77.969 696.174 76.9361 698.486C76.9361 698.486 76.81 693.495 76.0653 693.609C75.9151 693.609 74.0654 694.576 74.0654 694.576C74.0654 694.576 76.3295 699.417 74.6179 702.942C74.6179 702.942 75.2665 696.973 73.3567 694.925L70.6422 696.51C70.6422 696.51 73.2907 701.513 71.495 705.597C71.495 705.597 71.9574 699.333 70.0716 696.894L67.6093 698.816C67.6093 698.816 70.1017 703.747 68.5822 707.134C68.5822 707.134 68.3841 699.843 67.0808 699.291C67.0808 699.291 64.9248 701.189 64.6005 701.969C64.6005 701.969 66.3061 705.573 65.2431 707.44C65.2431 707.44 64.5945 702.582 64.042 702.558C64.042 702.558 61.898 705.777 61.6758 707.963C61.7796 705.925 62.4153 703.95 63.5195 702.234C62.2838 702.467 61.1438 703.058 60.2404 703.933C60.2404 703.933 60.5707 701.657 64.054 701.459C64.054 701.459 65.8197 699.014 66.2941 698.864C66.2941 698.864 62.8349 698.576 60.7389 699.507C60.7389 699.507 62.5886 697.363 66.9307 698.336L69.3329 696.354C69.3329 696.354 64.7807 695.753 62.8469 696.42C62.8469 696.42 65.075 694.522 69.9876 695.904L72.636 694.324C72.636 694.324 68.7744 693.507 66.4563 693.808C66.4563 693.808 68.8945 692.492 73.4288 693.916L75.3146 693.069C75.3146 693.069 72.4739 692.51 71.6391 692.42C70.8043 692.33 70.7623 692.102 70.7623 692.102C72.5652 691.802 74.4159 692.01 76.1073 692.703C76.1073 692.703 80.1191 691.195 80.053 690.943Z" fill="#000839"/>
<path opacity="0.1" d="M62.2403 714.107C71.1725 714.107 78.4135 712.883 78.4135 711.374C78.4135 709.865 71.1725 708.642 62.2403 708.642C53.3081 708.642 46.0671 709.865 46.0671 711.374C46.0671 712.883 53.3081 714.107 62.2403 714.107Z" fill="#000839"/>
<path opacity="0.1" d="M575.229 714.107C584.162 714.107 591.402 712.883 591.402 711.374C591.402 709.865 584.162 708.642 575.229 708.642C566.297 708.642 559.056 709.865 559.056 711.374C559.056 712.883 566.297 714.107 575.229 714.107Z" fill="#000839"/>
<path opacity="0.1" d="M420.35 729.835C429.282 729.835 436.523 728.612 436.523 727.103C436.523 725.594 429.282 724.37 420.35 724.37C411.418 724.37 404.177 725.594 404.177 727.103C404.177 728.612 411.418 729.835 420.35 729.835Z" fill="#000839"/>
<path opacity="0.1" d="M600.807 690.42C609.739 690.42 616.98 689.197 616.98 687.688C616.98 686.179 609.739 684.955 600.807 684.955C591.875 684.955 584.634 686.179 584.634 687.688C584.634 689.197 591.875 690.42 600.807 690.42Z" fill="#000839"/>
<path opacity="0.1" d="M93.7159 688.715C102.648 688.715 109.889 687.491 109.889 685.982C109.889 684.473 102.648 683.25 93.7159 683.25C84.7837 683.25 77.5427 684.473 77.5427 685.982C77.5427 687.491 84.7837 688.715 93.7159 688.715Z" fill="#000839"/>
<path opacity="0.1" d="M27.2755 696.384C36.2076 696.384 43.4486 695.161 43.4486 693.651C43.4486 692.142 36.2076 690.919 27.2755 690.919C18.3433 690.919 11.1023 692.142 11.1023 693.651C11.1023 695.161 18.3433 696.384 27.2755 696.384Z" fill="#000839"/>
<g filter="url(#filter4_d)">
<path d="M434.968 306.901H187.686C184.435 306.901 181.8 309.536 181.8 312.786V686.204C181.8 689.455 184.435 692.09 187.686 692.09H434.968C438.218 692.09 440.853 689.455 440.853 686.204V312.786C440.853 309.536 438.218 306.901 434.968 306.901Z" fill="#DDDDDD"/>
</g>
<path opacity="0.1" d="M402.808 340.01H223.053C213.365 340.01 205.511 347.864 205.511 357.552V398.193C205.511 407.881 213.365 415.735 223.053 415.735H402.808C412.496 415.735 420.35 407.881 420.35 398.193V357.552C420.35 347.864 412.496 340.01 402.808 340.01Z" fill="black"/>
<g filter="url(#filter5_d)">
<path d="M412.351 341.487H213.018C209.635 341.487 206.892 344.23 206.892 347.613V408.6C206.892 411.983 209.635 414.726 213.018 414.726H412.351C415.734 414.726 418.476 411.983 418.476 408.6V347.613C418.476 344.23 415.734 341.487 412.351 341.487Z" fill="#E6E8EC"/>
</g>
<g opacity="0.9" filter="url(#filter6_d)">
<path d="M249.238 447.277H219.474C215.895 447.277 212.994 450.178 212.994 453.757V488.265C212.994 491.844 215.895 494.745 219.474 494.745H249.238C252.816 494.745 255.718 491.844 255.718 488.265V453.757C255.718 450.178 252.816 447.277 249.238 447.277Z" fill="#ECECEC"/>
</g>
<g opacity="0.9" filter="url(#filter7_d)">
<path d="M301.457 447.277H271.693C268.114 447.277 265.213 450.178 265.213 453.757V488.265C265.213 491.844 268.114 494.745 271.693 494.745H301.457C305.035 494.745 307.937 491.844 307.937 488.265V453.757C307.937 450.178 305.035 447.277 301.457 447.277Z" fill="#ECECEC"/>
</g>
<g opacity="0.9" filter="url(#filter8_d)">
<path d="M353.676 447.277H323.912C320.333 447.277 317.432 450.178 317.432 453.757V488.265C317.432 491.844 320.333 494.745 323.912 494.745H353.676C357.254 494.745 360.156 491.844 360.156 488.265V453.757C360.156 450.178 357.254 447.277 353.676 447.277Z" fill="#ECECEC"/>
</g>
<path opacity="0.1" d="M395.054 448.285H386.971C377.405 448.285 369.651 456.04 369.651 465.606V478.434C369.651 487.999 377.405 495.754 386.971 495.754H395.054C404.62 495.754 412.375 487.999 412.375 478.434V465.606C412.375 456.04 404.62 448.285 395.054 448.285Z" fill="black"/>
<g filter="url(#filter9_d)">
<path d="M405.894 447.277H376.131C372.552 447.277 369.651 450.178 369.651 453.757V488.265C369.651 491.844 372.552 494.745 376.131 494.745H405.894C409.473 494.745 412.375 491.844 412.375 488.265V453.757C412.375 450.178 409.473 447.277 405.894 447.277Z" fill="#ECECEC"/>
</g>
<g opacity="0.9" filter="url(#filter10_d)">
<path d="M249.238 499.496H219.474C215.895 499.496 212.994 502.397 212.994 505.976V540.484C212.994 544.063 215.895 546.964 219.474 546.964H249.238C252.816 546.964 255.718 544.063 255.718 540.484V505.976C255.718 502.397 252.816 499.496 249.238 499.496Z" fill="#ECECEC"/>
</g>
<g opacity="0.9" filter="url(#filter11_d)">
<path d="M301.457 499.496H271.693C268.114 499.496 265.213 502.397 265.213 505.976V540.484C265.213 544.063 268.114 546.964 271.693 546.964H301.457C305.035 546.964 307.937 544.063 307.937 540.484V505.976C307.937 502.397 305.035 499.496 301.457 499.496Z" fill="#ECECEC"/>
</g>
<g opacity="0.9" filter="url(#filter12_d)">
<path d="M353.676 499.496H323.912C320.333 499.496 317.432 502.397 317.432 505.976V540.484C317.432 544.063 320.333 546.964 323.912 546.964H353.676C357.254 546.964 360.156 544.063 360.156 540.484V505.976C360.156 502.397 357.254 499.496 353.676 499.496Z" fill="#ECECEC"/>
</g>
<g opacity="0.9" filter="url(#filter13_d)">
<path d="M249.238 557.138H219.474C215.895 557.138 212.994 560.039 212.994 563.618V598.126C212.994 601.705 215.895 604.606 219.474 604.606H249.238C252.816 604.606 255.718 601.705 255.718 598.126V563.618C255.718 560.039 252.816 557.138 249.238 557.138Z" fill="#ECECEC"/>
</g>
<g opacity="0.9" filter="url(#filter14_d)">
<path d="M301.457 557.138H271.693C268.114 557.138 265.213 560.039 265.213 563.618V598.126C265.213 601.705 268.114 604.606 271.693 604.606H301.457C305.035 604.606 307.937 601.705 307.937 598.126V563.618C307.937 560.039 305.035 557.138 301.457 557.138Z" fill="#ECECEC"/>
</g>
<g opacity="0.9" filter="url(#filter15_d)">
<path d="M353.676 557.138H323.912C320.333 557.138 317.432 560.039 317.432 563.618V598.126C317.432 601.705 320.333 604.606 323.912 604.606H353.676C357.254 604.606 360.156 601.705 360.156 598.126V563.618C360.156 560.039 357.254 557.138 353.676 557.138Z" fill="#ECECEC"/>
</g>
<g opacity="0.9" filter="url(#filter16_d)">
<path d="M353.676 614.78H323.912C320.333 614.78 317.432 617.681 317.432 621.26V655.768C317.432 659.347 320.333 662.248 323.912 662.248H353.676C357.254 662.248 360.156 659.347 360.156 655.768V621.26C360.156 617.681 357.254 614.78 353.676 614.78Z" fill="#ECECEC"/>
</g>
<path opacity="0.1" d="M395.054 500.504H386.971C377.405 500.504 369.651 508.259 369.651 517.825V530.653C369.651 540.218 377.405 547.973 386.971 547.973H395.054C404.62 547.973 412.375 540.218 412.375 530.653V517.825C412.375 508.259 404.62 500.504 395.054 500.504Z" fill="black"/>
<path d="M405.588 499.496H376.437C372.689 499.496 369.651 502.534 369.651 506.282V540.178C369.651 543.926 372.689 546.964 376.437 546.964H405.588C409.336 546.964 412.375 543.926 412.375 540.178V506.282C412.375 502.534 409.336 499.496 405.588 499.496Z" fill="#FF9955"/>
<g filter="url(#filter17_d)">
<path d="M405.588 499.496H376.437C372.689 499.496 369.651 502.534 369.651 506.282V540.178C369.651 543.926 372.689 546.964 376.437 546.964H405.588C409.336 546.964 412.375 543.926 412.375 540.178V506.282C412.375 502.534 409.336 499.496 405.588 499.496Z" fill="#ECECEC"/>
</g>
<g opacity="0.9" filter="url(#filter18_d)">
<path d="M301.907 614.78H219.023C215.693 614.78 212.994 617.479 212.994 620.809V656.218C212.994 659.548 215.693 662.248 219.023 662.248H301.907C305.237 662.248 307.937 659.548 307.937 656.218V620.809C307.937 617.479 305.237 614.78 301.907 614.78Z" fill="#ECECEC"/>
</g>
<g opacity="0.9" filter="url(#filter19_d)">
<path d="M405.366 557.138H372.581C368.714 557.138 365.579 560.273 365.579 564.14V655.252C365.579 659.119 368.714 662.254 372.581 662.254H405.366C409.233 662.254 412.369 659.119 412.369 655.252V564.14C412.369 560.273 409.233 557.138 405.366 557.138Z" fill="#ECECEC"/>
</g>
<path d="M408.975 401.934H390.274V403.958H408.975V401.934Z" fill="#FFCCAA"/>
<path d="M381.596 401.934H362.894V403.958H381.596V401.934Z" fill="#FFCCAA"/>
<path d="M354.21 401.934H335.509V403.958H354.21V401.934Z" fill="#FFCCAA"/>
<path d="M326.83 401.934H308.129V403.958H326.83V401.934Z" fill="#FFCCAA"/>
<path d="M528.403 544.003C530.331 537.517 528.403 531.031 528.403 531.031V524.911C528.403 524.911 530.607 512.948 520.77 505.273L514.248 499.52C514.248 499.52 510.591 496.379 509.528 496.18C509.33 496.138 509.129 496.108 508.927 496.09L508.735 495.976C508.174 495.018 507.696 494.013 507.306 492.973C507.728 493.028 508.157 492.985 508.56 492.848C508.963 492.71 509.329 492.482 509.63 492.181C509.865 491.91 510.051 491.598 510.176 491.262C510.555 490.415 510.621 489.388 510.939 488.487C511.218 487.757 511.625 487.082 512.14 486.493C512.074 486.601 512.002 486.704 511.942 486.818C512.867 485.665 514.074 484.68 514.945 483.467C515.118 483.226 515.276 482.975 515.419 482.716C515.383 482.77 515.335 482.818 515.293 482.872C516.494 480.944 516.861 478.608 517.209 476.356C517.377 475.589 517.389 474.797 517.245 474.026C517.076 473.514 516.859 473.019 516.596 472.548C515.179 469.624 515.203 465.942 512.939 463.606C511.233 461.858 508.651 461.324 506.219 461.023C503.786 460.723 501.228 460.549 499.138 459.276C498.554 458.834 497.909 458.479 497.222 458.225C496.877 458.104 496.5 458.108 496.157 458.235C495.814 458.362 495.526 458.605 495.342 458.922C495.299 459.109 495.213 459.284 495.09 459.432C494.981 459.494 494.86 459.53 494.735 459.537C494.61 459.544 494.485 459.523 494.369 459.474L491.132 458.609L491.168 458.771H491.084L491.204 459.282C491.268 459.271 491.333 459.282 491.389 459.314C491.445 459.346 491.488 459.396 491.511 459.456L490.988 460.261C489.987 460.242 488.997 460.039 488.07 459.66C488.064 459.712 488.064 459.764 488.07 459.816H488.021C487.961 460.729 489 461.324 489.319 462.183C489.446 462.558 489.446 462.966 489.319 463.342C489.189 463.69 488.984 464.006 488.718 464.267C487.571 465.402 486.1 465.179 484.778 465.894C484.664 465.943 484.562 466.016 484.479 466.108C484.396 466.201 484.334 466.31 484.298 466.429C484.246 466.517 484.231 466.623 484.256 466.723C484.308 466.861 484.403 466.978 484.526 467.059C484.911 467.37 485.332 467.632 485.781 467.84C485.649 467.96 485.523 468.08 485.403 468.206C483.726 469.91 482.498 472.003 481.827 474.298C481.157 476.593 481.065 479.018 481.56 481.357C482.056 483.696 483.123 485.876 484.667 487.702C486.21 489.528 488.182 490.943 490.406 491.82C490.454 492.073 490.49 492.331 490.526 492.601C490.526 492.631 490.526 492.649 490.526 492.679L490.562 493.027L486.202 494.883C485.544 494.878 484.901 494.686 484.349 494.33C483.796 493.974 483.355 493.468 483.079 492.871C482.064 490.775 478.479 492.871 478.479 492.871C478.479 492.871 467.542 492.055 463.464 494.072C463.464 494.072 456.936 491.334 456.017 491.148C455.099 490.962 453.723 490.235 453.081 490.421C452.438 490.607 451.609 489.22 451.147 489.322C450.684 489.424 450.504 488.409 449.033 488.043C447.562 487.676 447.009 488.139 445.357 486.493C443.706 484.848 430.277 478.362 430.277 478.362L424.248 473.401L417.816 468.284L417.702 468.494C417.66 468.344 417.617 468.188 417.575 468.02C416.936 465.471 416.133 462.966 415.173 460.519C414.759 459.528 414.573 458.279 414.014 458.94C413.672 459.336 413.089 458.465 412.212 457.877C412.027 457.748 411.814 457.663 411.591 457.627C411.368 457.591 411.14 457.605 410.923 457.668C410.706 457.731 410.506 457.842 410.338 457.992C410.169 458.143 410.036 458.329 409.948 458.537C404.94 466.393 403.144 466.945 406.045 469.834C408.633 472.398 410.351 474.638 412.459 475.347L412.711 475.425C412.666 475.437 412.618 475.437 412.573 475.425L424.8 490.043C424.8 490.043 433.622 497.718 439.694 500.18C445.766 502.642 445.297 503.381 445.297 503.381C445.297 503.381 463.687 512.696 466.533 512.516C469.38 512.336 468.834 531.608 467.638 534.737C466.443 537.866 464.515 560.315 464.515 560.315C464.515 560.315 462.672 565.065 464.606 568.35C464.606 568.35 465.032 574.644 464.648 576.157C462.972 578.74 460.582 583.124 460.191 587.634C460.191 587.874 460.143 588.097 460.119 588.331C459.997 588.473 459.85 588.593 459.687 588.685L460.095 588.565C459.922 590.445 459.518 592.296 458.894 594.078C457.922 596.581 457.407 599.237 457.375 601.922V616.431L456.174 625.44C456.174 625.44 454.702 632.256 456.174 633.847C456.794 634.641 457.082 635.644 456.978 636.646C456.917 637.809 457.247 638.959 457.915 639.913C458.171 640.192 458.358 640.527 458.462 640.891C458.566 641.254 458.585 641.637 458.516 642.009C458.029 643.589 459.237 660.398 459.237 660.398C459.237 660.398 458.882 665.029 458.396 665.275C457.909 665.521 459.237 670.632 459.237 670.632C459.237 670.632 454.27 674.776 455.537 676.968L456.804 678.914L456.468 679.244L456.264 679.454C455.881 679.233 455.434 679.149 454.997 679.214C453.436 680.811 451.766 682.298 450 683.664C447.76 685.28 441.664 687.622 441.664 687.622L436.86 688.012H436.769C436.769 688.012 434.469 687.796 435.76 691.357C437.052 694.919 448.595 693.826 448.595 693.826L455.333 692.763C455.333 692.763 467.344 692.823 470.785 692.06C472.221 691.742 472.587 690.973 472.467 690.198L472.431 690.162C472.266 689.423 471.928 688.734 471.446 688.15C471.421 688.112 471.393 688.076 471.362 688.042L471.578 685.58C476.677 682.643 470.137 676.866 470.137 676.866C470.137 676.866 472.377 671.995 473.524 670.416C474.671 668.836 474.671 645.564 474.671 645.564C474.671 645.564 475.272 637.157 473.692 635.211C473.665 634.577 473.81 633.948 474.113 633.391C474.415 632.833 474.864 632.368 475.41 632.046C476.545 631.271 479.974 620.599 482.664 611.741L484.358 622.179C484.358 622.179 483.992 627.175 485.091 628.635C485.297 628.91 485.445 629.225 485.523 629.56C485.602 629.895 485.61 630.242 485.547 630.58C485.287 631.981 485.371 633.424 485.793 634.784C485.923 635.368 486.236 635.895 486.688 636.286C487.667 636.772 487.727 638.508 488.094 638.874C488.46 639.241 490.73 638.358 490.85 639.697C490.919 640.873 490.919 642.052 490.85 643.228L491.589 664.909C491.589 664.909 490.388 666.71 490.117 671.515C490.015 673.563 489.631 674.728 489.235 675.394C489.015 675.752 488.914 676.17 488.946 676.589C488.978 677.007 489.143 677.405 489.415 677.725L489.625 677.971L488.718 678.668C488.354 678.951 488.098 679.351 487.996 679.801C487.893 680.251 487.948 680.722 488.154 681.136C487.861 681.39 487.652 681.727 487.552 682.101C487.452 682.476 487.467 682.872 487.595 683.238C487.632 683.358 487.685 683.473 487.751 683.58C487.062 683.688 486.423 684.005 485.92 684.487C485.014 685.732 483.922 686.829 482.682 687.742C480.884 689.12 479.162 690.596 477.524 692.162C476.751 693.213 475.716 694.042 474.521 694.564C474.228 694.683 473.924 694.774 473.614 694.835C471.212 695.327 471.962 697.838 473.92 698.252C475.878 698.666 482.376 700.654 487.433 699.495C487.433 699.495 488.934 700.096 491.138 698.979C493.342 697.862 498.261 696.492 498.261 696.492C498.261 696.492 501.018 696.492 501.39 695.399C501.487 695.051 501.539 694.692 501.546 694.33L501.624 694.252L501.552 694.186C501.559 693.368 501.497 692.55 501.366 691.742C501.294 691.321 501.216 690.949 501.144 690.649C500.91 689.736 500.471 688.553 500.285 688.054C500.316 688.015 500.345 687.973 500.369 687.928C501.42 686.127 499.672 681.851 499.672 681.851C500.246 680.94 500.944 680.113 501.744 679.394C502.723 678.662 505.3 659.66 505.3 659.66C505.3 659.66 505.174 654.789 506.501 652.597C507.828 650.405 504.663 637.133 504.663 637.133C504.663 637.133 503.312 634.088 503.804 632.989C504.297 631.89 503.312 627.872 503.312 627.872V623.067C503.309 622.495 503.214 621.927 503.03 621.386C502.651 620.257 502.093 618.089 502.699 616.533C503.558 614.341 505.516 600.823 505.516 600.823C505.516 600.823 503.984 594.859 506.231 590.109C506.406 589.729 506.607 589.362 506.831 589.009C508.495 586.397 507.996 581.755 507.173 578.013C507.053 577.413 506.915 576.872 506.777 576.35C506.723 576.121 506.663 575.905 506.603 575.689L506.867 575.581C506.867 575.581 506.867 575.227 506.951 574.62C507.858 574.44 508.718 574.076 509.479 573.55C510.239 573.025 510.883 572.348 511.371 571.563C511.371 571.563 516.981 565.257 521.941 562.609C526.902 559.96 527.274 556.123 527.274 556.123C526.542 554.843 528.59 549.637 528.59 549.637L528.403 544.003ZM512.224 552.411L506.915 558.567V558.531C505.534 556.609 508.2 552.315 508.2 552.315L512.615 542.466C512.579 543.727 512.422 544.868 512.014 545.367C510.813 547.012 514.224 549.757 514.224 549.757C512.404 549.763 512.224 552.411 512.224 552.411Z" fill="url(#paint0_linear)"/>
<path d="M418.753 471.701L415.852 477.329C414.934 477.25 414.028 477.061 413.155 476.764C411.772 476.351 410.492 475.649 409.4 474.705C408.308 473.761 407.428 472.596 406.819 471.287C404.231 465.57 408.513 461.876 410.507 460.783C412.501 459.69 414.357 458.447 415.852 462.032C416.791 464.465 417.575 466.954 418.2 469.485C418.548 470.801 418.753 471.701 418.753 471.701Z" fill="#CC818C"/>
<path d="M510.873 500.973L506.243 507.867C506.243 507.867 484.364 518.305 488.544 506.066C490.382 500.661 490.598 496.715 490.268 493.982C490.268 493.952 490.268 493.934 490.268 493.904C489.835 490.487 488.55 489.004 488.55 489.004C488.55 489.004 509.876 478.085 506.699 485.55C506.051 487.102 505.793 488.789 505.948 490.463C506.21 492.875 506.993 495.2 508.242 497.279C508.994 498.595 509.875 499.833 510.873 500.973Z" fill="#CC818C"/>
<g filter="url(#filter20_d)">
<path d="M504.213 637.547C504.213 637.547 507.36 650.759 506.014 652.915C504.669 655.071 504.813 659.936 504.813 659.936C504.813 659.936 502.273 678.818 501.306 679.538C500.512 680.241 499.819 681.049 499.246 681.941C499.246 681.941 500.976 686.217 499.937 687.982C499.776 688.251 499.534 688.461 499.246 688.583C497.624 689.267 491.631 686.229 488.22 684.379C487.945 684.229 487.711 684.014 487.536 683.754C487.362 683.494 487.253 683.195 487.219 682.884C487.185 682.573 487.226 682.258 487.34 681.966C487.453 681.674 487.636 681.414 487.871 681.208C487.666 680.799 487.609 680.331 487.71 679.884C487.811 679.437 488.063 679.039 488.424 678.758L489.325 678.061L489.114 677.815C488.845 677.496 488.682 677.101 488.65 676.685C488.618 676.269 488.717 675.853 488.934 675.497C489.325 674.842 489.703 673.695 489.805 671.647C490.051 666.926 491.258 665.113 491.258 665.113L490.532 643.565C490.6 642.397 490.6 641.225 490.532 640.057C490.412 638.73 488.172 639.607 487.811 639.241C487.451 638.874 487.385 637.157 486.418 636.67C485.972 636.279 485.665 635.755 485.541 635.175C485.114 633.815 485.029 632.371 485.295 630.971C485.357 630.635 485.349 630.29 485.272 629.957C485.194 629.624 485.049 629.311 484.844 629.037C483.757 627.584 484.118 622.629 484.118 622.629L482.448 612.251C479.788 621.055 476.407 631.661 475.283 632.43C474.745 632.753 474.303 633.215 474.005 633.768C473.707 634.321 473.563 634.944 473.59 635.571C475.163 637.511 474.557 645.865 474.557 645.865C474.557 645.865 474.557 668.974 473.422 670.554C472.287 672.133 470.089 676.992 470.089 676.992C470.089 676.992 476.575 682.763 471.47 685.676H471.416C466.209 688.583 455.441 680.475 455.441 680.475L456.564 679.352L456.894 679.022L455.621 677.124C454.372 674.944 459.273 670.83 459.273 670.83C459.273 670.83 457.963 665.743 458.444 665.503C458.924 665.263 459.273 660.663 459.273 660.663C459.273 660.663 458.071 643.961 458.564 642.387C458.629 642.017 458.609 641.637 458.505 641.276C458.401 640.915 458.216 640.582 457.963 640.304C457.302 639.356 456.977 638.214 457.038 637.061C457.143 636.065 456.857 635.068 456.24 634.28C454.786 632.706 456.24 625.932 456.24 625.932L457.441 616.972V602.744C457.457 599.998 457.972 597.277 458.96 594.715C459.694 592.638 460.139 590.469 460.281 588.271C460.678 583.682 463.146 579.226 464.804 576.686C465.68 575.341 466.335 574.536 466.335 574.536L505.059 573.022C505.059 573.022 505.66 574.746 506.309 577.142C506.441 577.665 506.573 578.217 506.699 578.794C507.51 582.517 507.996 587.13 506.357 589.724C506.134 590.076 505.934 590.441 505.756 590.817C503.54 595.538 505.053 601.465 505.053 601.465C505.053 601.465 503.12 614.894 502.273 617.08C501.672 618.623 502.225 620.779 502.603 621.884C502.78 622.425 502.871 622.991 502.873 623.56V628.346C502.873 628.346 503.846 632.34 503.36 633.433C502.873 634.526 504.213 637.547 504.213 637.547Z" fill="white"/>
</g>
<path opacity="0.1" d="M505.996 590.108C505.772 590.457 505.571 590.82 505.396 591.195L503.216 591.075C503.426 589.952 501.943 579.424 501.943 579.424L506.333 579.178C507.144 582.896 507.636 587.508 505.996 590.108Z" fill="black"/>
<path d="M506.357 589.742C506.134 590.094 505.934 590.459 505.756 590.835L503.576 590.709C503.786 589.592 502.303 579.058 502.303 579.058L506.693 578.812C507.51 582.535 507.996 587.148 506.357 589.742Z" fill="#444053"/>
<path opacity="0.05" d="M506.357 589.742C506.134 590.094 505.934 590.459 505.756 590.835L503.576 590.709C503.786 589.592 502.303 579.058 502.303 579.058L506.693 578.812C507.51 582.535 507.996 587.148 506.357 589.742Z" fill="black"/>
<path opacity="0.1" d="M499.943 688.006C499.782 688.275 499.54 688.485 499.252 688.607C497.631 689.291 491.637 686.253 488.226 684.403C487.8 684.167 487.477 683.782 487.319 683.322C489.265 682.967 490.538 685.123 490.538 685.123C490.862 684.92 491.224 684.784 491.602 684.722C491.98 684.661 492.366 684.675 492.738 684.765C493.111 684.856 493.461 685.019 493.769 685.247C494.077 685.474 494.336 685.761 494.532 686.09C496.195 688.541 499.762 687.508 499.762 687.508L499.943 688.006Z" fill="black"/>
<path d="M500.946 695.423C500.585 696.516 497.859 696.516 497.859 696.516C497.859 696.516 492.988 697.91 490.808 698.997C488.628 700.084 487.151 699.513 487.151 699.513C482.16 700.66 475.74 698.666 473.806 698.27C471.872 697.874 471.116 695.369 473.506 694.883C473.812 694.82 474.112 694.727 474.401 694.606C475.598 694.088 476.635 693.259 477.404 692.204C479.022 690.649 480.724 689.183 482.502 687.814C483.727 686.905 484.804 685.813 485.697 684.577C488.544 682.067 490.568 685.514 490.568 685.514C490.893 685.311 491.255 685.175 491.633 685.114C492.011 685.053 492.398 685.068 492.77 685.158C493.142 685.249 493.492 685.413 493.8 685.642C494.108 685.87 494.367 686.157 494.562 686.487C496.225 688.937 499.793 687.898 499.793 687.898C499.793 687.898 500.435 689.538 500.735 690.715C500.807 691.015 500.886 691.387 500.958 691.808C501.12 693.027 501.222 694.606 500.946 695.423Z" fill="black"/>
<path d="M492.622 687.772C492.804 687.772 492.952 687.624 492.952 687.442C492.952 687.259 492.804 687.111 492.622 687.111C492.439 687.111 492.292 687.259 492.292 687.442C492.292 687.624 492.439 687.772 492.622 687.772Z" fill="#575988"/>
<path d="M489.781 690.433C489.964 690.433 490.112 690.285 490.112 690.102C490.112 689.92 489.964 689.772 489.781 689.772C489.599 689.772 489.451 689.92 489.451 690.102C489.451 690.285 489.599 690.433 489.781 690.433Z" fill="#575988"/>
<path d="M486.893 692.823C487.075 692.823 487.223 692.675 487.223 692.492C487.223 692.31 487.075 692.162 486.893 692.162C486.71 692.162 486.562 692.31 486.562 692.492C486.562 692.675 486.71 692.823 486.893 692.823Z" fill="#575988"/>
<path d="M488.388 691.754C488.57 691.754 488.718 691.606 488.718 691.424C488.718 691.241 488.57 691.093 488.388 691.093C488.205 691.093 488.058 691.241 488.058 691.424C488.058 691.606 488.205 691.754 488.388 691.754Z" fill="#575988"/>
<path d="M491.265 689.021C491.447 689.021 491.595 688.873 491.595 688.691C491.595 688.508 491.447 688.361 491.265 688.361C491.082 688.361 490.934 688.508 490.934 688.691C490.934 688.873 491.082 689.021 491.265 689.021Z" fill="#575988"/>
<path d="M500.946 695.423C500.585 696.516 497.859 696.516 497.859 696.516C497.859 696.516 492.988 697.91 490.808 698.997C488.628 700.084 487.151 699.513 487.151 699.513C482.16 700.66 475.74 698.666 473.806 698.27C471.872 697.874 471.116 695.369 473.506 694.883C473.812 694.82 474.112 694.727 474.401 694.607C476.512 695.333 478.716 695.752 480.947 695.85C485.877 696.06 489.781 695.85 489.781 695.85L494.772 694.246C495.717 693.673 496.766 693.293 497.859 693.129C498.964 692.904 500.009 692.45 500.928 691.796C501.12 693.027 501.222 694.607 500.946 695.423Z" fill="#DCE6F2"/>
<path opacity="0.5" d="M488.526 698.552C488.248 698.554 487.97 698.528 487.697 698.474L487.769 698.12C488.79 698.276 489.834 698.13 490.772 697.699C491.217 697.525 491.661 697.315 492.093 697.099C492.526 696.882 493.132 696.612 493.673 696.414L494.165 696.246C494.436 696.15 494.712 696.06 494.976 695.946C495.126 695.886 495.276 695.813 495.421 695.741C495.775 695.556 496.15 695.413 496.538 695.315C496.736 695.278 496.937 695.252 497.138 695.237C497.323 695.225 497.508 695.202 497.691 695.171C498.054 695.079 498.406 694.948 498.742 694.78C499.1 694.596 499.479 694.455 499.871 694.36L500.135 694.318C500.42 694.311 500.694 694.209 500.916 694.03L501.186 694.276C500.91 694.518 500.561 694.66 500.195 694.678L499.943 694.72C499.579 694.81 499.226 694.941 498.892 695.111C498.532 695.29 498.153 695.429 497.763 695.525C497.565 695.564 497.364 695.588 497.162 695.597C496.973 695.611 496.784 695.635 496.598 695.669C496.237 695.763 495.888 695.898 495.559 696.072L495.102 696.282C494.826 696.396 494.538 696.492 494.261 696.588L493.781 696.756C493.252 696.949 492.736 697.195 492.232 697.429C491.727 697.663 491.343 697.849 490.886 698.03C490.139 698.349 489.338 698.526 488.526 698.552Z" fill="#575988"/>
<path opacity="0.1" d="M489.691 638.424C489.691 638.424 492.201 634.82 496.501 634.82C500.801 634.82 502.639 634.334 502.639 634.334C502.639 634.334 499.889 635.968 497.985 636.178C496.081 636.388 489.691 638.424 489.691 638.424Z" fill="black"/>
<path opacity="0.1" d="M491.145 639.27C491.145 639.27 493.415 637.697 494.712 637.637C496.009 637.577 497.114 637.457 497.114 637.457C496.506 637.884 495.832 638.21 495.12 638.424C494.057 638.724 491.145 639.27 491.145 639.27Z" fill="black"/>
<path opacity="0.1" d="M491.655 640.357C491.655 640.357 495.072 640.628 495.102 641.559L491.655 640.357Z" fill="black"/>
<path opacity="0.1" d="M459.783 589.31C459.963 589.34 463.02 586.133 463.23 584.866C463.397 584.063 463.874 583.36 464.558 582.908C464.558 582.908 466.527 583.694 464.774 586.109C463.02 588.523 459.783 589.31 459.783 589.31Z" fill="black"/>
<path opacity="0.1" d="M506.669 485.538C505.972 487.184 505.36 487.34 505.468 488.908C504.657 489.766 503.724 490.501 502.699 491.088C500.537 492.373 498.183 494.889 495.493 494.889C493.69 494.89 491.903 494.552 490.226 493.892C489.793 490.475 488.508 488.992 488.508 488.992C488.508 488.992 509.84 478.073 506.669 485.538Z" fill="black"/>
<path d="M509.936 479.731C509.936 482.582 509.091 485.368 507.507 487.739C505.923 490.109 503.672 491.956 501.038 493.047C498.405 494.138 495.507 494.424 492.711 493.867C489.915 493.311 487.346 491.939 485.331 489.923C483.315 487.907 481.942 485.339 481.386 482.543C480.83 479.747 481.115 476.849 482.206 474.215C483.297 471.581 485.145 469.33 487.515 467.746C489.885 466.163 492.672 465.317 495.523 465.317C499.345 465.317 503.011 466.836 505.714 469.539C508.418 472.242 509.936 475.908 509.936 479.731Z" fill="#CC818C"/>
<path opacity="0.1" d="M510.873 500.973L506.243 507.867C506.243 507.867 484.364 518.305 488.544 506.066C490.382 500.661 490.598 496.715 490.268 493.982H490.304C490.562 494.888 490.71 495.822 490.742 496.763C490.808 498.649 490.856 501.033 495.547 501.82C503.354 503.129 507.522 498.252 508.254 497.298C509.003 498.607 509.88 499.838 510.873 500.973Z" fill="black"/>
<path opacity="0.1" d="M418.753 471.701L415.852 477.329C414.934 477.25 414.028 477.061 413.155 476.764L412.903 476.464C414.104 476.92 418.074 469.383 418.074 469.383L418.2 469.485C418.548 470.801 418.753 471.701 418.753 471.701Z" fill="black"/>
<path opacity="0.1" d="M506.309 577.16C496.964 581.22 464.642 577.761 464.642 577.761C464.738 577.416 464.793 577.062 464.804 576.704C465.681 575.359 466.335 574.554 466.335 574.554L505.059 573.041C505.059 573.041 505.69 574.764 506.309 577.16Z" fill="black"/>
<path d="M490.28 494.319L485.968 496.162C485.317 496.157 484.681 495.966 484.136 495.612C483.59 495.257 483.157 494.755 482.887 494.162C481.884 492.078 478.346 494.162 478.346 494.162C478.346 494.162 467.536 493.346 463.549 495.364C463.549 495.364 457.105 492.637 456.198 492.457C455.291 492.277 453.928 491.55 453.291 491.73C452.654 491.91 451.844 490.529 451.387 490.643C450.931 490.757 450.751 489.736 449.297 489.37C447.844 489.004 447.303 489.46 445.694 487.826C444.084 486.193 430.806 479.749 430.806 479.749L424.8 474.848L418.446 469.768C418.446 469.768 414.453 477.299 413.269 476.842L425.341 491.37C425.341 491.37 434.055 498.991 440.049 501.441C446.042 503.892 445.586 504.618 445.586 504.618C445.586 504.618 463.741 513.879 466.551 513.699C469.362 513.519 468.834 532.647 467.632 535.733C466.431 538.82 464.551 561.149 464.551 561.149C464.551 561.149 462.75 565.87 464.642 569.137C464.642 569.137 465.092 575.857 464.642 577.034C464.642 577.034 497.162 580.511 506.393 576.398C506.393 576.398 507.756 561.329 506.393 559.426C505.029 557.522 507.666 553.276 507.666 553.276L513.473 540.298L527.635 526.046C527.635 526.046 529.809 514.155 520.098 506.534L513.654 500.811C513.654 500.811 510.05 497.694 508.993 497.496C507.936 497.297 508.327 497.496 508.327 497.496C508.327 497.496 504.123 503.627 495.499 502.174C490.826 501.387 490.778 499.003 490.694 497.123C490.669 496.175 490.53 495.233 490.28 494.319Z" fill="#000839"/>
<path opacity="0.1" d="M508.026 543.18C508.026 543.18 488.052 543.997 484.064 550.273C484.064 550.273 489.241 547.817 493.865 548.543C498.489 549.27 508.026 543.18 508.026 543.18Z" fill="black"/>
<path opacity="0.1" d="M485.968 565.053C485.968 565.053 495.408 565.69 497.408 563.69C499.408 561.69 499.414 560.513 499.414 560.513L485.968 565.053Z" fill="black"/>
<path opacity="0.1" d="M509.936 523.932C509.936 523.932 501.943 533.373 511.66 537.457L509.936 523.932Z" fill="#000839"/>
<path opacity="0.1" d="M462.642 505.693C462.642 505.693 465.548 511.621 467.002 512.011L462.642 505.693Z" fill="black"/>
<path opacity="0.1" d="M452.841 503.147C452.841 503.147 460.101 509.687 461.465 510.318C461.465 510.318 453.928 503.147 452.841 503.147Z" fill="black"/>
<path opacity="0.1" d="M481.794 496.889C481.794 496.889 474.803 507.327 479.343 513.705C479.343 513.681 476.803 506.144 481.794 496.889Z" fill="black"/>
<path d="M499.414 575.947L497.276 577.959L496.976 578.235L494.502 580.577C494.327 580.71 494.153 580.842 493.973 580.962C483.902 588.169 481.884 577.214 481.884 577.214C481.884 577.214 477.44 580.121 476.803 577.761C476.166 575.401 487.151 572.043 488.814 572.224C488.96 572.238 489.107 572.238 489.253 572.224C490.046 572.092 490.811 571.821 491.511 571.425L491.997 571.167C492.557 570.852 493.1 570.509 493.625 570.14L499.414 575.947Z" fill="#CC818C"/>
<path opacity="0.1" d="M510.272 479.731C510.278 482.231 509.633 484.689 508.401 486.864C507.169 489.04 505.392 490.857 503.246 492.139C503.045 491.801 502.868 491.45 502.717 491.088C502.201 489.886 501.882 488.589 501.36 487.382C500.789 486.064 499.974 484.866 498.958 483.851C498.786 483.65 498.564 483.496 498.315 483.406C498.082 483.374 497.844 483.39 497.617 483.453C497.389 483.516 497.178 483.625 496.994 483.773C496.383 484.187 495.701 484.486 494.982 484.655C494.622 484.738 494.248 484.726 493.894 484.621C493.54 484.516 493.22 484.321 492.964 484.055C492.4 483.382 492.478 482.397 492.64 481.539C492.994 479.659 493.583 477.809 493.589 475.899C493.595 473.99 492.862 471.936 491.186 470.987C489.721 470.152 487.901 470.386 486.274 469.918C486.022 469.852 485.775 469.767 485.535 469.665C487.536 467.612 490.104 466.201 492.911 465.615C495.717 465.029 498.635 465.293 501.291 466.373C503.947 467.454 506.22 469.302 507.82 471.682C509.42 474.061 510.274 476.864 510.272 479.731Z" fill="black"/>
<path d="M484.55 467.359C484.292 467.497 484.004 467.75 484.082 468.038C484.132 468.175 484.224 468.293 484.346 468.374C485.018 468.917 485.795 469.316 486.628 469.545C488.256 469.99 490.081 469.779 491.547 470.614C493.204 471.557 493.949 473.617 493.949 475.527C493.949 477.437 493.349 479.286 493.006 481.16C492.844 482.025 492.76 483.01 493.325 483.683C493.581 483.947 493.902 484.141 494.255 484.246C494.608 484.351 494.983 484.364 495.342 484.283C496.061 484.117 496.743 483.82 497.354 483.406C497.539 483.257 497.751 483.148 497.98 483.084C498.208 483.02 498.447 483.003 498.682 483.034C498.929 483.128 499.149 483.28 499.324 483.478C500.341 484.496 501.156 485.696 501.726 487.016C502.255 488.217 502.567 489.508 503.084 490.721C503.534 491.958 504.378 493.013 505.486 493.724C506.639 494.361 508.237 494.325 509.125 493.34C510.014 492.355 509.942 491.003 510.362 489.82C511.083 487.76 513.095 486.469 514.356 484.691C515.768 482.692 516.158 480.181 516.542 477.761C516.713 476.999 516.725 476.21 516.578 475.443C516.414 474.935 516.2 474.444 515.942 473.977C514.536 471.071 514.566 467.413 512.338 465.095C510.657 463.353 508.104 462.825 505.702 462.525C503.3 462.224 500.778 462.056 498.718 460.789C498.14 460.352 497.503 460 496.826 459.744C496.483 459.623 496.109 459.627 495.768 459.755C495.428 459.882 495.143 460.125 494.964 460.441C494.922 460.626 494.837 460.798 494.718 460.945C494.61 461.007 494.49 461.043 494.365 461.051C494.241 461.058 494.117 461.036 494.003 460.987L490.808 460.128L491.175 461.738C490.013 461.787 488.855 461.582 487.781 461.137C487.721 462.05 488.748 462.639 489.067 463.492C489.181 463.879 489.186 464.292 489.08 464.682C488.974 465.072 488.761 465.425 488.466 465.702C487.307 466.867 485.86 466.645 484.55 467.359Z" fill="black"/>
<path opacity="0.1" d="M471.602 684.235L471.47 685.682H471.416C466.209 688.589 455.441 680.481 455.441 680.481L456.564 679.358C456.748 679.563 456.887 679.804 456.972 680.065C457.057 680.327 457.086 680.604 457.056 680.878L459.254 680.998L461.885 683.838C461.885 683.838 469.002 684.661 470.929 684.205L471.602 684.235Z" fill="black"/>
<path d="M470.689 692.126C467.302 692.883 455.441 692.829 455.441 692.829L448.787 693.88C448.787 693.88 437.376 694.973 436.109 691.429C434.842 687.886 437.106 688.108 437.106 688.108H437.196L441.946 687.724C441.946 687.724 447.952 685.394 450.18 683.79C451.924 682.433 453.571 680.956 455.111 679.37C455.111 679.37 457.093 678.986 457.056 681.28L459.255 681.4L461.885 684.247C461.885 684.247 469.002 685.069 470.929 684.607H471.602L471.296 688.12L471.38 688.222C471.836 688.775 473.716 691.453 470.689 692.126Z" fill="black"/>
<path d="M458.408 683.652C458.59 683.652 458.738 683.504 458.738 683.322C458.738 683.139 458.59 682.991 458.408 682.991C458.225 682.991 458.077 683.139 458.077 683.322C458.077 683.504 458.225 683.652 458.408 683.652Z" fill="#575988"/>
<path d="M449.874 687.352C450.056 687.352 450.204 687.204 450.204 687.021C450.204 686.839 450.056 686.691 449.874 686.691C449.691 686.691 449.543 686.839 449.543 687.021C449.543 687.204 449.691 687.352 449.874 687.352Z" fill="#575988"/>
<path d="M445.478 688.685C445.66 688.685 445.808 688.537 445.808 688.354C445.808 688.172 445.66 688.024 445.478 688.024C445.295 688.024 445.147 688.172 445.147 688.354C445.147 688.537 445.295 688.685 445.478 688.685Z" fill="#575988"/>
<path d="M452.114 686.643C452.296 686.643 452.444 686.495 452.444 686.313C452.444 686.13 452.296 685.982 452.114 685.982C451.931 685.982 451.784 686.13 451.784 686.313C451.784 686.495 451.931 686.643 452.114 686.643Z" fill="#575988"/>
<path d="M447.67 688.018C447.852 688.018 448 687.87 448 687.688C448 687.506 447.852 687.358 447.67 687.358C447.487 687.358 447.339 687.506 447.339 687.688C447.339 687.87 447.487 688.018 447.67 688.018Z" fill="#575988"/>
<path d="M454.378 685.592C454.56 685.592 454.708 685.444 454.708 685.262C454.708 685.079 454.56 684.931 454.378 684.931C454.195 684.931 454.048 685.079 454.048 685.262C454.048 685.444 454.195 685.592 454.378 685.592Z" fill="#575988"/>
<path d="M456.618 684.619C456.801 684.619 456.948 684.471 456.948 684.289C456.948 684.106 456.801 683.958 456.618 683.958C456.436 683.958 456.288 684.106 456.288 684.289C456.288 684.471 456.436 684.619 456.618 684.619Z" fill="#575988"/>
<path d="M470.689 692.126C467.302 692.883 455.441 692.829 455.441 692.829L448.787 693.88C448.787 693.88 437.376 694.973 436.109 691.429C434.842 687.886 437.106 688.108 437.106 688.108H437.196C437.923 689.051 439.382 690.12 442.247 690.174L450.45 690.504L458.948 689.904C458.948 689.904 466.912 689.67 468.209 689.393C469.298 689.1 470.36 688.71 471.38 688.228C471.836 688.775 473.716 691.453 470.689 692.126Z" fill="#DCE6F2"/>
<path opacity="0.5" d="M449.429 693.081C448.975 693.087 448.523 693.031 448.084 692.913L448.18 692.564C449.299 692.805 450.462 692.753 451.555 692.414C451.958 692.306 452.354 692.192 452.756 692.072C453.483 691.841 454.223 691.655 454.973 691.513C456.183 691.356 457.406 691.32 458.624 691.405H458.882C462.521 691.596 466.169 691.434 469.776 690.919C470.632 690.859 471.448 690.532 472.107 689.982L472.365 690.24C471.653 690.845 470.768 691.209 469.836 691.279C466.206 691.797 462.533 691.96 458.87 691.766H458.606C457.404 691.681 456.197 691.718 455.003 691.874C454.269 692.011 453.545 692.193 452.835 692.42C452.432 692.54 452.03 692.66 451.633 692.763C450.914 692.958 450.174 693.065 449.429 693.081Z" fill="#575988"/>
<path opacity="0.1" d="M499.414 575.947L497.276 577.959L491.967 571.161C492.527 570.846 493.07 570.503 493.595 570.134L499.414 575.947Z" fill="black"/>
<path d="M523.485 520.245L527.689 526.052V532.136C527.689 532.136 529.593 538.58 527.689 545.024L527.893 550.651C527.893 550.651 525.869 555.822 526.596 557.095C526.596 557.095 526.235 560.909 521.335 563.539C516.434 566.17 510.873 572.404 510.873 572.404C510.873 572.404 508.783 576.398 503.156 575.491L497.799 577.761L491.631 569.863L499.979 565.323C499.979 565.323 502.886 561.425 504.609 561.606L511.69 553.342C511.69 553.342 511.87 550.711 513.684 550.711C513.684 550.711 510.326 547.991 511.504 546.357C512.681 544.724 511.69 537.457 511.69 537.457L523.485 520.245Z" fill="#000839"/>
<path opacity="0.1" d="M515.677 546.718C515.677 546.718 525.208 546.538 526.386 548.988C527.563 551.438 518.554 545.355 515.677 546.718Z" fill="black"/>
<path opacity="0.1" d="M497.018 577.761C497.019 577.92 497.005 578.079 496.976 578.235C496.866 578.966 496.507 579.637 495.96 580.134C495.413 580.63 494.711 580.923 493.973 580.962H493.805C492.954 580.962 492.139 580.624 491.537 580.022C490.936 579.421 490.598 578.605 490.598 577.755C490.599 577.401 490.66 577.049 490.778 576.716C489.265 575.515 489.181 573.305 489.223 572.212C490.016 572.08 490.781 571.809 491.481 571.413C491.876 572.547 492.406 573.63 493.06 574.638C493.304 574.58 493.554 574.55 493.805 574.548C494.657 574.548 495.474 574.886 496.077 575.489C496.679 576.091 497.018 576.909 497.018 577.761Z" fill="black"/>
<path d="M491.769 570.692C491.769 570.692 489.619 571.179 489.619 571.569C489.619 571.959 489.133 575.503 491.493 576.974C493.853 578.445 493.613 574.944 493.613 574.944C493.613 574.944 491.583 571.833 491.769 570.692Z" fill="black"/>
<path d="M494.165 580.968C495.936 580.968 497.372 579.532 497.372 577.761C497.372 575.99 495.936 574.554 494.165 574.554C492.394 574.554 490.958 575.99 490.958 577.761C490.958 579.532 492.394 580.968 494.165 580.968Z" fill="#E4AAB4"/>
<path d="M494.165 580.511C495.684 580.511 496.916 579.28 496.916 577.761C496.916 576.242 495.684 575.01 494.165 575.01C492.646 575.01 491.415 576.242 491.415 577.761C491.415 579.28 492.646 580.511 494.165 580.511Z" fill="#DCE6F2"/>
<path opacity="0.1" d="M481.674 579.004C481.674 579.004 488.454 584.625 497.162 581.058V583.784C497.162 583.784 491.355 587.778 486.094 585.358C480.833 582.938 481.674 579.004 481.674 579.004Z" fill="black"/>
<path opacity="0.1" d="M481.674 578.277C481.674 578.277 488.454 583.905 497.162 580.331V583.058C497.162 583.058 491.355 587.052 486.094 584.631C480.833 582.211 481.674 578.277 481.674 578.277Z" fill="black"/>
<path d="M481.674 578.277C481.674 578.277 488.454 583.905 497.162 580.331V583.058C497.162 583.058 491.355 587.052 486.094 584.631C480.833 582.211 481.674 578.277 481.674 578.277Z" fill="#444053"/>
<path opacity="0.05" d="M481.854 578.277C481.854 578.277 488.634 583.905 497.348 580.331V583.058C497.348 583.058 491.541 587.052 486.274 584.631C481.007 582.211 481.854 578.277 481.854 578.277Z" fill="black"/>
<path opacity="0.1" d="M460.372 679.358C460.372 679.358 469.452 681.028 470.779 681.388C472.107 681.748 470.419 682.385 470.419 682.385C470.419 682.385 462.131 680.902 460.372 679.358Z" fill="black"/>
<path opacity="0.1" d="M460.161 674.548C460.312 674.548 466.335 672.854 467.632 669.953L460.161 674.548Z" fill="black"/>
<path opacity="0.1" d="M468.948 639.817C468.948 639.817 471.386 643.024 472.959 642.934C474.533 642.844 470.377 639.697 468.948 639.817Z" fill="black"/>
<path opacity="0.1" d="M470.299 645.162C470.299 645.162 471.326 647.426 472.839 646.7L470.299 645.162Z" fill="black"/>
<path opacity="0.05" d="M476.04 595.315L482.478 612.293C482.478 612.293 483.385 601.369 481.469 598.102C480.925 597.168 480.124 596.409 479.162 595.915C478.2 595.421 477.117 595.213 476.04 595.315Z" fill="black"/>
<g opacity="0.1">
<path opacity="0.1" d="M491.859 460.789L491.805 460.543L490.772 460.267L490.886 460.771C491.21 460.795 491.535 460.801 491.859 460.789Z" fill="black"/>
<path opacity="0.1" d="M489.018 464.885L489.127 464.789C489.422 464.513 489.635 464.16 489.741 463.769C489.848 463.379 489.843 462.967 489.727 462.579C489.602 462.278 489.428 461.999 489.211 461.756C488.702 461.656 488.203 461.509 487.721 461.318C487.661 462.224 488.682 462.813 489 463.666C489.148 464.058 489.154 464.489 489.018 464.885Z" fill="black"/>
<path opacity="0.1" d="M506.189 492.793C505.069 492.087 504.214 491.032 503.756 489.79C503.246 488.589 502.927 487.292 502.405 486.091C501.834 484.771 501.019 483.571 500.003 482.553C499.829 482.354 499.608 482.201 499.36 482.109C499.127 482.078 498.889 482.095 498.662 482.158C498.435 482.221 498.223 482.329 498.039 482.475C497.428 482.89 496.746 483.189 496.027 483.358C495.667 483.44 495.293 483.427 494.939 483.322C494.586 483.217 494.266 483.022 494.009 482.758C493.445 482.085 493.523 481.094 493.685 480.235C494.039 478.362 494.628 476.506 494.634 474.602C494.64 472.698 493.907 470.632 492.231 469.689C490.766 468.855 488.946 469.089 487.319 468.62C486.484 468.391 485.705 467.992 485.031 467.449C484.988 467.414 484.948 467.376 484.911 467.335C484.774 467.388 484.642 467.45 484.514 467.521C484.25 467.66 483.968 467.912 484.04 468.2C484.094 468.337 484.188 468.454 484.31 468.536C484.982 469.08 485.759 469.479 486.592 469.707C488.22 470.152 490.039 469.942 491.505 470.776C493.162 471.719 493.907 473.779 493.907 475.689C493.907 477.599 493.306 479.449 492.958 481.322C492.796 482.187 492.718 483.172 493.282 483.845C493.539 484.109 493.859 484.304 494.213 484.409C494.566 484.514 494.941 484.527 495.3 484.445C496.019 484.279 496.701 483.982 497.312 483.568C497.496 483.42 497.707 483.31 497.934 483.246C498.162 483.182 498.399 483.165 498.633 483.196C498.881 483.289 499.102 483.441 499.276 483.64C500.29 484.66 501.105 485.859 501.678 487.178C502.207 488.379 502.519 489.67 503.036 490.883C503.486 492.12 504.33 493.176 505.438 493.886C506.585 494.523 508.188 494.487 509.041 493.502C509.277 493.234 509.461 492.925 509.582 492.589C509.097 492.95 508.518 493.161 507.916 493.198C507.313 493.234 506.712 493.093 506.189 492.793Z" fill="black"/>
<path opacity="0.1" d="M511.377 488.175C512.284 487.028 513.479 486.049 514.332 484.848C514.5 484.607 514.656 484.355 514.801 484.103C513.702 485.502 512.194 486.613 511.377 488.175Z" fill="black"/>
</g>
<defs>
<filter id="filter0_d" x="414.5" y="60" width="122.135" height="63.0251" filterUnits="userSpaceOnUse" color-interpolation-filters="sRGB">
<feFlood flood-opacity="0" result="BackgroundImageFix"/>
<feColorMatrix in="SourceAlpha" type="matrix" values="0 0 0 0 0 0 0 0 0 0 0 0 0 0 0 0 0 0 127 0"/>
<feOffset dy="4"/>
<feGaussianBlur stdDeviation="2"/>
<feColorMatrix type="matrix" values="0 0 0 0 0 0 0 0 0 0 0 0 0 0 0 0 0 0 0.25 0"/>
<feBlend mode="normal" in2="BackgroundImageFix" result="effect1_dropShadow"/>
<feBlend mode="normal" in="SourceGraphic" in2="effect1_dropShadow" result="shape"/>
</filter>
<filter id="filter1_d" x="28" y="60" width="122.135" height="63.0251" filterUnits="userSpaceOnUse" color-interpolation-filters="sRGB">
<feFlood flood-opacity="0" result="BackgroundImageFix"/>
<feColorMatrix in="SourceAlpha" type="matrix" values="0 0 0 0 0 0 0 0 0 0 0 0 0 0 0 0 0 0 127 0"/>
<feOffset dy="4"/>
<feGaussianBlur stdDeviation="2"/>
<feColorMatrix type="matrix" values="0 0 0 0 0 0 0 0 0 0 0 0 0 0 0 0 0 0 0.25 0"/>
<feBlend mode="normal" in2="BackgroundImageFix" result="effect1_dropShadow"/>
<feBlend mode="normal" in="SourceGraphic" in2="effect1_dropShadow" result="shape"/>
</filter>
<filter id="filter2_d" x="98.5" y="0" width="58" height="32" filterUnits="userSpaceOnUse" color-interpolation-filters="sRGB">
<feFlood flood-opacity="0" result="BackgroundImageFix"/>
<feColorMatrix in="SourceAlpha" type="matrix" values="0 0 0 0 0 0 0 0 0 0 0 0 0 0 0 0 0 0 127 0"/>
<feOffset dy="4"/>
<feGaussianBlur stdDeviation="2"/>
<feColorMatrix type="matrix" values="0 0 0 0 0 0 0 0 0 0 0 0 0 0 0 0 0 0 0.25 0"/>
<feBlend mode="normal" in2="BackgroundImageFix" result="effect1_dropShadow"/>
<feBlend mode="normal" in="SourceGraphic" in2="effect1_dropShadow" result="shape"/>
</filter>
<filter id="filter3_d" x="254" y="112" width="129.648" height="76.8895" filterUnits="userSpaceOnUse" color-interpolation-filters="sRGB">
<feFlood flood-opacity="0" result="BackgroundImageFix"/>
<feColorMatrix in="SourceAlpha" type="matrix" values="0 0 0 0 0 0 0 0 0 0 0 0 0 0 0 0 0 0 127 0"/>
<feOffset dy="4"/>
<feGaussianBlur stdDeviation="2"/>
<feColorMatrix type="matrix" values="0 0 0 0 0 0 0 0 0 0 0 0 0 0 0 0 0 0 0.25 0"/>
<feBlend mode="normal" in2="BackgroundImageFix" result="effect1_dropShadow"/>
<feBlend mode="normal" in="SourceGraphic" in2="effect1_dropShadow" result="shape"/>
</filter>
<filter id="filter4_d" x="171.8" y="300.901" width="279.053" height="405.189" filterUnits="userSpaceOnUse" color-interpolation-filters="sRGB">
<feFlood flood-opacity="0" result="BackgroundImageFix"/>
<feColorMatrix in="SourceAlpha" type="matrix" values="0 0 0 0 0 0 0 0 0 0 0 0 0 0 0 0 0 0 127 0"/>
<feOffset dy="4"/>
<feGaussianBlur stdDeviation="5"/>
<feColorMatrix type="matrix" values="0 0 0 0 0 0 0 0 0 0 0 0 0 0 0 0 0 0 0.25 0"/>
<feBlend mode="normal" in2="BackgroundImageFix" result="effect1_dropShadow"/>
<feBlend mode="normal" in="SourceGraphic" in2="effect1_dropShadow" result="shape"/>
</filter>
<filter id="filter5_d" x="202.892" y="341.487" width="219.584" height="81.2387" filterUnits="userSpaceOnUse" color-interpolation-filters="sRGB">
<feFlood flood-opacity="0" result="BackgroundImageFix"/>
<feColorMatrix in="SourceAlpha" type="matrix" values="0 0 0 0 0 0 0 0 0 0 0 0 0 0 0 0 0 0 127 0"/>
<feOffset dy="4"/>
<feGaussianBlur stdDeviation="2"/>
<feColorMatrix type="matrix" values="0 0 0 0 0 0 0 0 0 0 0 0 0 0 0 0 0 0 0.25 0"/>
<feBlend mode="normal" in2="BackgroundImageFix" result="effect1_dropShadow"/>
<feBlend mode="normal" in="SourceGraphic" in2="effect1_dropShadow" result="shape"/>
</filter>
<filter id="filter6_d" x="208.994" y="447.277" width="50.724" height="55.4685" filterUnits="userSpaceOnUse" color-interpolation-filters="sRGB">
<feFlood flood-opacity="0" result="BackgroundImageFix"/>
<feColorMatrix in="SourceAlpha" type="matrix" values="0 0 0 0 0 0 0 0 0 0 0 0 0 0 0 0 0 0 127 0"/>
<feOffset dy="4"/>
<feGaussianBlur stdDeviation="2"/>
<feColorMatrix type="matrix" values="0 0 0 0 0 0 0 0 0 0 0 0 0 0 0 0 0 0 0.25 0"/>
<feBlend mode="normal" in2="BackgroundImageFix" result="effect1_dropShadow"/>
<feBlend mode="normal" in="SourceGraphic" in2="effect1_dropShadow" result="shape"/>
</filter>
<filter id="filter7_d" x="261.213" y="447.277" width="50.7241" height="55.4685" filterUnits="userSpaceOnUse" color-interpolation-filters="sRGB">
<feFlood flood-opacity="0" result="BackgroundImageFix"/>
<feColorMatrix in="SourceAlpha" type="matrix" values="0 0 0 0 0 0 0 0 0 0 0 0 0 0 0 0 0 0 127 0"/>
<feOffset dy="4"/>
<feGaussianBlur stdDeviation="2"/>
<feColorMatrix type="matrix" values="0 0 0 0 0 0 0 0 0 0 0 0 0 0 0 0 0 0 0.25 0"/>
<feBlend mode="normal" in2="BackgroundImageFix" result="effect1_dropShadow"/>
<feBlend mode="normal" in="SourceGraphic" in2="effect1_dropShadow" result="shape"/>
</filter>
<filter id="filter8_d" x="313.432" y="447.277" width="50.7241" height="55.4685" filterUnits="userSpaceOnUse" color-interpolation-filters="sRGB">
<feFlood flood-opacity="0" result="BackgroundImageFix"/>
<feColorMatrix in="SourceAlpha" type="matrix" values="0 0 0 0 0 0 0 0 0 0 0 0 0 0 0 0 0 0 127 0"/>
<feOffset dy="4"/>
<feGaussianBlur stdDeviation="2"/>
<feColorMatrix type="matrix" values="0 0 0 0 0 0 0 0 0 0 0 0 0 0 0 0 0 0 0.25 0"/>
<feBlend mode="normal" in2="BackgroundImageFix" result="effect1_dropShadow"/>
<feBlend mode="normal" in="SourceGraphic" in2="effect1_dropShadow" result="shape"/>
</filter>
<filter id="filter9_d" x="365.651" y="447.277" width="50.7241" height="55.4685" filterUnits="userSpaceOnUse" color-interpolation-filters="sRGB">
<feFlood flood-opacity="0" result="BackgroundImageFix"/>
<feColorMatrix in="SourceAlpha" type="matrix" values="0 0 0 0 0 0 0 0 0 0 0 0 0 0 0 0 0 0 127 0"/>
<feOffset dy="4"/>
<feGaussianBlur stdDeviation="2"/>
<feColorMatrix type="matrix" values="0 0 0 0 0 0 0 0 0 0 0 0 0 0 0 0 0 0 0.25 0"/>
<feBlend mode="normal" in2="BackgroundImageFix" result="effect1_dropShadow"/>
<feBlend mode="normal" in="SourceGraphic" in2="effect1_dropShadow" result="shape"/>
</filter>
<filter id="filter10_d" x="208.994" y="499.496" width="50.724" height="55.4685" filterUnits="userSpaceOnUse" color-interpolation-filters="sRGB">
<feFlood flood-opacity="0" result="BackgroundImageFix"/>
<feColorMatrix in="SourceAlpha" type="matrix" values="0 0 0 0 0 0 0 0 0 0 0 0 0 0 0 0 0 0 127 0"/>
<feOffset dy="4"/>
<feGaussianBlur stdDeviation="2"/>
<feColorMatrix type="matrix" values="0 0 0 0 0 0 0 0 0 0 0 0 0 0 0 0 0 0 0.25 0"/>
<feBlend mode="normal" in2="BackgroundImageFix" result="effect1_dropShadow"/>
<feBlend mode="normal" in="SourceGraphic" in2="effect1_dropShadow" result="shape"/>
</filter>
<filter id="filter11_d" x="261.213" y="499.496" width="50.7241" height="55.4685" filterUnits="userSpaceOnUse" color-interpolation-filters="sRGB">
<feFlood flood-opacity="0" result="BackgroundImageFix"/>
<feColorMatrix in="SourceAlpha" type="matrix" values="0 0 0 0 0 0 0 0 0 0 0 0 0 0 0 0 0 0 127 0"/>
<feOffset dy="4"/>
<feGaussianBlur stdDeviation="2"/>
<feColorMatrix type="matrix" values="0 0 0 0 0 0 0 0 0 0 0 0 0 0 0 0 0 0 0.25 0"/>
<feBlend mode="normal" in2="BackgroundImageFix" result="effect1_dropShadow"/>
<feBlend mode="normal" in="SourceGraphic" in2="effect1_dropShadow" result="shape"/>
</filter>
<filter id="filter12_d" x="313.432" y="499.496" width="50.7241" height="55.4685" filterUnits="userSpaceOnUse" color-interpolation-filters="sRGB">
<feFlood flood-opacity="0" result="BackgroundImageFix"/>
<feColorMatrix in="SourceAlpha" type="matrix" values="0 0 0 0 0 0 0 0 0 0 0 0 0 0 0 0 0 0 127 0"/>
<feOffset dy="4"/>
<feGaussianBlur stdDeviation="2"/>
<feColorMatrix type="matrix" values="0 0 0 0 0 0 0 0 0 0 0 0 0 0 0 0 0 0 0.25 0"/>
<feBlend mode="normal" in2="BackgroundImageFix" result="effect1_dropShadow"/>
<feBlend mode="normal" in="SourceGraphic" in2="effect1_dropShadow" result="shape"/>
</filter>
<filter id="filter13_d" x="208.994" y="557.138" width="50.724" height="55.4685" filterUnits="userSpaceOnUse" color-interpolation-filters="sRGB">
<feFlood flood-opacity="0" result="BackgroundImageFix"/>
<feColorMatrix in="SourceAlpha" type="matrix" values="0 0 0 0 0 0 0 0 0 0 0 0 0 0 0 0 0 0 127 0"/>
<feOffset dy="4"/>
<feGaussianBlur stdDeviation="2"/>
<feColorMatrix type="matrix" values="0 0 0 0 0 0 0 0 0 0 0 0 0 0 0 0 0 0 0.25 0"/>
<feBlend mode="normal" in2="BackgroundImageFix" result="effect1_dropShadow"/>
<feBlend mode="normal" in="SourceGraphic" in2="effect1_dropShadow" result="shape"/>
</filter>
<filter id="filter14_d" x="261.213" y="557.138" width="50.7241" height="55.4685" filterUnits="userSpaceOnUse" color-interpolation-filters="sRGB">
<feFlood flood-opacity="0" result="BackgroundImageFix"/>
<feColorMatrix in="SourceAlpha" type="matrix" values="0 0 0 0 0 0 0 0 0 0 0 0 0 0 0 0 0 0 127 0"/>
<feOffset dy="4"/>
<feGaussianBlur stdDeviation="2"/>
<feColorMatrix type="matrix" values="0 0 0 0 0 0 0 0 0 0 0 0 0 0 0 0 0 0 0.25 0"/>
<feBlend mode="normal" in2="BackgroundImageFix" result="effect1_dropShadow"/>
<feBlend mode="normal" in="SourceGraphic" in2="effect1_dropShadow" result="shape"/>
</filter>
<filter id="filter15_d" x="313.432" y="557.138" width="50.7241" height="55.4685" filterUnits="userSpaceOnUse" color-interpolation-filters="sRGB">
<feFlood flood-opacity="0" result="BackgroundImageFix"/>
<feColorMatrix in="SourceAlpha" type="matrix" values="0 0 0 0 0 0 0 0 0 0 0 0 0 0 0 0 0 0 127 0"/>
<feOffset dy="4"/>
<feGaussianBlur stdDeviation="2"/>
<feColorMatrix type="matrix" values="0 0 0 0 0 0 0 0 0 0 0 0 0 0 0 0 0 0 0.25 0"/>
<feBlend mode="normal" in2="BackgroundImageFix" result="effect1_dropShadow"/>
<feBlend mode="normal" in="SourceGraphic" in2="effect1_dropShadow" result="shape"/>
</filter>
<filter id="filter16_d" x="313.432" y="614.78" width="50.7241" height="55.4685" filterUnits="userSpaceOnUse" color-interpolation-filters="sRGB">
<feFlood flood-opacity="0" result="BackgroundImageFix"/>
<feColorMatrix in="SourceAlpha" type="matrix" values="0 0 0 0 0 0 0 0 0 0 0 0 0 0 0 0 0 0 127 0"/>
<feOffset dy="4"/>
<feGaussianBlur stdDeviation="2"/>
<feColorMatrix type="matrix" values="0 0 0 0 0 0 0 0 0 0 0 0 0 0 0 0 0 0 0.25 0"/>
<feBlend mode="normal" in2="BackgroundImageFix" result="effect1_dropShadow"/>
<feBlend mode="normal" in="SourceGraphic" in2="effect1_dropShadow" result="shape"/>
</filter>
<filter id="filter17_d" x="365.651" y="499.496" width="50.7241" height="55.4685" filterUnits="userSpaceOnUse" color-interpolation-filters="sRGB">
<feFlood flood-opacity="0" result="BackgroundImageFix"/>
<feColorMatrix in="SourceAlpha" type="matrix" values="0 0 0 0 0 0 0 0 0 0 0 0 0 0 0 0 0 0 127 0"/>
<feOffset dy="4"/>
<feGaussianBlur stdDeviation="2"/>
<feColorMatrix type="matrix" values="0 0 0 0 0 0 0 0 0 0 0 0 0 0 0 0 0 0 0.25 0"/>
<feBlend mode="normal" in2="BackgroundImageFix" result="effect1_dropShadow"/>
<feBlend mode="normal" in="SourceGraphic" in2="effect1_dropShadow" result="shape"/>
</filter>
<filter id="filter18_d" x="208.994" y="614.78" width="102.943" height="55.4685" filterUnits="userSpaceOnUse" color-interpolation-filters="sRGB">
<feFlood flood-opacity="0" result="BackgroundImageFix"/>
<feColorMatrix in="SourceAlpha" type="matrix" values="0 0 0 0 0 0 0 0 0 0 0 0 0 0 0 0 0 0 127 0"/>
<feOffset dy="4"/>
<feGaussianBlur stdDeviation="2"/>
<feColorMatrix type="matrix" values="0 0 0 0 0 0 0 0 0 0 0 0 0 0 0 0 0 0 0.25 0"/>
<feBlend mode="normal" in2="BackgroundImageFix" result="effect1_dropShadow"/>
<feBlend mode="normal" in="SourceGraphic" in2="effect1_dropShadow" result="shape"/>
</filter>
<filter id="filter19_d" x="361.579" y="557.138" width="54.7899" height="113.117" filterUnits="userSpaceOnUse" color-interpolation-filters="sRGB">
<feFlood flood-opacity="0" result="BackgroundImageFix"/>
<feColorMatrix in="SourceAlpha" type="matrix" values="0 0 0 0 0 0 0 0 0 0 0 0 0 0 0 0 0 0 127 0"/>
<feOffset dy="4"/>
<feGaussianBlur stdDeviation="2"/>
<feColorMatrix type="matrix" values="0 0 0 0 0 0 0 0 0 0 0 0 0 0 0 0 0 0 0.25 0"/>
<feBlend mode="normal" in2="BackgroundImageFix" result="effect1_dropShadow"/>
<feBlend mode="normal" in="SourceGraphic" in2="effect1_dropShadow" result="shape"/>
</filter>
<filter id="filter20_d" x="451.417" y="573.022" width="60.0302" height="123.659" filterUnits="userSpaceOnUse" color-interpolation-filters="sRGB">
<feFlood flood-opacity="0" result="BackgroundImageFix"/>
<feColorMatrix in="SourceAlpha" type="matrix" values="0 0 0 0 0 0 0 0 0 0 0 0 0 0 0 0 0 0 127 0"/>
<feOffset dy="4"/>
<feGaussianBlur stdDeviation="2"/>
<feColorMatrix type="matrix" values="0 0 0 0 0 0 0 0 0 0 0 0 0 0 0 0 0 0 0.25 0"/>
<feBlend mode="normal" in2="BackgroundImageFix" result="effect1_dropShadow"/>
<feBlend mode="normal" in="SourceGraphic" in2="effect1_dropShadow" result="shape"/>
</filter>
<linearGradient id="paint0_linear" x1="466.96" y1="699.861" x2="466.96" y2="457.606" gradientUnits="userSpaceOnUse">
<stop stop-color="#808080" stop-opacity="0.25"/>
<stop offset="0.54" stop-color="#808080" stop-opacity="0.12"/>
<stop offset="1" stop-color="#808080" stop-opacity="0.1"/>
</linearGradient>
</defs>
</svg>

