<?xml version="1.0" encoding="UTF-8" standalone="no"?>
<svg
   xmlns:dc="http://purl.org/dc/elements/1.1/"
   xmlns:cc="http://creativecommons.org/ns#"
   xmlns:rdf="http://www.w3.org/1999/02/22-rdf-syntax-ns#"
   xmlns:svg="http://www.w3.org/2000/svg"
   xmlns="http://www.w3.org/2000/svg"
   xmlns:sodipodi="http://sodipodi.sourceforge.net/DTD/sodipodi-0.dtd"
   xmlns:inkscape="http://www.inkscape.org/namespaces/inkscape"
   width="424.83899"
   height="294.793"
   viewBox="0 0 112.40531 77.997317"
   version="1.1"
   id="svg4797"
   inkscape:version="1.0 (b51213c273, 2020-08-10)"
   sodipodi:docname="check_digital_results_table.svg">
  <defs
     id="defs4791" />
  <sodipodi:namedview
     id="base"
     pagecolor="#ffffff"
     bordercolor="#666666"
     borderopacity="1.0"
     inkscape:pageopacity="0.0"
     inkscape:pageshadow="2"
     inkscape:zoom="0.35"
     inkscape:cx="400"
     inkscape:cy="560"
     inkscape:document-units="mm"
     inkscape:current-layer="layer1"
     inkscape:document-rotation="0"
     showgrid="false"
     units="px"
     inkscape:window-width="1465"
     inkscape:window-height="625"
     inkscape:window-x="135"
     inkscape:window-y="375"
     inkscape:window-maximized="0" />
  <metadata
     id="metadata4794">
    <rdf:RDF>
      <cc:Work
         rdf:about="">
        <dc:format>image/svg+xml</dc:format>
        <dc:type
           rdf:resource="http://purl.org/dc/dcmitype/StillImage" />
        <dc:title></dc:title>
      </cc:Work>
    </rdf:RDF>
  </metadata>
  <g
     inkscape:label="Layer 1"
     inkscape:groupmode="layer"
     id="layer1">
    <g
       id="g1720"
       transform="matrix(0.1184784,0,0,0.1184784,0.55447948,1.3935634)">
      <ellipse
         cx="701.12549"
         cy="653.84448"
         rx="41.703819"
         ry="4.3441501"
         fill="#e6e6e6"
         id="ellipse1629" />
      <ellipse
         cx="824.49933"
         cy="653.84448"
         rx="41.703819"
         ry="4.3441501"
         fill="#e6e6e6"
         id="ellipse1631" />
      <ellipse
         cx="920.07056"
         cy="653.84448"
         rx="28.671379"
         ry="2.9865999"
         fill="#e6e6e6"
         id="ellipse1633" />
      <path
         d="m 1053.9046,751.39987 a 79.3004,79.3004 0 0 1 -3.7044,21.92115 c -0.052,0.16469 -0.1057,0.32692 -0.1597,0.49162 h -13.8243 c 0.015,-0.14749 0.029,-0.31218 0.044,-0.49162 0.9217,-10.59679 6.2361,-75.09189 -0.118,-86.12131 0.5555,0.89474 18.8338,30.52936 17.7621,64.20016 z"
         transform="translate(-125.62903,-120.83699)"
         fill="#e6e6e6"
         id="path1635" />
      <path
         d="m 1052.8673,773.321 c -0.1156,0.16469 -0.236,0.32938 -0.3589,0.49162 h -10.3707 c 0.079,-0.14011 0.1696,-0.3048 0.2753,-0.49162 1.7133,-3.09226 6.7843,-12.3371 11.4916,-21.92115 5.0587,-10.29937 9.6995,-20.98956 9.3087,-24.85857 0.1205,0.87263 3.6208,27.47397 -10.346,46.77972 z"
         transform="translate(-125.62903,-120.83699)"
         fill="#e6e6e6"
         id="path1637" />
      <path
         d="M 763.11243,536.74666 H 133.21106 a 7.59073,7.59073 0 0 1 -7.582,-7.582 V 128.41853 a 7.59031,7.59031 0 0 1 7.582,-7.58154 h 629.90137 a 7.59031,7.59031 0 0 1 7.582,7.58154 v 400.7461 a 7.59073,7.59073 0 0 1 -7.582,7.58203 z M 133.21106,123.837 a 4.587,4.587 0 0 0 -4.582,4.58154 v 400.7461 a 4.58744,4.58744 0 0 0 4.582,4.582 h 629.90137 a 4.58745,4.58745 0 0 0 4.582,-4.582 V 128.41853 a 4.587,4.587 0 0 0 -4.582,-4.58154 z"
         transform="translate(-125.62903,-120.83699)"
         fill="#e6e6e6"
         id="path1639" />
      <path
         d="M 599.95477,179.91775 H 266.2127 a 6.18856,6.18856 0 0 0 -6.1823,6.18237 v 285.38319 a 6.18855,6.18855 0 0 0 6.1823,6.18237 h 333.74207 a 6.1886,6.1886 0 0 0 6.18236,-6.18237 V 186.10012 a 6.18861,6.18861 0 0 0 -6.18236,-6.18237 z m 3.70478,291.56556 a 3.71813,3.71813 0 0 1 -3.70478,3.71638 H 266.2127 a 3.71067,3.71067 0 0 1 -3.70471,-3.71638 V 186.10012 a 3.71066,3.71066 0 0 1 3.70471,-3.71637 h 333.74207 a 3.71813,3.71813 0 0 1 3.70478,3.71637 z"
         transform="translate(-125.62903,-120.83699)"
         fill="#3f3d56"
         id="path1641"
         style="fill:#000000" />
      <path
         d="m 343.24884,426.92187 c 0,0.44 -0.0116,0.87989 -0.0348,1.30825 a 25.17464,25.17464 0 0 1 -50.28069,0 c -0.0232,-0.42836 -0.0347,-0.8683 -0.0347,-1.30825 a 25.17508,25.17508 0 1 1 50.35015,0 z"
         transform="translate(-125.62903,-120.83699)"
         fill="#6c63ff"
         id="path1643"
         style="fill:#ffccaa;fill-opacity:1" />
      <path
         d="M 574.02141,410.13462 H 376.2097 a 4.19682,4.19682 0 0 0 0,8.39363 h 197.81171 a 4.19682,4.19682 0 0 0 0,-8.39363 z"
         transform="translate(-125.62903,-120.83699)"
         fill="#6c63ff"
         id="path1645"
         style="fill:#ffccaa;fill-opacity:1" />
      <path
         d="M 461.32685,435.31549 H 376.2097 a 4.191,4.191 0 0 0 0,8.382 h 85.11715 a 4.191,4.191 0 1 0 0,-8.382 z"
         transform="translate(-125.62903,-120.83699)"
         fill="#e6e6e6"
         id="path1647" />
      <path
         d="M 679.2442,378.99648 H 345.50458 A 7.05718,7.05718 0 0 1 338.45552,371.947 V 225.48472 a 7.05709,7.05709 0 0 1 7.04906,-7.04906 H 679.2442 a 7.05709,7.05709 0 0 1 7.049,7.04906 V 371.947 a 7.05718,7.05718 0 0 1 -7.049,7.04948 z"
         transform="translate(-125.62903,-120.83699)"
         fill="#6c63ff"
         id="path1649"
         style="fill:#ffccaa;fill-opacity:1" />
      <path
         d="m 413.47059,270.355 a 4.19591,4.19591 0 0 0 0,8.39182 H 611.278 a 4.19591,4.19591 0 0 0 0,-8.39182 z"
         transform="translate(-125.62903,-120.83699)"
         fill="#ffffff"
         id="path1651" />
      <path
         d="m 413.47059,294.66756 a 4.19592,4.19592 0 0 0 0,8.39183 H 611.278 a 4.19592,4.19592 0 0 0 0,-8.39183 z"
         transform="translate(-125.62903,-120.83699)"
         fill="#ffffff"
         id="path1653" />
      <path
         d="m 413.47059,318.6853 a 4.19592,4.19592 0 0 0 0,8.39183 h 85.11711 a 4.19592,4.19592 0 0 0 0,-8.39183 z"
         transform="translate(-125.62903,-120.83699)"
         fill="#ffffff"
         id="path1655" />
      <circle
         cx="26.913679"
         cy="21.336491"
         r="5.2129798"
         fill="#6c63ff"
         id="circle1657"
         style="fill:#ffccaa;fill-opacity:1" />
      <circle
         cx="45.159111"
         cy="21.336491"
         r="5.2129798"
         fill="#6c63ff"
         id="circle1659"
         style="fill:#ffccaa;fill-opacity:1" />
      <circle
         cx="63.40453"
         cy="21.336491"
         r="5.2129798"
         fill="#6c63ff"
         id="circle1661"
         style="fill:#ffccaa;fill-opacity:1" />
      <path
         d="m 896.87615,558.52033 -4.27324,23.69112 a 12.23847,12.23847 0 0 0 13.7257,14.29482 v 0 a 12.23848,12.23848 0 0 0 10.23845,-14.896 l -5.42106,-23.29769 19.3855,-62.76588 -4.46693,-67.17626 -27.77168,9.60242 12.55381,51.36314 z"
         transform="translate(-125.62903,-120.83699)"
         fill="#ffb8b8"
         id="path1663" />
      <circle
         cx="759.87805"
         cy="225.161"
         r="23.221491"
         fill="#ffb8b8"
         id="circle1665" />
      <path
         d="m 875.74369,412.393 45.38571,-0.70915 c -9.737,-23.56512 -17.62907,-45.81427 -15.60134,-60.98705 l -31.91183,4.96406 c 3.7781,21.55226 5.60812,37.07592 2.12746,56.73214 z"
         transform="translate(-125.62903,-120.83699)"
         fill="#ffb8b8"
         id="path1667" />
      <path
         d="m 839.577,469.83431 60.987,11.34643 c 20.56055,-37.66789 31.90317,-71.68079 12.76473,-93.608 L 877.162,385.44526 c -23.10907,24.71177 -42.654,48.6936 -29.37439,65.95355 z"
         transform="translate(-125.62903,-120.83699)"
         fill="#6c63ff"
         id="path1669"
         style="fill:#ffccaa;fill-opacity:1" />
      <path
         d="m 893.88568,440.25725 c 13.95736,5.33979 26.91064,0.69878 38.80124,-14.52063 l -17.62248,-33.99844 -22.4547,4.4502 z"
         transform="translate(-125.62903,-120.83699)"
         fill="#6c63ff"
         id="path1671"
         style="fill:#ffccaa;fill-opacity:1" />
      <path
         d="m 833.90373,752.0767 24.11114,-1.24018 15.60136,-163.283 79.425,162.39574 24.82031,-0.70915 -47.51316,-142.5395 c -1.87537,-47.55614 -3.83489,-94.98843 -24.11116,-115.59173 l -7.09152,-14.89218 -56.73214,-12.0556 -7.80067,14.89218 c -18.0858,42.23134 -7.46722,162.90172 -0.70916,273.02342 z"
         transform="translate(-125.62903,-120.83699)"
         fill="#2f2e41"
         id="path1673"
         style="fill:#000000" />
      <path
         d="m 820.22348,776.41093 28.14349,2.69869 a 11.40108,11.40108 0 0 0 12.42536,-12.55509 L 858.724,747.11264 c -7.79824,2.03067 -16.12177,1.55551 -24.82031,-0.70916 l -10.63727,9.219 -5.04144,1.57545 a 9.85324,9.85324 0 0 0 -6.87724,8.55115 v 0 a 9.85327,9.85327 0 0 0 8.87574,10.66185 z"
         transform="translate(-125.62903,-120.83699)"
         fill="#2f2e41"
         id="path1675" />
      <path
         d="m 939.361,776.41093 28.14349,2.69869 a 11.40108,11.40108 0 0 0 12.42536,-12.55509 l -2.06829,-19.44189 c -7.79824,2.03067 -16.12177,1.55551 -24.82031,-0.70916 l -10.63727,9.219 -5.04144,1.57545 a 9.85324,9.85324 0 0 0 -6.87724,8.55115 v 0 a 9.85327,9.85327 0 0 0 8.8757,10.66185 z"
         transform="translate(-125.62903,-120.83699)"
         fill="#2f2e41"
         id="path1677" />
      <path
         d="m 858.01489,425.15775 c 9.93436,11.16377 23.5703,13.00431 41.1308,4.96406 v -38.29419 l -21.9837,-6.38236 z"
         transform="translate(-125.62903,-120.83699)"
         fill="#6c63ff"
         id="path1679"
         style="fill:#ffccaa;fill-opacity:1" />
      <path
         d="m 806.24682,531.53051 -14.69621,19.067 a 12.23848,12.23848 0 0 0 5.60769,19.00765 v 0 a 12.23848,12.23848 0 0 0 15.94488,-8.51343 l 5.90834,-23.17888 46.09486,-46.804 26.94777,-61.6962 -29.07515,-4.2549 -19.85625,53.89553 z"
         transform="translate(-125.62903,-120.83699)"
         fill="#ffb8b8"
         id="path1681" />
      <path
         d="m 876.628,311.73539 c 10.66451,-5.36371 23.4139,-6.96 34.7505,-3.22062 11.3366,3.73938 20.93092,13.11452 23.82942,24.69468 2.191,8.75366 0.60852,17.93691 -0.16423,26.92746 -0.77275,8.99055 -0.52636,18.70679 4.6549,26.09474 3.24687,4.6297 8.09874,7.84072 12.87794,10.86323 4.7792,3.02251 9.70619,6.05777 13.23654,10.47511 3.53035,4.41734 5.436,10.595 3.30578,15.83322 -2.71966,6.68753 -10.55509,9.41 -17.5027,11.37216 -9.90375,2.7971 -19.93977,5.61469 -30.22885,5.82079 -10.28908,0.2061 -21.03149,-2.48836 -28.59175,-9.47051 -10.284,-9.49764 -12.75286,-25.03168 -10.80335,-38.89406 1.94951,-13.86238 7.59073,-26.90389 11.146,-40.4437 1.37371,-5.23166 2.17088,-11.54325 -1.63385,-15.38789 -3.8645,-3.905 -10.41922,-3.1396 -15.22978,-5.79332 a 11.664,11.664 0 0 1 3.27933,-21.63686"
         transform="translate(-125.62903,-120.83699)"
         fill="#2f2e41"
         id="path1683"
         style="fill:#000000" />
    </g>
  </g>
</svg>
