<?xml version="1.0" encoding="UTF-8" standalone="no"?>
<svg
   xmlns:dc="http://purl.org/dc/elements/1.1/"
   xmlns:cc="http://creativecommons.org/ns#"
   xmlns:rdf="http://www.w3.org/1999/02/22-rdf-syntax-ns#"
   xmlns:svg="http://www.w3.org/2000/svg"
   xmlns="http://www.w3.org/2000/svg"
   xmlns:sodipodi="http://sodipodi.sourceforge.net/DTD/sodipodi-0.dtd"
   xmlns:inkscape="http://www.inkscape.org/namespaces/inkscape"
   width="303.815"
   height="232.287"
   viewBox="0 0 80.384384 61.459271"
   version="1.1"
   id="svg1431"
   inkscape:version="1.0 (b51213c273, 2020-08-10)"
   sodipodi:docname="logo.svg">
  <defs
     id="defs1425" />
  <sodipodi:namedview
     id="base"
     pagecolor="#ffffff"
     bordercolor="#666666"
     borderopacity="1.0"
     inkscape:pageopacity="0.0"
     inkscape:pageshadow="2"
     inkscape:zoom="0.49497475"
     inkscape:cx="322.48296"
     inkscape:cy="302.92569"
     inkscape:document-units="mm"
     inkscape:current-layer="layer1"
     inkscape:document-rotation="0"
     showgrid="false"
     units="px"
     inkscape:window-width="1465"
     inkscape:window-height="625"
     inkscape:window-x="53"
     inkscape:window-y="102"
     inkscape:window-maximized="0" />
  <metadata
     id="metadata1428">
    <rdf:RDF>
      <cc:Work
         rdf:about="">
        <dc:format>image/svg+xml</dc:format>
        <dc:type
           rdf:resource="http://purl.org/dc/dcmitype/StillImage" />
        <dc:title></dc:title>
      </cc:Work>
    </rdf:RDF>
  </metadata>
  <g
     inkscape:label="Layer 1"
     inkscape:groupmode="layer"
     id="layer1">
    <g
       id="g4216-7-7"
       transform="matrix(0.07828138,2.216951e-4,-2.216951e-4,0.07828138,0.11952409,-0.06623623)"
       style="opacity:1">
      <path
         d="M 672.88,182 C 608.16,179.75 546.52,158.86 487.65,136 428.78,113.14 370.49,87.82 307.32,75.7 266.69,67.91 220.23,66.81 187.49,88.59 c -31.5,21 -41.68,57.15 -47.16,90.73 -4.11,25.26 -6.53,51.85 4.75,75.5 7.83,16.42 21.74,30.22 31.36,45.94 33.46,54.72 9.81,122.24 -26.44,175.63 -17,25.07 -36.74,49 -49.87,75.66 -13.13,26.66 -19.2,57.25 -7.72,84.47 11.39,27 38.52,47.24 67.91,61.49 59.68,29 130,37.23 198.61,41.92 151.82,10.39 304.46,5.89 456.68,1.39 56.34,-1.67 112.92,-3.36 168.35,-12.07 30.77,-4.83 62.55,-12.51 84.89,-31 28.36,-23.53 35.39,-63.37 16.39,-92.88 -31.88,-49.49 -120,-61.78 -142.31,-114.89 -12.27,-29.24 0.33,-61.8 18.15,-88.92 38.24,-58.16 102.33,-109.19 105.71,-175.67 2.32,-45.66 -28.49,-91.39 -76.13,-113 C 940.72,90.25 871.48,93.1 834.66,130.58 796.68,169.13 730,184 672.88,182 Z"
         fill="#ff9955"
         opacity="0.1"
         id="path3793-5-4"
         transform="translate(-86.32,-58.02)" />
      <ellipse
         cx="579.78998"
         cy="726.58002"
         rx="370.98001"
         ry="27.58"
         fill="#ff9955"
         opacity="0.1"
         id="ellipse3795-3-4" />
      <path
         d="m 379.26,695.27 c 0,0 21,-3.36 33.6,11.49 0,0 -9.24,7.28 -29.12,-2.8 z"
         fill="#ff9955"
         id="path3797-5-3"
         style="fill:#ffccaa"
         transform="translate(-86.32,-58.02)" />
      <path
         d="m 377,695 c 0,0 -13.39,16.52 -6.82,34.85 0,0 10.92,-4.38 12.11,-26.64 z"
         fill="#ff9955"
         id="path3799-6-0"
         style="fill:#ffccaa"
         transform="translate(-86.32,-58.02)" />
      <path
         d="m 365,667.83 c 0,0 8.4,-15.4 42,6.16 0,0 -4.48,10.36 -19.32,9.52 C 372.84,682.67 368.9,676 365,667.83 Z"
         fill="#ff9955"
         id="path3801-2-7"
         style="fill:#ffccaa"
         transform="translate(-86.32,-58.02)" />
      <path
         d="m 362.81,666.72 c 0,0 -17.43,-2 -19.12,37.91 0,0 11.05,2.29 18.9,-10.33 7.85,-12.62 4.61,-19.7 0.22,-27.58 z"
         fill="#ff9955"
         id="path3803-9-8"
         style="fill:#ffccaa"
         transform="translate(-86.32,-58.02)" />
      <path
         d="m 352.66,634.9 c 0,0 9.8,-27.16 45.36,-7.84 0,0 -8.12,24.92 -41.72,17.08 z"
         fill="#ff9955"
         id="path3805-1-6"
         style="fill:#ffccaa"
         transform="translate(-86.32,-58.02)" />
      <path
         d="m 341.73,594.3 c 0,0 18.49,-27.45 51.25,-2 0,0 -11.48,25.76 -48.45,11.76 z"
         fill="#ff9955"
         id="path3807-2-8"
         style="fill:#ffccaa"
         transform="translate(-86.32,-58.02)" />
      <path
         d="m 337.81,555.65 c 0,0 21.57,-25.2 54.05,0 0,0 -20.44,22.12 -54.05,6.44 z"
         fill="#ff9955"
         id="path3809-7-8"
         style="fill:#ffccaa"
         transform="translate(-86.32,-58.02)" />
      <path
         d="m 334.45,518.13 c 0,0 21.85,-26.32 52.93,-1.4 0,0 -24.64,23.24 -52.93,7.56 z"
         fill="#ff9955"
         id="path3811-0-4"
         style="fill:#ffccaa"
         transform="translate(-86.32,-58.02)" />
      <path
         d="m 336.41,484.81 c 0,0 23,-33.89 52.09,-10.92 0,0 -24.64,29.12 -52.09,17.36 z"
         fill="#ff9955"
         id="path3813-9-3"
         style="fill:#ffccaa"
         transform="translate(-86.32,-58.02)" />
      <path
         d="m 341.73,445.88 c 0,0 24.37,-33.6 52.65,-7.84 0,0 -28.84,29.13 -52.65,14 z"
         fill="#ff9955"
         id="path3815-3-1"
         style="fill:#ffccaa"
         transform="translate(-86.32,-58.02)" />
      <path
         d="m 349.86,411.09 c 0,0 28.84,-31.57 54,-19 0,0 -30.06,33.53 -55.26,27.37 z"
         fill="#ff9955"
         id="path3817-6-4"
         style="fill:#ffccaa"
         transform="translate(-86.32,-58.02)" />
      <path
         d="m 359.94,378.12 c 0,0 33.32,-38.64 52.64,-25.76 0,0 -24.52,30 -55,33 z"
         fill="#ff9955"
         id="path3819-0-9"
         style="fill:#ffccaa"
         transform="translate(-86.32,-58.02)" />
      <path
         d="m 374.49,339.87 c 0,0 29.13,-31.58 50.41,-23.74 0,0 -24.92,32.76 -54.32,33.6 z"
         fill="#ff9955"
         id="path3821-6-2"
         style="fill:#ffccaa"
         transform="translate(-86.32,-58.02)" />
      <path
         d="m 387.66,304.09 c 0,0 32.2,-30.25 46.2,-24.93 0,0 -23.24,33.61 -47.6,31.65 z"
         fill="#ff9955"
         id="path3823-2-0"
         transform="translate(-86.32,-58.02)" />
      <path
         d="m 400.54,271 c 0,0 27.72,-36.12 42.84,-33.32 0,0 -16.8,32.2 -42.84,37 z"
         fill="#ff9955"
         id="path3825-6-6"
         transform="translate(-86.32,-58.02)" />
      <path
         d="m 414.52,226.5 c 0,0 24.5,-27.7 37.73,-27.63 0,0 -19.34,37 -38.74,36.66 z"
         fill="#ff9955"
         id="path3827-1-8"
         transform="translate(-86.32,-58.02)" />
      <path
         d="m 422.8,196.84 23.66,-57.69 c 0,0 1.19,52.15 -26.67,68.39 z"
         fill="#ff9955"
         id="path3829-8-9"
         transform="translate(-86.32,-58.02)" />
      <path
         d="m 432.41,133.22 c 0,0 3.92,-48.16 1.4,-52.08 0,0 16.92,40 -1.57,73.36 z"
         fill="#ff9955"
         id="path3831-7-2"
         style="fill:#ffccaa"
         transform="translate(-86.32,-58.02)" />
      <path
         d="m 351.74,634.25 c 0,0 -24.54,-15.21 -40.43,22 0,0 21.84,14.49 43.31,-12.51 z"
         fill="#ff9955"
         id="path3833-9-6"
         style="fill:#ffccaa"
         transform="translate(-86.32,-58.02)" />
      <path
         d="m 341,592.75 c 0,0 -30.1,-13.73 -44.71,25.12 0,0 23.26,16 47.45,-15.3 z"
         fill="#ff9955"
         id="path3835-2-6"
         style="fill:#ffccaa"
         transform="translate(-86.32,-58.02)" />
      <path
         d="m 336.41,558 c 0,0 -21.56,-25.2 -54,0 0,0 20.44,22.12 54,6.44 z"
         fill="#ff9955"
         id="path3837-0-4"
         style="fill:#ffccaa"
         transform="translate(-86.32,-58.02)" />
      <path
         d="m 333.72,518.13 c 0,0 -21.84,-26.32 -52.93,-1.4 0,0 24.65,23.24 52.93,7.56 z"
         fill="#ff9955"
         id="path3839-2-9"
         style="fill:#ffccaa"
         transform="translate(-86.32,-58.02)" />
      <path
         d="m 336.41,485.77 c 0,0 -15.32,-38 -48.62,-21.63 0,0 18,33.65 47.27,27.92 z"
         fill="#ff9955"
         id="path3841-3-5"
         style="fill:#ffccaa"
         transform="translate(-86.32,-58.02)" />
      <path
         d="m 343.66,445.69 c 0,0 -15.22,-38.61 -49,-20.7 0,0 20.68,35.39 47.5,26.67 z"
         fill="#ff9955"
         id="path3843-7-0"
         style="fill:#ffccaa"
         transform="translate(-86.32,-58.02)" />
      <path
         d="m 353.1,411.29 c 0,0 -6,-42.33 -34,-46.12 0,0 5.93,44.64 30.22,53.75 z"
         fill="#ff9955"
         id="path3845-5-4"
         style="fill:#ffccaa"
         transform="translate(-86.32,-58.02)" />
      <path
         d="m 360.65,378.19 c 0,0 -2.34,-51 -25.49,-52.77 0,0 0.78,38.71 22.88,60 z"
         fill="#ff9955"
         id="path3847-9-8"
         style="fill:#ffccaa"
         transform="translate(-86.32,-58.02)" />
      <path
         d="m 376.89,338.41 c 0,0 -6.91,-42.41 -29,-47.6 0,0 2.74,41.08 26.82,58 z"
         fill="#ff9955"
         id="path3849-2-7"
         style="fill:#ffccaa"
         transform="translate(-86.32,-58.02)" />
      <path
         d="m 390.28,304.39 c 0,0 -0.24,-44.17 -13.73,-50.67 0,0 -8.38,40 9.82,56.31 z"
         fill="#ff9955"
         id="path3851-2-1"
         style="fill:#ffccaa"
         transform="translate(-86.32,-58.02)" />
      <path
         d="m 401.57,270.55 c 0,0 -1.89,-45.49 -15.87,-51.9 0,0 -4.79,36 13.77,54.88 z"
         fill="#ff9955"
         id="path3853-8-7"
         style="fill:#ffccaa"
         transform="translate(-86.32,-58.02)" />
      <path
         d="m 416.47,230.12 c 0,0 -0.09,-37 -10.06,-45.67 0,0 -9.93,40.53 4.85,53.12 z"
         fill="#ff9955"
         id="path3855-9-2"
         transform="translate(-86.32,-58.02)" />
      <path
         d="m 421.62,195 -9.7,-61.59 c 0,0 -13.19,50.46 10.17,72.69 z"
         fill="#ff9955"
         id="path3857-7-7"
         transform="translate(-86.32,-58.02)" />
      <path
         d="m 423.52,133.81 c 0,0 -24.92,-41.4 -24.41,-46 0,0 2.65,43.39 34,65 z"
         fill="#ff9955"
         id="path3859-3-2"
         style="fill:#ffccaa"
         transform="translate(-86.32,-58.02)" />
      <path
         d="m 426.44,121.58 c 0,0 -23.52,-58.8 -34.16,-63.58 0,0 33.6,17.08 36.12,61.88 z"
         fill="#ff9955"
         id="path3861-6-2"
         style="fill:#ffccaa"
         transform="translate(-86.32,-58.02)" />
      <path
         d="m 413.38,235.88 -1.6,-0.5 c 19.85,-64.72 24.8,-106 13.94,-116.34 l 1.16,-1.22 c 11.51,10.92 6.84,51.74 -13.5,118.06 z"
         fill="#444053"
         id="path3863-1-6"
         transform="translate(-86.32,-58.02)" />
      <path
         d="m 358.73,387.39 -2.38,-0.84 c 2.1,-5.93 4.38,-11.95 6.76,-17.88 C 383.83,317 401.46,269 412.77,232.11 l 2.07,-1 c -11.33,36.89 -28.65,86.79 -49.39,138.5 -2.37,5.9 -4.63,11.88 -6.72,17.78 z"
         fill="#444053"
         id="path3865-2-1"
         transform="translate(-86.32,-58.02)" />
      <path
         d="m 408.81,743.72 c -0.32,-0.36 -32.5,-36.58 -54.92,-98.44 a 364.42,364.42 0 0 1 -21.7,-112.77 c -1.53,-48.13 8.56,-101.88 25.87,-150.69 l 1.88,2.2 C 321.1,493.58 336.53,587.47 357,644 c 22.19,61.29 54,97.12 54.31,97.48 z"
         fill="#444053"
         id="path3867-9-0"
         transform="translate(-86.32,-58.02)" />
      <path
         d="m 268.6,735.82 c 0,0 -38.05,-2.29 -33.56,24.37 0,0 -0.89,4.71 3.38,6.85 0,0 0.06,-2 3.9,-1.31 a 17.51,17.51 0 0 0 4.13,0.2 8.62,8.62 0 0 0 5.06,-2.08 v 0 c 0,0 10.69,-4.42 14.85,-21.9 0,0 3.08,-3.81 2.95,-4.79 l -6.42,2.74 c 0,0 2.2,4.63 0.47,8.48 0,0 -0.21,-8.31 -1.44,-8.12 -0.25,0 -3.34,1.61 -3.34,1.61 0,0 3.78,8.07 0.93,13.93 0,0 1.08,-9.94 -2.1,-13.35 l -4.52,2.64 c 0,0 4.41,8.33 1.42,15.13 0,0 0.76,-10.43 -2.37,-14.49 l -4.1,3.2 c 0,0 4.14,8.21 1.62,13.85 0,0 -0.33,-12.14 -2.51,-13.06 0,0 -3.58,3.16 -4.13,4.46 0,0 2.84,6 1.08,9.11 0,0 -1.08,-8.09 -2,-8.13 0,0 -3.57,5.36 -3.94,9 a 19.46,19.46 0 0 1 3.07,-9.54 10.71,10.71 0 0 0 -5.46,2.83 c 0,0 0.55,-3.79 6.34,-4.12 0,0 3,-4.07 3.74,-4.32 0,0 -5.76,-0.48 -9.25,1.07 0,0 3.07,-3.57 10.31,-2 l 4,-3.3 c 0,0 -7.58,-1 -10.8,0.11 0,0 3.7,-3.16 11.89,-0.86 l 4.4,-2.63 c 0,0 -6.46,-1.39 -10.32,-0.89 0,0 4.07,-2.19 11.61,0.18 l 3.15,-1.41 c 0,0 -4.74,-0.93 -6.12,-1.08 -1.38,-0.15 -1.47,-0.53 -1.47,-0.53 a 16.39,16.39 0 0 1 8.9,1 c 0,0 6.76,-2.43 6.65,-2.85 z"
         fill="#ff9955"
         id="path3869-3-6"
         style="fill:#ffccaa"
         transform="translate(-86.32,-58.02)" />
      <path
         d="m 158,748.19 c 0,0 -38,-2.29 -33.55,24.37 0,0 -0.9,4.71 3.37,6.85 0,0 0.07,-2 3.91,-1.31 a 17,17 0 0 0 4.13,0.2 8.56,8.56 0 0 0 5.05,-2.08 v 0 c 0,0 10.7,-4.42 14.86,-21.9 0,0 3.07,-3.81 3,-4.79 l -6.42,2.74 c 0,0 2.2,4.63 0.47,8.48 0,0 -0.21,-8.31 -1.44,-8.12 -0.25,0 -3.34,1.61 -3.34,1.61 0,0 3.78,8.07 0.93,13.93 0,0 1.08,-9.94 -2.11,-13.35 l -4.52,2.64 c 0,0 4.41,8.33 1.42,15.13 0,0 0.77,-10.43 -2.37,-14.49 l -4.09,3.2 c 0,0 4.14,8.21 1.62,13.85 0,0 -0.33,-12.14 -2.51,-13.06 0,0 -3.58,3.16 -4.13,4.46 0,0 2.84,6 1.08,9.11 0,0 -1.08,-8.09 -2,-8.13 0,0 -3.56,5.36 -3.94,9 a 19.52,19.52 0 0 1 3.08,-9.54 10.76,10.76 0 0 0 -5.47,2.83 c 0,0 0.56,-3.79 6.35,-4.12 0,0 3,-4.07 3.74,-4.31 0,0 -5.76,-0.49 -9.25,1.06 0,0 3.07,-3.57 10.31,-2 l 4,-3.3 c 0,0 -7.58,-1 -10.8,0.11 0,0 3.7,-3.16 11.89,-0.86 l 4.4,-2.63 c 0,0 -6.47,-1.39 -10.32,-0.89 0,0 4.07,-2.19 11.61,0.18 l 3.15,-1.41 c 0,0 -4.74,-0.93 -6.13,-1.08 -1.39,-0.15 -1.46,-0.53 -1.46,-0.53 a 16.51,16.51 0 0 1 8.9,1 c 0,0 6.66,-2.43 6.58,-2.85 z"
         fill="#ff9955"
         id="path3871-1-1"
         style="fill:#ffccaa"
         transform="translate(-86.32,-58.02)" />
      <path
         d="m 219.64,777.23 c 0,0 -38,-2.29 -33.56,24.37 0,0 -0.89,4.71 3.38,6.85 0,0 0.07,-2 3.9,-1.31 a 17.57,17.57 0 0 0 4.14,0.2 8.62,8.62 0 0 0 5.05,-2.08 v 0 c 0,0 10.69,-4.42 14.85,-21.9 0,0 3.08,-3.81 3,-4.79 l -6.42,2.74 c 0,0 2.19,4.63 0.47,8.48 0,0 -0.21,-8.31 -1.45,-8.12 -0.25,0 -3.33,1.61 -3.33,1.61 0,0 3.77,8.06 0.92,13.93 0,0 1.08,-9.94 -2.1,-13.35 l -4.52,2.64 c 0,0 4.41,8.33 1.42,15.13 0,0 0.77,-10.43 -2.37,-14.49 l -4.1,3.2 c 0,0 4.15,8.21 1.62,13.85 0,0 -0.33,-12.14 -2.5,-13.06 0,0 -3.59,3.16 -4.13,4.46 0,0 2.84,6 1.07,9.11 0,0 -1.08,-8.09 -2,-8.13 0,0 -3.57,5.36 -3.94,9 a 19.46,19.46 0 0 1 3.07,-9.54 10.71,10.71 0 0 0 -5.46,2.83 c 0,0 0.55,-3.79 6.35,-4.12 0,0 2.94,-4.07 3.73,-4.32 0,0 -5.76,-0.48 -9.25,1.07 0,0 3.08,-3.57 10.31,-1.95 l 4,-3.3 c 0,0 -7.58,-1 -10.8,0.11 0,0 3.71,-3.16 11.89,-0.86 l 4.41,-2.63 c 0,0 -6.43,-1.36 -10.29,-0.86 0,0 4.06,-2.19 11.61,0.18 l 3.14,-1.41 c 0,0 -4.73,-0.93 -6.12,-1.08 -1.39,-0.15 -1.46,-0.53 -1.46,-0.53 a 16.39,16.39 0 0 1 8.9,1 c 0,0 6.68,-2.51 6.57,-2.93 z"
         fill="#ff9955"
         id="path3873-9-5"
         style="fill:#ffccaa"
         transform="translate(-86.32,-58.02)" />
      <ellipse
         cx="103.66"
         cy="753.22998"
         rx="26.93"
         ry="4.5500002"
         fill="#ff9955"
         opacity="0.1"
         id="ellipse3875-4-9" />
      <ellipse
         cx="957.84003"
         cy="753.22998"
         rx="26.93"
         ry="4.5500002"
         fill="#ff9955"
         opacity="0.1"
         id="ellipse3877-7-4" />
      <ellipse
         cx="699.95001"
         cy="779.41998"
         rx="26.93"
         ry="4.5500002"
         fill="#ff9955"
         opacity="0.1"
         id="ellipse3879-8-9" />
      <ellipse
         cx="1000.43"
         cy="713.78998"
         rx="26.93"
         ry="4.5500002"
         fill="#ff9955"
         opacity="0.1"
         id="ellipse3881-4-0" />
      <ellipse
         cx="156.07001"
         cy="710.95001"
         rx="26.93"
         ry="4.5500002"
         fill="#ff9955"
         opacity="0.1"
         id="ellipse3883-5-9" />
      <ellipse
         cx="45.439999"
         cy="723.71997"
         rx="26.93"
         ry="4.5500002"
         fill="#ff9955"
         opacity="0.1"
         id="ellipse3885-0-1" />
      <rect
         x="302.73999"
         y="79.739998"
         width="431.35001"
         height="641.38"
         rx="9.8000002"
         ry="9.8000002"
         fill="#3a3768"
         id="rect3887-3-7"
         style="fill:#000000" />
      <rect
         x="342.22"
         y="134.87"
         width="357.73001"
         height="126.09"
         rx="29.209999"
         ry="29.209999"
         opacity="0.1"
         id="rect3889-6-7" />
      <rect
         x="344.51999"
         y="137.33"
         width="352.31"
         height="121.95"
         rx="10.2"
         ry="10.2"
         fill="#e6e8ec"
         id="rect3891-1-1" />
      <rect
         x="354.67999"
         y="313.48001"
         width="71.139999"
         height="79.040001"
         rx="10.79"
         ry="10.79"
         opacity="0.1"
         id="rect3893-0-1"
         style="opacity:0.9;fill:#ffccaa" />
      <rect
         x="441.63"
         y="313.48001"
         width="71.139999"
         height="79.040001"
         rx="10.79"
         ry="10.79"
         opacity="0.1"
         id="rect3895-6-5"
         style="opacity:0.9;fill:#ffccaa" />
      <rect
         x="528.58002"
         y="313.48001"
         width="71.139999"
         height="79.040001"
         rx="10.79"
         ry="10.79"
         opacity="0.1"
         id="rect3897-3-9"
         style="opacity:0.9;fill:#ffccaa" />
      <rect
         x="615.53003"
         y="315.16"
         width="71.139999"
         height="79.040001"
         rx="28.84"
         ry="28.84"
         opacity="0.1"
         id="rect3899-2-7" />
      <rect
         x="615.53003"
         y="313.48001"
         width="71.139999"
         height="79.040001"
         rx="10.79"
         ry="10.79"
         fill="#ff9955"
         id="rect3901-0-7"
         style="fill:#ffccaa" />
      <rect
         x="354.67999"
         y="400.42999"
         width="71.139999"
         height="79.040001"
         rx="10.79"
         ry="10.79"
         opacity="0.1"
         id="rect3903-6-6"
         style="opacity:0.9;fill:#ffccaa" />
      <rect
         x="441.63"
         y="400.42999"
         width="71.139999"
         height="79.040001"
         rx="10.79"
         ry="10.79"
         opacity="0.1"
         id="rect3905-1-7"
         style="opacity:0.9;fill:#ffccaa" />
      <rect
         x="528.58002"
         y="400.42999"
         width="71.139999"
         height="79.040001"
         rx="10.79"
         ry="10.79"
         opacity="0.1"
         id="rect3907-5-3"
         style="opacity:0.9;fill:#ffccaa" />
      <rect
         x="354.67999"
         y="496.41"
         width="71.139999"
         height="79.040001"
         rx="10.79"
         ry="10.79"
         opacity="0.1"
         id="rect3909-5-6"
         style="opacity:0.9;fill:#ffccaa" />
      <rect
         x="441.63"
         y="496.41"
         width="71.139999"
         height="79.040001"
         rx="10.79"
         ry="10.79"
         opacity="0.1"
         id="rect3911-4-5"
         style="opacity:0.9;fill:#ffccaa" />
      <rect
         x="528.58002"
         y="496.41"
         width="71.139999"
         height="79.040001"
         rx="10.79"
         ry="10.79"
         opacity="0.1"
         id="rect3913-7-6"
         style="opacity:0.9;fill:#ffccaa" />
      <rect
         x="528.58002"
         y="592.39001"
         width="71.139999"
         height="79.040001"
         rx="10.79"
         ry="10.79"
         opacity="0.1"
         id="rect3915-6-3"
         style="opacity:0.9;fill:#ffccaa" />
      <rect
         x="615.53003"
         y="402.10999"
         width="71.139999"
         height="79.040001"
         rx="28.84"
         ry="28.84"
         opacity="0.1"
         id="rect3917-5-9" />
      <rect
         x="615.53003"
         y="400.42999"
         width="71.139999"
         height="79.040001"
         rx="11.3"
         ry="11.3"
         fill="#ff9955"
         id="rect3919-6-4" />
      <rect
         x="615.53003"
         y="400.42999"
         width="71.139999"
         height="79.040001"
         rx="11.3"
         ry="11.3"
         opacity="0.2"
         id="rect3921-9-8"
         style="opacity:1;fill:#ffccaa;fill-opacity:1" />
      <rect
         x="354.67999"
         y="592.39001"
         width="158.09"
         height="79.040001"
         rx="10.04"
         ry="10.04"
         opacity="0.1"
         id="rect3923-3-1"
         style="opacity:0.9;fill:#ffccaa" />
      <rect
         x="608.75"
         y="496.41"
         width="77.910004"
         height="175.03"
         rx="11.66"
         ry="11.66"
         opacity="0.1"
         id="rect3925-7-2"
         style="opacity:0.9;fill:#ffccaa" />
      <rect
         x="649.87"
         y="237.98"
         width="31.139999"
         height="3.3699999"
         fill="#ff9955"
         id="rect3927-4-9"
         style="fill:#ffccaa" />
      <rect
         x="604.28003"
         y="237.98"
         width="31.139999"
         height="3.3699999"
         fill="#ff9955"
         id="rect3929-5-3"
         style="fill:#ffccaa" />
      <rect
         x="558.67999"
         y="237.98"
         width="31.139999"
         height="3.3699999"
         fill="#ff9955"
         id="rect3931-2-9"
         style="fill:#ffccaa" />
      <rect
         x="513.09003"
         y="237.98"
         width="31.139999"
         height="3.3699999"
         fill="#ff9955"
         id="rect3933-5-0"
         style="fill:#ffccaa" />
      <g
         opacity="0.1"
         id="g4067-4-8" />
    </g>
  </g>
</svg>
