<?xml version="1.0" encoding="UTF-8" standalone="no"?>
<svg
   xmlns:dc="http://purl.org/dc/elements/1.1/"
   xmlns:cc="http://creativecommons.org/ns#"
   xmlns:rdf="http://www.w3.org/1999/02/22-rdf-syntax-ns#"
   xmlns:svg="http://www.w3.org/2000/svg"
   xmlns="http://www.w3.org/2000/svg"
   xmlns:sodipodi="http://sodipodi.sourceforge.net/DTD/sodipodi-0.dtd"
   xmlns:inkscape="http://www.inkscape.org/namespaces/inkscape"
   width="444.02802"
   height="308.97601"
   viewBox="0 0 117.48241 81.749906"
   version="1.1"
   id="svg4095"
   inkscape:version="1.0 (b51213c273, 2020-08-10)"
   sodipodi:docname="results_check.svg">
  <defs
     id="defs4089" />
  <sodipodi:namedview
     id="base"
     pagecolor="#ffffff"
     bordercolor="#666666"
     borderopacity="1.0"
     inkscape:pageopacity="0.0"
     inkscape:pageshadow="2"
     inkscape:zoom="0.35"
     inkscape:cx="400"
     inkscape:cy="560"
     inkscape:document-units="px"
     inkscape:current-layer="layer1"
     inkscape:document-rotation="0"
     showgrid="false"
     units="px"
     inkscape:window-width="1465"
     inkscape:window-height="625"
     inkscape:window-x="52"
     inkscape:window-y="477"
     inkscape:window-maximized="0" />
  <metadata
     id="metadata4092">
    <rdf:RDF>
      <cc:Work
         rdf:about="">
        <dc:format>image/svg+xml</dc:format>
        <dc:type
           rdf:resource="http://purl.org/dc/dcmitype/StillImage" />
        <dc:title></dc:title>
      </cc:Work>
    </rdf:RDF>
  </metadata>
  <g
     inkscape:label="Layer 1"
     inkscape:groupmode="layer"
     id="layer1">
    <g
       id="g1541"
       transform="matrix(0.13230007,0,0,0.13230007,0.64133108,-0.22241966)">
      <path
         d="m 275.323,585.88462 -11.41944,-18.452 a 273.13431,273.13431 0 0 1 12.6615,-28.06228 l 7.49735,6.309 -5.84681,-9.44746 c 5.97881,-11.20478 10.64756,-18.24624 10.64756,-18.24624 0,0 22.88762,37.7244 29.99091,77.32119 l -15.59472,23.06949 17.01541,-13.18641 a 110.50312,110.50312 0 0 1 0.63974,13.87219 c -0.94012,46.70757 -16.95677,84.2645 -35.77423,83.88574 -18.81746,-0.37876 -33.30986,-38.54976 -32.36974,-85.25733 0.29145,-14.4798 3.87216,-29.56293 8.673,-43.48536 z"
         transform="translate(-156,-143.04369)"
         fill="#e6e6e6"
         id="path1426" />
      <path
         d="m 223.65017,606.48327 -19.31345,-9.893 a 273.13311,273.13311 0 0 1 -3.66662,-30.56732 l 9.67919,1.52538 -9.88853,-5.06522 c -0.67364,-12.68225 -0.31672,-21.12335 -0.31672,-21.12335 0,0 39.09262,20.46315 65.641,50.68808 l -1.42513,27.80946 7.74988,-20.08346 a 110.50062,110.50062 0 0 1 7.7182,11.54454 c 23.33842,40.46973 29.04068,80.89917 12.73631,90.30171 -16.30437,9.40254 -48.44116,-15.78241 -71.77958,-56.25214 -7.23514,-12.546 -11.96638,-27.30873 -15.05315,-41.70852 z"
         transform="translate(-156,-143.04369)"
         fill="#e6e6e6"
         id="path1428" />
      <path
         d="m 320.62561,755.851 c -22.25416,1.42351 -46.50238,-0.0828 -72.29843,0 v -59.06065 c 22.73062,3.53858 46.97076,3.17518 72.29843,0 z"
         transform="translate(-156,-143.04369)"
         fill="#e6e6e6"
         id="path1430" />
      <polygon
         points="688.192,0 689.193,342.668 453.019,380.696 452.018,151.095 "
         fill="#e6e6e6"
         id="polygon1432" />
      <polygon
         points="667.176,49.73 667.176,308.643 463.026,352.675 463.026,160.534 "
         fill="#ffffff"
         id="polygon1434" />
      <polygon
         points="647.162,97.517 647.162,132.514 475.035,209.595 475.035,182.55 "
         fill="#3f3d56"
         id="polygon1436"
         style="fill:#000000" />
      <polygon
         points="647.162,170.035 647.162,204.567 475.035,265.277 475.035,238.592 "
         fill="#6c63ff"
         id="polygon1438"
         style="fill:#ffccaa;fill-opacity:1" />
      <path
         d="m 697.53648,314.17556 a 0.645,0.645 0 0 1 1.24118,-0.0409 l 2.7869,8.78335 3.33872,10.52249 a 0.645,0.645 0 0 1 -0.36673,0.7905 l -6.4521,2.68854 -5.67052,2.36286 a 0.645,0.645 0 0 1 -0.87445,-0.74964 l 3.10159,-12.59732 z"
         transform="translate(-156,-143.04369)"
         fill="#e6e6e6"
         id="path1440" />
      <path
         d="m 687.18454,379.667 a 1.06452,1.06452 0 0 1 2.04832,-0.0674 l 2.33611,7.36258 3.22251,10.15622 a 1.06454,1.06454 0 0 1 -0.60522,1.30458 l -6.0974,2.54073 -4.9031,2.04308 a 1.06452,1.06452 0 0 1 -1.44311,-1.23712 l 2.90283,-11.79 z"
         transform="translate(-156,-143.04369)"
         fill="#e6e6e6"
         id="path1442" />
      <polygon
         points="647.162,239.964 647.162,276.62 475.035,320.959 475.035,292.631 "
         fill="#f2f2f2"
         id="polygon1444" />
      <path
         d="m 799.15869,295.02551 c 0,6.027 -2.70015,12.01954 -6.00441,13.37389 -3.27531,1.3425 -5.90948,-2.38638 -5.90948,-8.31806 0,-5.93168 2.63417,-11.89626 5.90948,-13.33362 3.30426,-1.45006 6.00441,2.25082 6.00441,8.27779 z"
         transform="translate(-156,-143.04369)"
         fill="#3f3d56"
         id="path1446"
         style="fill:#000000" />
      <path
         d="m 795.15575,296.72421 c 0,2.009 -0.89741,4.01407 -2.00147,4.47724 -1.10081,0.4618 -1.99081,-0.78477 -1.99081,-2.78306 0,-1.99829 0.89,-4.00023 1.99081,-4.47271 1.10406,-0.47388 2.00147,0.76954 2.00147,2.77853 z"
         transform="translate(-156,-143.04369)"
         fill="#ffffff"
         id="path1448" />
      <path
         d="m 799.15869,365.077 c 0,6.027 -2.70015,12.01954 -6.00441,13.3739 -3.27531,1.34249 -5.90948,-2.38639 -5.90948,-8.31807 0,-5.93168 2.63417,-11.89626 5.90948,-13.33361 3.30426,-1.4501 6.00441,2.25078 6.00441,8.27778 z"
         transform="translate(-156,-143.04369)"
         fill="#6c63ff"
         id="path1450"
         style="fill:#ffccaa;fill-opacity:1" />
      <path
         d="m 795.15575,366.77567 c 0,2.009 -0.89741,4.01407 -2.00147,4.47723 -1.10081,0.46181 -1.99081,-0.78476 -1.99081,-2.78305 0,-1.99829 0.89,-4.00023 1.99081,-4.47272 1.10406,-0.47388 2.00147,0.76955 2.00147,2.77854 z"
         transform="translate(-156,-143.04369)"
         fill="#ffffff"
         id="path1452" />
      <path
         d="m 799.15869,435.12842 c 0,6.027 -2.70015,12.01954 -6.00441,13.3739 -3.27531,1.34249 -5.90948,-2.38639 -5.90948,-8.31807 0,-5.93168 2.63417,-11.89626 5.90948,-13.33362 3.30426,-1.45006 6.00441,2.25082 6.00441,8.27779 z"
         transform="translate(-156,-143.04369)"
         fill="#f2f2f2"
         id="path1454" />
      <path
         d="m 795.15575,436.82712 c 0,2.009 -0.89741,4.01408 -2.00147,4.47724 -1.10081,0.4618 -1.99081,-0.78477 -1.99081,-2.78306 0,-1.99829 0.89,-4.00023 1.99081,-4.47271 1.10406,-0.47388 2.00147,0.76954 2.00147,2.77853 z"
         transform="translate(-156,-143.04369)"
         fill="#ffffff"
         id="path1456" />
      <path
         d="m 703.18454,437.71258 a 1.06452,1.06452 0 0 1 2.04832,-0.0675 l 2.33611,7.36259 3.22251,10.15622 a 1.06452,1.06452 0 0 1 -0.60522,1.30457 l -6.0974,2.54074 -4.9031,2.04308 a 1.06453,1.06453 0 0 1 -1.44311,-1.23713 l 2.90283,-11.79 z"
         transform="translate(-156,-143.04369)"
         fill="#e6e6e6"
         id="path1458" />
      <path
         d="m 662.558,425.39934 9.31146,-8.58908 c 0,0 21.077,-14.51772 13.71488,-22.499 -7.36212,-7.98128 -22.20075,10.6303 -22.20075,10.6303 l -9.20827,6.03186 z"
         transform="translate(-156,-143.04369)"
         fill="#a0616a"
         id="path1460" />
      <path
         d="m 539.45024,429.39608 -5.424,7.46526 c 0,0 -7.57983,29.15 30.77846,30.698 0,0 48.98859,23.74873 61.11527,8.86981 12.12668,-14.87892 45.5883,-50.66863 45.5883,-50.66863 l -19.6838,-20.00472 -40.11266,41.92475 -38.91452,-19.50011 c 0,0 -20.04496,-11.05444 -33.34705,1.21564 z"
         transform="translate(-156,-143.04369)"
         fill="#2f2e41"
         id="path1462"
         style="fill:#000000" />
      <polygon
         points="366.88,424.679 357.923,424.679 307.135,611.796 313.533,613.076 "
         fill="#e6e6e6"
         id="polygon1464"
         style="fill:#666666" />
      <polygon
         points="410.536,424.679 419.494,424.679 470.281,611.796 463.883,613.076 "
         fill="#e6e6e6"
         id="polygon1466"
         style="fill:#666666" />
      <polygon
         points="391.194,418.28 384.795,420.84 393.312,612.109 400.708,612.438 "
         fill="#e6e6e6"
         id="polygon1468"
         style="fill:#666666" />
      <path
         d="m 564.469,560.85732 c 0,4.85147 -13.28064,10.05931 -30.71161,11.73268 -18.70837,1.796 -34.91149,-1.11922 -34.91149,-6.63414 0,-5.51492 16.20312,-10.94793 34.91149,-12.059 17.43095,-1.03519 30.71161,2.10899 30.71161,6.96046 z"
         transform="translate(-156,-143.04369)"
         fill="#e6e6e6"
         id="path1470"
         style="fill:#666666" />
      <path
         d="m 583.02391,528.05305 12.7965,8.95755 c 0,0 55.025,39.66917 49.90637,55.025 -5.11863,15.35583 -33.27091,76.779 -33.27091,76.779 l -35.83021,-11.51686 40.94881,-65.26217 -21.75406,-20.47441 -11.51685,-28.15231 z"
         transform="translate(-156,-143.04369)"
         fill="#2f2e41"
         id="path1472"
         style="fill:#000000" />
      <path
         d="m 533.11754,505.01934 c 0,0 -25.593,39.66917 -10.2372,51.186 15.3558,11.51683 58.86392,56.30466 58.86392,56.30466 l 8.95755,20.47441 31.99126,103.65168 39.66917,-20.47441 -35.83022,-80.618 c 0,0 -3.83895,-29.432 -16.63545,-46.06742 -12.7965,-16.63542 -17.91511,-40.94881 -17.91511,-40.94881 l 3.839,-11.51686 -22.91252,-36.66148 z"
         transform="translate(-156,-143.04369)"
         fill="#2f2e41"
         id="path1474"
         style="fill:#000000" />
      <path
         d="m 602.7082,661.48181 -23,-7 c 0,0 -24.8366,-1.023 -23.557,7.93454 1.2796,8.95754 21.75406,67.82147 28.15231,63.98252 6.39825,-3.83895 1.27965,-21.75406 1.27965,-21.75406 z"
         transform="translate(-156,-143.04369)"
         fill="#2f2e41"
         id="path1476" />
      <polygon
         points="412.308,258.964 395.672,237.21 382.876,251.286 403.35,284.557 "
         fill="#a0616a"
         id="polygon1478" />
      <path
         d="m 563.82915,429.52 -22.72826,-37.63781 -7.98335,1.80759 v 12.79651 l -2.5593,107.49063 42.22847,-6.39825 c 0,0 2.55929,-69.10115 -8.95756,-78.05867 z"
         transform="translate(-156,-143.04369)"
         fill="#6c63ff"
         id="path1480"
         style="fill:#ffccaa;fill-opacity:1" />
      <path
         d="m 552.3123,428.24032 -19.19476,-34.55057 -16.63545,7.67791 -29.432,120.28714 -17.91509,34.55056 c 0,0 58.86392,29.432 72.94007,0 14.07615,-29.432 15.35581,-94.69413 15.35581,-94.69413 z"
         transform="translate(-156,-143.04369)"
         fill="#2f2e41"
         id="path1482"
         style="fill:#000000" />
      <path
         d="m 524.16,406.48626 -7.6779,-5.1186 c 0,0 -29.432,-6.39826 -29.432,31.99126 0,0 -21.75406,49.90636 -6.39826,61.42322 15.3558,11.51686 52.46567,43.50811 52.46567,43.50811 l 19.19476,-20.4744 -43.50812,-38.38952 17.91511,-39.66916 c 0,0 10.23723,-20.47441 -2.55926,-33.27091 z"
         transform="translate(-156,-143.04369)"
         fill="#2f2e41"
         id="path1484"
         style="fill:#000000" />
      <path
         d="m 533.11754,529.3327 8.95755,8.95755 c 0,0 15.35581,20.47441 23.03371,12.79651 7.6779,-7.6779 -11.5168,-21.75406 -11.5168,-21.75406 l -6.39825,-8.95755 z"
         transform="translate(-156,-143.04369)"
         fill="#a0616a"
         id="path1486" />
      <path
         d="m 562.34557,417.90711 21.958,53.84132 c 0,0 8.95755,26.87266 8.95755,37.10986 v 28.15231 l -24.31336,-31.99126 c 0,0 -13.20438,-83.36927 -6.60219,-87.11223 z"
         transform="translate(-156,-143.04369)"
         fill="#2f2e41"
         id="path1488"
         style="fill:#000000" />
      <path
         d="m 632.25769,726.43065 c 0,0 -6.3392,24.96005 1.98081,27.07312 8.32001,2.11307 78.129,3.9007 78.17309,-7.897 0.0441,-11.7977 -45.30659,-21.54428 -45.30659,-21.54428 L 650.35052,713.3124 Z"
         transform="translate(-156,-143.04369)"
         fill="#2f2e41"
         id="path1490" />
      <circle
         cx="411.66809"
         cy="237.84956"
         r="23.03371"
         fill="#a0616a"
         id="circle1492" />
      <path
         d="m 592.22968,376.75744 c 0,0 4.49919,-19.49652 0,-23.99572 v 2.99947 c 0,0 -2.99947,-10.49813 -8.9984,-7.49866 0,0 -7.49866,-5.99892 -8.99841,-2.99947 -8.82431,-7.978 -47.95252,-0.49854 -28.95865,41.38862 0,0 3.46322,-12.89371 3.46322,-8.39451 0,0 8.9984,-8.99839 10.49813,-11.99786 1.49973,-2.99947 26.99518,16.49706 32.99411,10.49813 z"
         transform="translate(-156,-143.04369)"
         fill="#2f2e41"
         id="path1494"
         style="fill:#000000" />
      <rect
         y="611.67194"
         width="888"
         height="2.24072"
         fill="#3f3d56"
         id="rect1496"
         x="0" />
    </g>
  </g>
</svg>
