<svg width="1440" height="1024" viewBox="0 0 1440 1024" fill="none" xmlns="http://www.w3.org/2000/svg">
<g clip-path="url(#clip0)">
<rect width="1440" height="1024" fill="white"/>
<g filter="url(#filter0_d)">
<path d="M-84 -2H628C746.096 420.425 740.953 642.686 648 1022H-84V-2Z" fill="#999999"/>
</g>
<circle opacity="0.9" cx="394" cy="272" r="34" fill="#FFA41B"/>
<g filter="url(#filter1_d)">
<path d="M508.748 234.025C460.749 220.525 467.748 261.025 477.748 261.025C481.857 261.025 490.373 262.025 500.749 262.025H532.249C572.248 262.025 583.749 259.358 584.249 258.525C587.749 232.025 566.582 234.525 555.249 237.525C557.082 227.692 555.149 207.825 532.748 207.025C510.348 206.225 507.415 224.692 508.748 234.025Z" fill="white"/>
</g>
<g filter="url(#filter2_d)">
<path d="M122.248 234.025C74.249 220.525 81.2484 261.025 91.2483 261.025C95.3566 261.025 103.873 262.025 114.249 262.025H145.749C185.748 262.025 197.249 259.358 197.749 258.525C201.249 232.025 180.082 234.525 168.749 237.525C170.582 227.692 168.649 207.825 146.248 207.025C123.848 206.225 120.915 224.692 122.248 234.025Z" fill="white"/>
</g>
<g filter="url(#filter3_d)">
<path d="M171.256 158.787C150.228 152.899 153.295 170.564 157.675 170.564C159.475 170.564 163.206 171 167.751 171H181.551C199.074 171 204.112 169.837 204.331 169.473C205.864 157.915 196.592 159.005 191.627 160.314C192.43 156.025 191.583 147.36 181.77 147.011C171.956 146.662 170.672 154.717 171.256 158.787Z" fill="white"/>
</g>
<g filter="url(#filter4_d)">
<path fill-rule="evenodd" clip-rule="evenodd" d="M410.122 284.536C407.947 284.536 405.849 284.861 403.87 285.46C400.26 270.287 386.593 259 370.281 259C354.07 259 340.472 270.148 336.761 285.179C335.085 284.761 333.332 284.536 331.527 284.536C319.638 284.536 310 294.152 310 306.014C310 317.876 319.638 327.491 331.527 327.491H365.016C366.733 327.753 368.491 327.889 370.281 327.889C372.071 327.889 373.829 327.753 375.546 327.491H410.122C422.01 327.491 431.648 317.876 431.648 306.014C431.648 294.152 422.01 284.536 410.122 284.536Z" fill="#EDEDED"/>
</g>
<path opacity="0.1" d="M404.252 480.47C365.384 479.119 328.365 466.573 293.01 452.844C257.655 439.115 222.648 423.909 184.71 416.63C160.31 411.952 132.407 411.291 112.745 424.371C93.8272 436.983 87.7135 458.693 84.4224 478.86C81.9541 494.031 80.5007 510 87.2751 524.203C91.9775 534.064 100.331 542.352 106.109 551.793C126.204 584.656 112 625.206 90.2298 657.27C80.0203 672.326 68.1651 686.697 60.2797 702.708C52.3944 718.719 48.7489 737.09 55.6434 753.438C62.4838 769.653 78.7771 781.808 96.4276 790.366C132.269 807.783 174.501 812.725 215.705 815.542C306.883 821.782 398.553 819.079 489.971 816.377C523.806 815.374 557.786 814.359 591.075 809.128C609.555 806.227 628.641 801.615 642.057 790.51C659.089 776.379 663.311 752.453 651.9 734.73C632.754 705.008 579.833 697.627 566.434 665.732C559.065 648.171 566.632 628.617 577.334 612.329C600.3 577.401 638.79 546.754 640.82 506.829C642.213 479.407 623.71 451.943 595.099 438.965C565.107 425.368 523.524 427.08 501.411 449.589C478.602 472.741 438.556 481.671 404.252 480.47Z" fill="#232323"/>
<path opacity="0.1" d="M400.186 858.933C523.234 858.933 622.983 851.517 622.983 842.369C622.983 833.221 523.234 825.806 400.186 825.806C277.139 825.806 177.39 833.221 177.39 842.369C177.39 851.517 277.139 858.933 400.186 858.933Z" fill="#000733"/>
<path opacity="0.1" d="M114.24 861.107C123.173 861.107 130.413 859.883 130.413 858.374C130.413 856.865 123.173 855.642 114.24 855.642C105.308 855.642 98.0672 856.865 98.0672 858.374C98.0672 859.883 105.308 861.107 114.24 861.107Z" fill="#000839"/>
<path opacity="0.1" d="M627.229 861.107C636.162 861.107 643.402 859.883 643.402 858.374C643.402 856.865 636.162 855.642 627.229 855.642C618.297 855.642 611.056 856.865 611.056 858.374C611.056 859.883 618.297 861.107 627.229 861.107Z" fill="#000839"/>
<path opacity="0.1" d="M472.35 876.835C481.282 876.835 488.523 875.612 488.523 874.103C488.523 872.594 481.282 871.37 472.35 871.37C463.418 871.37 456.177 872.594 456.177 874.103C456.177 875.612 463.418 876.835 472.35 876.835Z" fill="#000839"/>
<path opacity="0.1" d="M652.807 837.42C661.739 837.42 668.98 836.197 668.98 834.688C668.98 833.179 661.739 831.955 652.807 831.955C643.875 831.955 636.634 833.179 636.634 834.688C636.634 836.197 643.875 837.42 652.807 837.42Z" fill="#000839"/>
<path opacity="0.1" d="M145.716 835.715C154.648 835.715 161.889 834.491 161.889 832.982C161.889 831.473 154.648 830.25 145.716 830.25C136.784 830.25 129.543 831.473 129.543 832.982C129.543 834.491 136.784 835.715 145.716 835.715Z" fill="#000839"/>
<path opacity="0.1" d="M79.2755 843.384C88.2077 843.384 95.4487 842.161 95.4487 840.651C95.4487 839.142 88.2077 837.919 79.2755 837.919C70.3434 837.919 63.1024 839.142 63.1024 840.651C63.1024 842.161 70.3434 843.384 79.2755 843.384Z" fill="#000839"/>
<g filter="url(#filter5_d)">
<path d="M486.968 453.901H239.686C236.435 453.901 233.8 456.536 233.8 459.786V833.204C233.8 836.455 236.435 839.09 239.686 839.09H486.968C490.218 839.09 492.853 836.455 492.853 833.204V459.786C492.853 456.536 490.218 453.901 486.968 453.901Z" fill="#DDDDDD"/>
</g>
<path opacity="0.1" d="M454.808 487.01H275.053C265.365 487.01 257.511 494.864 257.511 504.552V545.193C257.511 554.881 265.365 562.735 275.053 562.735H454.808C464.496 562.735 472.35 554.881 472.35 545.193V504.552C472.35 494.864 464.496 487.01 454.808 487.01Z" fill="black"/>
<g filter="url(#filter6_d)">
<path d="M464.351 488.487H265.018C261.635 488.487 258.892 491.23 258.892 494.613V555.6C258.892 558.983 261.635 561.726 265.018 561.726H464.351C467.734 561.726 470.476 558.983 470.476 555.6V494.613C470.476 491.23 467.734 488.487 464.351 488.487Z" fill="#E6E8EC"/>
</g>
<g opacity="0.9" filter="url(#filter7_d)">
<path d="M301.238 594.277H271.474C267.895 594.277 264.994 597.178 264.994 600.757V635.265C264.994 638.844 267.895 641.745 271.474 641.745H301.238C304.817 641.745 307.718 638.844 307.718 635.265V600.757C307.718 597.178 304.817 594.277 301.238 594.277Z" fill="#ECECEC"/>
</g>
<g opacity="0.9" filter="url(#filter8_d)">
<path d="M353.457 594.277H323.693C320.114 594.277 317.213 597.178 317.213 600.757V635.265C317.213 638.844 320.114 641.745 323.693 641.745H353.457C357.035 641.745 359.937 638.844 359.937 635.265V600.757C359.937 597.178 357.035 594.277 353.457 594.277Z" fill="#ECECEC"/>
</g>
<g opacity="0.9" filter="url(#filter9_d)">
<path d="M405.676 594.277H375.912C372.333 594.277 369.432 597.178 369.432 600.757V635.265C369.432 638.844 372.333 641.745 375.912 641.745H405.676C409.254 641.745 412.156 638.844 412.156 635.265V600.757C412.156 597.178 409.254 594.277 405.676 594.277Z" fill="#ECECEC"/>
</g>
<path opacity="0.1" d="M447.054 595.285H438.971C429.405 595.285 421.651 603.04 421.651 612.606V625.434C421.651 634.999 429.405 642.754 438.971 642.754H447.054C456.62 642.754 464.375 634.999 464.375 625.434V612.606C464.375 603.04 456.62 595.285 447.054 595.285Z" fill="black"/>
<g filter="url(#filter10_d)">
<path d="M457.895 594.277H428.131C424.552 594.277 421.651 597.178 421.651 600.757V635.265C421.651 638.844 424.552 641.745 428.131 641.745H457.895C461.473 641.745 464.375 638.844 464.375 635.265V600.757C464.375 597.178 461.473 594.277 457.895 594.277Z" fill="#ECECEC"/>
</g>
<g opacity="0.9" filter="url(#filter11_d)">
<path d="M301.238 646.496H271.474C267.895 646.496 264.994 649.397 264.994 652.976V687.484C264.994 691.063 267.895 693.964 271.474 693.964H301.238C304.817 693.964 307.718 691.063 307.718 687.484V652.976C307.718 649.397 304.817 646.496 301.238 646.496Z" fill="#ECECEC"/>
</g>
<g opacity="0.9" filter="url(#filter12_d)">
<path d="M353.457 646.496H323.693C320.114 646.496 317.213 649.397 317.213 652.976V687.484C317.213 691.063 320.114 693.964 323.693 693.964H353.457C357.035 693.964 359.937 691.063 359.937 687.484V652.976C359.937 649.397 357.035 646.496 353.457 646.496Z" fill="#ECECEC"/>
</g>
<g opacity="0.9" filter="url(#filter13_d)">
<path d="M405.676 646.496H375.912C372.333 646.496 369.432 649.397 369.432 652.976V687.484C369.432 691.063 372.333 693.964 375.912 693.964H405.676C409.254 693.964 412.156 691.063 412.156 687.484V652.976C412.156 649.397 409.254 646.496 405.676 646.496Z" fill="#ECECEC"/>
</g>
<g opacity="0.9" filter="url(#filter14_d)">
<path d="M301.238 704.138H271.474C267.895 704.138 264.994 707.039 264.994 710.618V745.126C264.994 748.705 267.895 751.606 271.474 751.606H301.238C304.817 751.606 307.718 748.705 307.718 745.126V710.618C307.718 707.039 304.817 704.138 301.238 704.138Z" fill="#ECECEC"/>
</g>
<g opacity="0.9" filter="url(#filter15_d)">
<path d="M353.457 704.138H323.693C320.114 704.138 317.213 707.039 317.213 710.618V745.126C317.213 748.705 320.114 751.606 323.693 751.606H353.457C357.035 751.606 359.937 748.705 359.937 745.126V710.618C359.937 707.039 357.035 704.138 353.457 704.138Z" fill="#ECECEC"/>
</g>
<g opacity="0.9" filter="url(#filter16_d)">
<path d="M405.676 704.138H375.912C372.333 704.138 369.432 707.039 369.432 710.618V745.126C369.432 748.705 372.333 751.606 375.912 751.606H405.676C409.254 751.606 412.156 748.705 412.156 745.126V710.618C412.156 707.039 409.254 704.138 405.676 704.138Z" fill="#ECECEC"/>
</g>
<g opacity="0.9" filter="url(#filter17_d)">
<path d="M405.676 761.78H375.912C372.333 761.78 369.432 764.681 369.432 768.26V802.768C369.432 806.347 372.333 809.248 375.912 809.248H405.676C409.254 809.248 412.156 806.347 412.156 802.768V768.26C412.156 764.681 409.254 761.78 405.676 761.78Z" fill="#ECECEC"/>
</g>
<path opacity="0.1" d="M447.054 647.504H438.971C429.405 647.504 421.651 655.259 421.651 664.825V677.653C421.651 687.218 429.405 694.973 438.971 694.973H447.054C456.62 694.973 464.375 687.218 464.375 677.653V664.825C464.375 655.259 456.62 647.504 447.054 647.504Z" fill="black"/>
<path d="M457.588 646.496H428.437C424.689 646.496 421.651 649.534 421.651 653.282V687.178C421.651 690.926 424.689 693.964 428.437 693.964H457.588C461.336 693.964 464.375 690.926 464.375 687.178V653.282C464.375 649.534 461.336 646.496 457.588 646.496Z" fill="#FF9955"/>
<g filter="url(#filter18_d)">
<path d="M457.588 646.496H428.437C424.689 646.496 421.651 649.534 421.651 653.282V687.178C421.651 690.926 424.689 693.964 428.437 693.964H457.588C461.336 693.964 464.375 690.926 464.375 687.178V653.282C464.375 649.534 461.336 646.496 457.588 646.496Z" fill="#ECECEC"/>
</g>
<g opacity="0.9" filter="url(#filter19_d)">
<path d="M353.907 761.78H271.023C267.693 761.78 264.994 764.479 264.994 767.809V803.218C264.994 806.548 267.693 809.248 271.023 809.248H353.907C357.237 809.248 359.937 806.548 359.937 803.218V767.809C359.937 764.479 357.237 761.78 353.907 761.78Z" fill="#ECECEC"/>
</g>
<g opacity="0.9" filter="url(#filter20_d)">
<path d="M457.366 704.138H424.581C420.714 704.138 417.579 707.273 417.579 711.14V802.252C417.579 806.119 420.714 809.254 424.581 809.254H457.366C461.233 809.254 464.369 806.119 464.369 802.252V711.14C464.369 707.273 461.233 704.138 457.366 704.138Z" fill="#ECECEC"/>
</g>
<path d="M460.975 548.934H442.274V550.958H460.975V548.934Z" fill="#FFCCAA"/>
<path d="M433.596 548.934H414.894V550.958H433.596V548.934Z" fill="#FFCCAA"/>
<path d="M406.21 548.934H387.509V550.958H406.21V548.934Z" fill="#FFCCAA"/>
<path d="M378.83 548.934H360.129V550.958H378.83V548.934Z" fill="#FFCCAA"/>
<path opacity="0.1" d="M557.996 737.108C557.772 737.457 557.571 737.82 557.396 738.195L555.216 738.075C555.426 736.952 553.943 726.424 553.943 726.424L558.333 726.178C559.143 729.896 559.636 734.508 557.996 737.108Z" fill="black"/>
<path opacity="0.1" d="M551.943 835.006C551.782 835.275 551.54 835.485 551.252 835.607C549.631 836.291 543.637 833.253 540.226 831.403C539.8 831.167 539.477 830.782 539.319 830.322C541.265 829.967 542.538 832.123 542.538 832.123C542.862 831.92 543.224 831.784 543.602 831.722C543.98 831.661 544.366 831.675 544.738 831.765C545.111 831.856 545.461 832.019 545.769 832.247C546.077 832.474 546.336 832.761 546.532 833.09C548.195 835.541 551.763 834.508 551.763 834.508L551.943 835.006Z" fill="black"/>
<path d="M544.622 834.772C544.804 834.772 544.952 834.624 544.952 834.442C544.952 834.259 544.804 834.111 544.622 834.111C544.439 834.111 544.292 834.259 544.292 834.442C544.292 834.624 544.439 834.772 544.622 834.772Z" fill="#575988"/>
<path d="M541.781 837.433C541.964 837.433 542.111 837.285 542.111 837.102C542.111 836.92 541.964 836.772 541.781 836.772C541.599 836.772 541.451 836.92 541.451 837.102C541.451 837.285 541.599 837.433 541.781 837.433Z" fill="#575988"/>
<path d="M963.959 912.8H971.629C973.553 912.8 975.26 913.181 976.751 913.944C978.241 914.707 979.394 915.781 980.209 917.168C981.041 918.537 981.457 920.115 981.457 921.9C981.457 923.685 981.041 925.271 980.209 926.658C979.394 928.027 978.241 929.093 976.751 929.856C975.26 930.619 973.553 931 971.629 931H963.959V912.8ZM971.473 928.738C972.946 928.738 974.237 928.452 975.347 927.88C976.473 927.308 977.34 926.511 977.947 925.488C978.553 924.448 978.857 923.252 978.857 921.9C978.857 920.548 978.553 919.361 977.947 918.338C977.34 917.298 976.473 916.492 975.347 915.92C974.237 915.348 972.946 915.062 971.473 915.062H966.559V928.738H971.473ZM990.977 931.156C989.608 931.156 988.377 930.853 987.285 930.246C986.193 929.639 985.335 928.807 984.711 927.75C984.104 926.675 983.801 925.462 983.801 924.11C983.801 922.758 984.104 921.553 984.711 920.496C985.335 919.421 986.193 918.589 987.285 918C988.377 917.393 989.608 917.09 990.977 917.09C992.346 917.09 993.568 917.393 994.643 918C995.735 918.589 996.584 919.421 997.191 920.496C997.815 921.553 998.127 922.758 998.127 924.11C998.127 925.462 997.815 926.675 997.191 927.75C996.584 928.807 995.735 929.639 994.643 930.246C993.568 930.853 992.346 931.156 990.977 931.156ZM990.977 928.972C991.861 928.972 992.65 928.773 993.343 928.374C994.054 927.958 994.608 927.386 995.007 926.658C995.406 925.913 995.605 925.063 995.605 924.11C995.605 923.157 995.406 922.316 995.007 921.588C994.608 920.843 994.054 920.271 993.343 919.872C992.65 919.473 991.861 919.274 990.977 919.274C990.093 919.274 989.296 919.473 988.585 919.872C987.892 920.271 987.337 920.843 986.921 921.588C986.522 922.316 986.323 923.157 986.323 924.11C986.323 925.063 986.522 925.913 986.921 926.658C987.337 927.386 987.892 927.958 988.585 928.374C989.296 928.773 990.093 928.972 990.977 928.972ZM1008.94 917.09C1010.69 917.09 1012.07 917.601 1013.1 918.624C1014.14 919.629 1014.66 921.111 1014.66 923.07V931H1012.16V923.356C1012.16 922.021 1011.84 921.016 1011.2 920.34C1010.56 919.664 1009.64 919.326 1008.44 919.326C1007.09 919.326 1006.02 919.725 1005.24 920.522C1004.46 921.302 1004.07 922.429 1004.07 923.902V931H1001.58V917.22H1003.97V919.3C1004.47 918.589 1005.15 918.043 1006 917.662C1006.87 917.281 1007.84 917.09 1008.94 917.09ZM1019.72 911.552C1020.21 911.552 1020.61 911.725 1020.92 912.072C1021.25 912.401 1021.41 912.817 1021.41 913.32C1021.41 913.58 1021.39 913.84 1021.33 914.1C1021.28 914.343 1021.17 914.698 1021 915.166L1019.75 918.806H1018.11L1019.07 914.932C1018.74 914.811 1018.47 914.611 1018.27 914.334C1018.08 914.039 1017.98 913.701 1017.98 913.32C1017.98 912.8 1018.15 912.375 1018.47 912.046C1018.8 911.717 1019.22 911.552 1019.72 911.552ZM1032.81 930.194C1032.45 930.506 1032 930.749 1031.46 930.922C1030.92 931.078 1030.37 931.156 1029.8 931.156C1028.41 931.156 1027.34 930.783 1026.57 930.038C1025.81 929.293 1025.43 928.227 1025.43 926.84V919.274H1023.09V917.22H1025.43V914.204H1027.93V917.22H1031.88V919.274H1027.93V926.736C1027.93 927.481 1028.11 928.053 1028.47 928.452C1028.85 928.851 1029.39 929.05 1030.08 929.05C1030.85 929.05 1031.5 928.833 1032.03 928.4L1032.81 930.194ZM1050.17 917.09C1051.92 917.09 1053.31 917.601 1054.33 918.624C1055.37 919.629 1055.89 921.111 1055.89 923.07V931H1053.4V923.356C1053.4 922.021 1053.07 921.016 1052.43 920.34C1051.79 919.664 1050.87 919.326 1049.68 919.326C1048.33 919.326 1047.26 919.725 1046.48 920.522C1045.7 921.302 1045.31 922.429 1045.31 923.902V931H1042.81V911.708H1045.31V919.17C1045.83 918.511 1046.51 918 1047.34 917.636C1048.19 917.272 1049.13 917.09 1050.17 917.09ZM1065.53 917.09C1067.44 917.09 1068.89 917.558 1069.9 918.494C1070.92 919.43 1071.43 920.825 1071.43 922.68V931H1069.06V929.18C1068.65 929.821 1068.05 930.315 1067.27 930.662C1066.51 930.991 1065.6 931.156 1064.54 931.156C1063 931.156 1061.76 930.783 1060.82 930.038C1059.9 929.293 1059.44 928.313 1059.44 927.1C1059.44 925.887 1059.89 924.916 1060.77 924.188C1061.65 923.443 1063.06 923.07 1064.98 923.07H1068.93V922.576C1068.93 921.501 1068.62 920.678 1068 920.106C1067.37 919.534 1066.46 919.248 1065.24 919.248C1064.43 919.248 1063.63 919.387 1062.85 919.664C1062.07 919.924 1061.41 920.279 1060.87 920.73L1059.83 918.858C1060.55 918.286 1061.39 917.853 1062.38 917.558C1063.37 917.246 1064.42 917.09 1065.53 917.09ZM1064.96 929.232C1065.91 929.232 1066.73 929.024 1067.43 928.608C1068.12 928.175 1068.62 927.568 1068.93 926.788V924.864H1065.09C1062.97 924.864 1061.91 925.575 1061.91 926.996C1061.91 927.689 1062.18 928.235 1062.72 928.634C1063.26 929.033 1064 929.232 1064.96 929.232ZM1087.99 917.22L1081.96 931H1079.41L1073.38 917.22H1075.98L1080.71 928.27L1085.55 917.22H1087.99ZM1102.39 924.188C1102.39 924.379 1102.37 924.63 1102.34 924.942H1091.16C1091.32 926.155 1091.84 927.135 1092.75 927.88C1093.66 928.608 1094.8 928.972 1096.15 928.972C1097.8 928.972 1099.12 928.417 1100.13 927.308L1101.51 928.92C1100.88 929.648 1100.1 930.203 1099.17 930.584C1098.25 930.965 1097.22 931.156 1096.07 931.156C1094.62 931.156 1093.33 930.861 1092.2 930.272C1091.07 929.665 1090.2 928.825 1089.57 927.75C1088.97 926.675 1088.66 925.462 1088.66 924.11C1088.66 922.775 1088.96 921.571 1089.55 920.496C1090.15 919.421 1090.98 918.589 1092.02 918C1093.08 917.393 1094.26 917.09 1095.58 917.09C1096.9 917.09 1098.07 917.393 1099.09 918C1100.13 918.589 1100.94 919.421 1101.51 920.496C1102.1 921.571 1102.39 922.801 1102.39 924.188ZM1095.58 919.196C1094.38 919.196 1093.38 919.56 1092.56 920.288C1091.77 921.016 1091.3 921.969 1091.16 923.148H1100C1099.86 921.987 1099.38 921.042 1098.57 920.314C1097.77 919.569 1096.78 919.196 1095.58 919.196ZM1117.86 917.09C1119.77 917.09 1121.22 917.558 1122.23 918.494C1123.25 919.43 1123.76 920.825 1123.76 922.68V931H1121.39V929.18C1120.98 929.821 1120.38 930.315 1119.6 930.662C1118.84 930.991 1117.93 931.156 1116.87 931.156C1115.33 931.156 1114.09 930.783 1113.15 930.038C1112.23 929.293 1111.77 928.313 1111.77 927.1C1111.77 925.887 1112.22 924.916 1113.1 924.188C1113.98 923.443 1115.39 923.07 1117.31 923.07H1121.26V922.576C1121.26 921.501 1120.95 920.678 1120.33 920.106C1119.7 919.534 1118.79 919.248 1117.57 919.248C1116.76 919.248 1115.96 919.387 1115.18 919.664C1114.4 919.924 1113.74 920.279 1113.2 920.73L1112.16 918.858C1112.88 918.286 1113.72 917.853 1114.71 917.558C1115.7 917.246 1116.75 917.09 1117.86 917.09ZM1117.29 929.232C1118.24 929.232 1119.06 929.024 1119.76 928.608C1120.45 928.175 1120.95 927.568 1121.26 926.788V924.864H1117.42C1115.3 924.864 1114.24 925.575 1114.24 926.996C1114.24 927.689 1114.51 928.235 1115.05 928.634C1115.59 929.033 1116.33 929.232 1117.29 929.232ZM1135.74 917.09C1137.49 917.09 1138.88 917.601 1139.9 918.624C1140.94 919.629 1141.46 921.111 1141.46 923.07V931H1138.96V923.356C1138.96 922.021 1138.64 921.016 1138 920.34C1137.36 919.664 1136.44 919.326 1135.24 919.326C1133.89 919.326 1132.83 919.725 1132.05 920.522C1131.27 921.302 1130.88 922.429 1130.88 923.902V931H1128.38V917.22H1130.77V919.3C1131.27 918.589 1131.95 918.043 1132.8 917.662C1133.67 917.281 1134.65 917.09 1135.74 917.09ZM1158.08 917.09C1159.98 917.09 1161.44 917.558 1162.45 918.494C1163.47 919.43 1163.98 920.825 1163.98 922.68V931H1161.61V929.18C1161.2 929.821 1160.6 930.315 1159.82 930.662C1159.06 930.991 1158.15 931.156 1157.09 931.156C1155.55 931.156 1154.31 930.783 1153.37 930.038C1152.45 929.293 1151.99 928.313 1151.99 927.1C1151.99 925.887 1152.44 924.916 1153.32 924.188C1154.2 923.443 1155.61 923.07 1157.53 923.07H1161.48V922.576C1161.48 921.501 1161.17 920.678 1160.55 920.106C1159.92 919.534 1159 919.248 1157.79 919.248C1156.98 919.248 1156.18 919.387 1155.4 919.664C1154.62 919.924 1153.96 920.279 1153.42 920.73L1152.38 918.858C1153.09 918.286 1153.94 917.853 1154.93 917.558C1155.92 917.246 1156.97 917.09 1158.08 917.09ZM1157.51 929.232C1158.46 929.232 1159.28 929.024 1159.98 928.608C1160.67 928.175 1161.17 927.568 1161.48 926.788V924.864H1157.64C1155.52 924.864 1154.46 925.575 1154.46 926.996C1154.46 927.689 1154.73 928.235 1155.27 928.634C1155.81 929.033 1156.55 929.232 1157.51 929.232ZM1174.68 931.156C1173.28 931.156 1172.02 930.853 1170.91 930.246C1169.82 929.639 1168.96 928.807 1168.34 927.75C1167.71 926.675 1167.4 925.462 1167.4 924.11C1167.4 922.758 1167.71 921.553 1168.34 920.496C1168.96 919.421 1169.82 918.589 1170.91 918C1172.02 917.393 1173.28 917.09 1174.68 917.09C1175.93 917.09 1177.04 917.341 1178.01 917.844C1179 918.347 1179.76 919.075 1180.3 920.028L1178.4 921.25C1177.97 920.591 1177.43 920.097 1176.79 919.768C1176.15 919.439 1175.43 919.274 1174.65 919.274C1173.75 919.274 1172.94 919.473 1172.21 919.872C1171.5 920.271 1170.94 920.843 1170.52 921.588C1170.12 922.316 1169.92 923.157 1169.92 924.11C1169.92 925.081 1170.12 925.939 1170.52 926.684C1170.94 927.412 1171.5 927.975 1172.21 928.374C1172.94 928.773 1173.75 928.972 1174.65 928.972C1175.43 928.972 1176.15 928.807 1176.79 928.478C1177.43 928.149 1177.97 927.655 1178.4 926.996L1180.3 928.192C1179.76 929.145 1179 929.882 1178.01 930.402C1177.04 930.905 1175.93 931.156 1174.68 931.156ZM1189.33 931.156C1187.93 931.156 1186.67 930.853 1185.56 930.246C1184.47 929.639 1183.61 928.807 1182.99 927.75C1182.36 926.675 1182.05 925.462 1182.05 924.11C1182.05 922.758 1182.36 921.553 1182.99 920.496C1183.61 919.421 1184.47 918.589 1185.56 918C1186.67 917.393 1187.93 917.09 1189.33 917.09C1190.58 917.09 1191.69 917.341 1192.66 917.844C1193.65 918.347 1194.41 919.075 1194.95 920.028L1193.05 921.25C1192.62 920.591 1192.08 920.097 1191.44 919.768C1190.8 919.439 1190.08 919.274 1189.3 919.274C1188.4 919.274 1187.59 919.473 1186.86 919.872C1186.15 920.271 1185.59 920.843 1185.17 921.588C1184.77 922.316 1184.57 923.157 1184.57 924.11C1184.57 925.081 1184.77 925.939 1185.17 926.684C1185.59 927.412 1186.15 927.975 1186.86 928.374C1187.59 928.773 1188.4 928.972 1189.3 928.972C1190.08 928.972 1190.8 928.807 1191.44 928.478C1192.08 928.149 1192.62 927.655 1193.05 926.996L1194.95 928.192C1194.41 929.145 1193.65 929.882 1192.66 930.402C1191.69 930.905 1190.58 931.156 1189.33 931.156ZM1203.88 931.156C1202.51 931.156 1201.28 930.853 1200.19 930.246C1199.09 929.639 1198.24 928.807 1197.61 927.75C1197 926.675 1196.7 925.462 1196.7 924.11C1196.7 922.758 1197 921.553 1197.61 920.496C1198.24 919.421 1199.09 918.589 1200.19 918C1201.28 917.393 1202.51 917.09 1203.88 917.09C1205.25 917.09 1206.47 917.393 1207.54 918C1208.64 918.589 1209.48 919.421 1210.09 920.496C1210.72 921.553 1211.03 922.758 1211.03 924.11C1211.03 925.462 1210.72 926.675 1210.09 927.75C1209.48 928.807 1208.64 929.639 1207.54 930.246C1206.47 930.853 1205.25 931.156 1203.88 931.156ZM1203.88 928.972C1204.76 928.972 1205.55 928.773 1206.24 928.374C1206.95 927.958 1207.51 927.386 1207.91 926.658C1208.31 925.913 1208.51 925.063 1208.51 924.11C1208.51 923.157 1208.31 922.316 1207.91 921.588C1207.51 920.843 1206.95 920.271 1206.24 919.872C1205.55 919.473 1204.76 919.274 1203.88 919.274C1202.99 919.274 1202.2 919.473 1201.49 919.872C1200.79 920.271 1200.24 920.843 1199.82 921.588C1199.42 922.316 1199.22 923.157 1199.22 924.11C1199.22 925.063 1199.42 925.913 1199.82 926.658C1200.24 927.386 1200.79 927.958 1201.49 928.374C1202.2 928.773 1202.99 928.972 1203.88 928.972ZM1227.32 917.22V931H1224.96V928.92C1224.45 929.631 1223.79 930.185 1222.96 930.584C1222.14 930.965 1221.25 931.156 1220.28 931.156C1218.44 931.156 1216.99 930.653 1215.94 929.648C1214.88 928.625 1214.35 927.126 1214.35 925.15V917.22H1216.85V924.864C1216.85 926.199 1217.17 927.213 1217.81 927.906C1218.45 928.582 1219.37 928.92 1220.56 928.92C1221.88 928.92 1222.92 928.521 1223.68 927.724C1224.45 926.927 1224.83 925.8 1224.83 924.344V917.22H1227.32ZM1239.43 917.09C1241.18 917.09 1242.57 917.601 1243.59 918.624C1244.63 919.629 1245.15 921.111 1245.15 923.07V931H1242.66V923.356C1242.66 922.021 1242.34 921.016 1241.69 920.34C1241.05 919.664 1240.13 919.326 1238.94 919.326C1237.59 919.326 1236.52 919.725 1235.74 920.522C1234.96 921.302 1234.57 922.429 1234.57 923.902V931H1232.07V917.22H1234.47V919.3C1234.97 918.589 1235.65 918.043 1236.49 917.662C1237.36 917.281 1238.34 917.09 1239.43 917.09ZM1257.52 930.194C1257.16 930.506 1256.71 930.749 1256.17 930.922C1255.63 931.078 1255.08 931.156 1254.5 931.156C1253.12 931.156 1252.04 930.783 1251.28 930.038C1250.52 929.293 1250.14 928.227 1250.14 926.84V919.274H1247.8V917.22H1250.14V914.204H1252.63V917.22H1256.58V919.274H1252.63V926.736C1252.63 927.481 1252.81 928.053 1253.18 928.452C1253.56 928.851 1254.1 929.05 1254.79 929.05C1255.55 929.05 1256.2 928.833 1256.74 928.4L1257.52 930.194ZM1264.1 925.254C1264.1 924.561 1264.21 923.954 1264.44 923.434C1264.68 922.897 1264.97 922.446 1265.3 922.082C1265.64 921.718 1266.09 921.285 1266.65 920.782C1267.34 920.175 1267.85 919.655 1268.18 919.222C1268.51 918.771 1268.68 918.234 1268.68 917.61C1268.68 916.761 1268.35 916.085 1267.69 915.582C1267.03 915.062 1266.12 914.802 1264.96 914.802C1262.93 914.802 1261.38 915.487 1260.3 916.856L1258.41 915.504C1259.13 914.568 1260.06 913.849 1261.19 913.346C1262.33 912.843 1263.65 912.592 1265.14 912.592C1267.03 912.592 1268.53 913.008 1269.64 913.84C1270.75 914.655 1271.3 915.781 1271.3 917.22C1271.3 917.931 1271.18 918.563 1270.94 919.118C1270.71 919.655 1270.44 920.106 1270.11 920.47C1269.78 920.834 1269.33 921.267 1268.78 921.77C1268.07 922.411 1267.54 922.975 1267.19 923.46C1266.86 923.945 1266.7 924.543 1266.7 925.254H1264.1ZM1265.43 931.156C1264.94 931.156 1264.53 931 1264.2 930.688C1263.89 930.359 1263.74 929.96 1263.74 929.492C1263.74 929.024 1263.89 928.634 1264.2 928.322C1264.53 927.993 1264.94 927.828 1265.43 927.828C1265.91 927.828 1266.31 927.993 1266.62 928.322C1266.93 928.634 1267.09 929.024 1267.09 929.492C1267.09 929.96 1266.93 930.359 1266.6 930.688C1266.28 931 1265.89 931.156 1265.43 931.156Z" fill="#000839"/>
<path d="M1294.96 931L1291.03 925.41C1290.55 925.445 1290.16 925.462 1289.89 925.462H1285.39V931H1282.79V912.8H1289.89C1292.24 912.8 1294.1 913.363 1295.45 914.49C1296.8 915.617 1297.48 917.168 1297.48 919.144C1297.48 920.548 1297.13 921.744 1296.44 922.732C1295.75 923.72 1294.76 924.439 1293.47 924.89L1297.79 931H1294.96ZM1289.81 923.252C1291.46 923.252 1292.71 922.897 1293.58 922.186C1294.45 921.475 1294.88 920.461 1294.88 919.144C1294.88 917.827 1294.45 916.821 1293.58 916.128C1292.71 915.417 1291.46 915.062 1289.81 915.062H1285.39V923.252H1289.81ZM1313.77 924.188C1313.77 924.379 1313.75 924.63 1313.72 924.942H1302.54C1302.69 926.155 1303.22 927.135 1304.12 927.88C1305.04 928.608 1306.18 928.972 1307.53 928.972C1309.18 928.972 1310.5 928.417 1311.51 927.308L1312.89 928.92C1312.26 929.648 1311.48 930.203 1310.55 930.584C1309.63 930.965 1308.6 931.156 1307.45 931.156C1306 931.156 1304.7 930.861 1303.58 930.272C1302.45 929.665 1301.58 928.825 1300.95 927.75C1300.34 926.675 1300.04 925.462 1300.04 924.11C1300.04 922.775 1300.34 921.571 1300.93 920.496C1301.53 919.421 1302.36 918.589 1303.4 918C1304.45 917.393 1305.64 917.09 1306.96 917.09C1308.27 917.09 1309.44 917.393 1310.47 918C1311.51 918.589 1312.31 919.421 1312.89 920.496C1313.47 921.571 1313.77 922.801 1313.77 924.188ZM1306.96 919.196C1305.76 919.196 1304.76 919.56 1303.94 920.288C1303.14 921.016 1302.68 921.969 1302.54 923.148H1311.38C1311.24 921.987 1310.76 921.042 1309.95 920.314C1309.15 919.569 1308.15 919.196 1306.96 919.196ZM1330.42 917.22V929.128C1330.42 931.537 1329.82 933.314 1328.62 934.458C1327.43 935.619 1325.64 936.2 1323.27 936.2C1321.97 936.2 1320.73 936.018 1319.55 935.654C1318.37 935.307 1317.42 934.805 1316.69 934.146L1317.89 932.222C1318.53 932.777 1319.32 933.21 1320.25 933.522C1321.2 933.851 1322.18 934.016 1323.19 934.016C1324.8 934.016 1325.99 933.635 1326.75 932.872C1327.53 932.109 1327.92 930.948 1327.92 929.388V928.296C1327.33 929.007 1326.6 929.544 1325.74 929.908C1324.89 930.255 1323.96 930.428 1322.96 930.428C1321.64 930.428 1320.44 930.151 1319.37 929.596C1318.31 929.024 1317.48 928.235 1316.87 927.23C1316.26 926.207 1315.96 925.046 1315.96 923.746C1315.96 922.446 1316.26 921.293 1316.87 920.288C1317.48 919.265 1318.31 918.477 1319.37 917.922C1320.44 917.367 1321.64 917.09 1322.96 917.09C1324 917.09 1324.96 917.281 1325.84 917.662C1326.74 918.043 1327.48 918.607 1328.05 919.352V917.22H1330.42ZM1323.24 928.244C1324.14 928.244 1324.95 928.053 1325.66 927.672C1326.39 927.291 1326.95 926.762 1327.35 926.086C1327.77 925.393 1327.97 924.613 1327.97 923.746C1327.97 922.411 1327.53 921.337 1326.65 920.522C1325.76 919.69 1324.63 919.274 1323.24 919.274C1321.84 919.274 1320.69 919.69 1319.81 920.522C1318.93 921.337 1318.48 922.411 1318.48 923.746C1318.48 924.613 1318.68 925.393 1319.08 926.086C1319.5 926.762 1320.06 927.291 1320.77 927.672C1321.5 928.053 1322.32 928.244 1323.24 928.244ZM1335.19 917.22H1337.68V931H1335.19V917.22ZM1336.43 914.568C1335.95 914.568 1335.54 914.412 1335.21 914.1C1334.9 913.788 1334.74 913.407 1334.74 912.956C1334.74 912.505 1334.9 912.124 1335.21 911.812C1335.54 911.483 1335.95 911.318 1336.43 911.318C1336.92 911.318 1337.32 911.474 1337.63 911.786C1337.96 912.081 1338.12 912.453 1338.12 912.904C1338.12 913.372 1337.96 913.771 1337.63 914.1C1337.32 914.412 1336.92 914.568 1336.43 914.568ZM1346.4 931.156C1345.27 931.156 1344.19 931.009 1343.15 930.714C1342.11 930.402 1341.3 930.012 1340.71 929.544L1341.75 927.568C1342.35 928.001 1343.09 928.348 1343.96 928.608C1344.82 928.868 1345.7 928.998 1346.58 928.998C1348.77 928.998 1349.86 928.374 1349.86 927.126C1349.86 926.71 1349.71 926.381 1349.42 926.138C1349.12 925.895 1348.75 925.722 1348.3 925.618C1347.86 925.497 1347.24 925.367 1346.43 925.228C1345.32 925.055 1344.41 924.855 1343.7 924.63C1343 924.405 1342.4 924.023 1341.9 923.486C1341.4 922.949 1341.15 922.195 1341.15 921.224C1341.15 919.976 1341.67 918.979 1342.71 918.234C1343.75 917.471 1345.14 917.09 1346.89 917.09C1347.81 917.09 1348.73 917.203 1349.65 917.428C1350.57 917.653 1351.32 917.957 1351.91 918.338L1350.85 920.314C1349.72 919.586 1348.39 919.222 1346.87 919.222C1345.81 919.222 1345 919.395 1344.45 919.742C1343.9 920.089 1343.62 920.548 1343.62 921.12C1343.62 921.571 1343.77 921.926 1344.09 922.186C1344.4 922.446 1344.78 922.637 1345.23 922.758C1345.7 922.879 1346.35 923.018 1347.18 923.174C1348.29 923.365 1349.18 923.573 1349.86 923.798C1350.55 924.006 1351.14 924.37 1351.63 924.89C1352.11 925.41 1352.35 926.138 1352.35 927.074C1352.35 928.322 1351.82 929.319 1350.74 930.064C1349.68 930.792 1348.24 931.156 1346.4 931.156ZM1363.22 930.194C1362.86 930.506 1362.41 930.749 1361.87 930.922C1361.33 931.078 1360.78 931.156 1360.21 931.156C1358.82 931.156 1357.74 930.783 1356.98 930.038C1356.22 929.293 1355.84 928.227 1355.84 926.84V919.274H1353.5V917.22H1355.84V914.204H1358.33V917.22H1362.29V919.274H1358.33V926.736C1358.33 927.481 1358.52 928.053 1358.88 928.452C1359.26 928.851 1359.8 929.05 1360.49 929.05C1361.25 929.05 1361.9 928.833 1362.44 928.4L1363.22 930.194ZM1378.24 924.188C1378.24 924.379 1378.22 924.63 1378.18 924.942H1367C1367.16 926.155 1367.69 927.135 1368.59 927.88C1369.51 928.608 1370.64 928.972 1372 928.972C1373.64 928.972 1374.97 928.417 1375.97 927.308L1377.35 928.92C1376.73 929.648 1375.95 930.203 1375.01 930.584C1374.09 930.965 1373.06 931.156 1371.92 931.156C1370.46 931.156 1369.17 930.861 1368.04 930.272C1366.92 929.665 1366.04 928.825 1365.42 927.75C1364.81 926.675 1364.51 925.462 1364.51 924.11C1364.51 922.775 1364.8 921.571 1365.39 920.496C1366 919.421 1366.82 918.589 1367.86 918C1368.92 917.393 1370.11 917.09 1371.42 917.09C1372.74 917.09 1373.91 917.393 1374.93 918C1375.97 918.589 1376.78 919.421 1377.35 920.496C1377.94 921.571 1378.24 922.801 1378.24 924.188ZM1371.42 919.196C1370.23 919.196 1369.22 919.56 1368.41 920.288C1367.61 921.016 1367.14 921.969 1367 923.148H1375.84C1375.71 921.987 1375.23 921.042 1374.41 920.314C1373.62 919.569 1372.62 919.196 1371.42 919.196ZM1384.09 919.534C1384.53 918.737 1385.17 918.13 1386.02 917.714C1386.87 917.298 1387.9 917.09 1389.11 917.09V919.508C1388.97 919.491 1388.78 919.482 1388.54 919.482C1387.19 919.482 1386.12 919.889 1385.34 920.704C1384.58 921.501 1384.2 922.645 1384.2 924.136V931H1381.7V917.22H1384.09V919.534Z" fill="#F5A328"/>
<path d="M1280.06 933.6H1390V934.9H1280.06V933.6Z" fill="#F5A328"/>
<path d="M985.491 223L971.751 265H961.311L952.071 236.56L942.531 265H932.151L918.351 223H928.431L937.911 252.52L947.811 223H956.811L966.411 252.76L976.191 223H985.491ZM1019.48 248.98C1019.48 249.1 1019.42 249.94 1019.3 251.5H994.875C995.315 253.5 996.355 255.08 997.995 256.24C999.635 257.4 1001.68 257.98 1004.12 257.98C1005.8 257.98 1007.28 257.74 1008.56 257.26C1009.88 256.74 1011.1 255.94 1012.22 254.86L1017.2 260.26C1014.16 263.74 1009.72 265.48 1003.88 265.48C1000.24 265.48 997.015 264.78 994.215 263.38C991.415 261.94 989.255 259.96 987.735 257.44C986.215 254.92 985.455 252.06 985.455 248.86C985.455 245.7 986.195 242.86 987.675 240.34C989.195 237.78 991.255 235.8 993.855 234.4C996.495 232.96 999.435 232.24 1002.68 232.24C1005.84 232.24 1008.7 232.92 1011.26 234.28C1013.82 235.64 1015.82 237.6 1017.26 240.16C1018.74 242.68 1019.48 245.62 1019.48 248.98ZM1002.74 239.32C1000.62 239.32 998.835 239.92 997.395 241.12C995.955 242.32 995.075 243.96 994.755 246.04H1010.66C1010.34 244 1009.46 242.38 1008.02 241.18C1006.58 239.94 1004.82 239.32 1002.74 239.32ZM1025.71 220.48H1035.07V265H1025.71V220.48ZM1059.35 265.48C1055.91 265.48 1052.81 264.78 1050.05 263.38C1047.33 261.94 1045.19 259.96 1043.63 257.44C1042.11 254.92 1041.35 252.06 1041.35 248.86C1041.35 245.66 1042.11 242.8 1043.63 240.28C1045.19 237.76 1047.33 235.8 1050.05 234.4C1052.81 232.96 1055.91 232.24 1059.35 232.24C1062.75 232.24 1065.71 232.96 1068.23 234.4C1070.79 235.8 1072.65 237.82 1073.81 240.46L1066.55 244.36C1064.87 241.4 1062.45 239.92 1059.29 239.92C1056.85 239.92 1054.83 240.72 1053.23 242.32C1051.63 243.92 1050.83 246.1 1050.83 248.86C1050.83 251.62 1051.63 253.8 1053.23 255.4C1054.83 257 1056.85 257.8 1059.29 257.8C1062.49 257.8 1064.91 256.32 1066.55 253.36L1073.81 257.32C1072.65 259.88 1070.79 261.88 1068.23 263.32C1065.71 264.76 1062.75 265.48 1059.35 265.48ZM1094.15 265.48C1090.75 265.48 1087.69 264.78 1084.97 263.38C1082.29 261.94 1080.19 259.96 1078.67 257.44C1077.15 254.92 1076.39 252.06 1076.39 248.86C1076.39 245.66 1077.15 242.8 1078.67 240.28C1080.19 237.76 1082.29 235.8 1084.97 234.4C1087.69 232.96 1090.75 232.24 1094.15 232.24C1097.55 232.24 1100.59 232.96 1103.27 234.4C1105.95 235.8 1108.05 237.76 1109.57 240.28C1111.09 242.8 1111.85 245.66 1111.85 248.86C1111.85 252.06 1111.09 254.92 1109.57 257.44C1108.05 259.96 1105.95 261.94 1103.27 263.38C1100.59 264.78 1097.55 265.48 1094.15 265.48ZM1094.15 257.8C1096.55 257.8 1098.51 257 1100.03 255.4C1101.59 253.76 1102.37 251.58 1102.37 248.86C1102.37 246.14 1101.59 243.98 1100.03 242.38C1098.51 240.74 1096.55 239.92 1094.15 239.92C1091.75 239.92 1089.77 240.74 1088.21 242.38C1086.65 243.98 1085.87 246.14 1085.87 248.86C1085.87 251.58 1086.65 253.76 1088.21 255.4C1089.77 257 1091.75 257.8 1094.15 257.8ZM1159.45 232.24C1163.49 232.24 1166.69 233.44 1169.05 235.84C1171.45 238.2 1172.65 241.76 1172.65 246.52V265H1163.29V247.96C1163.29 245.4 1162.75 243.5 1161.67 242.26C1160.63 240.98 1159.13 240.34 1157.17 240.34C1154.97 240.34 1153.23 241.06 1151.95 242.5C1150.67 243.9 1150.03 246 1150.03 248.8V265H1140.67V247.96C1140.67 242.88 1138.63 240.34 1134.55 240.34C1132.39 240.34 1130.67 241.06 1129.39 242.5C1128.11 243.9 1127.47 246 1127.47 248.8V265H1118.11V232.72H1127.05V236.44C1128.25 235.08 1129.71 234.04 1131.43 233.32C1133.19 232.6 1135.11 232.24 1137.19 232.24C1139.47 232.24 1141.53 232.7 1143.37 233.62C1145.21 234.5 1146.69 235.8 1147.81 237.52C1149.13 235.84 1150.79 234.54 1152.79 233.62C1154.83 232.7 1157.05 232.24 1159.45 232.24ZM1213.01 248.98C1213.01 249.1 1212.95 249.94 1212.83 251.5H1188.41C1188.85 253.5 1189.89 255.08 1191.53 256.24C1193.17 257.4 1195.21 257.98 1197.65 257.98C1199.33 257.98 1200.81 257.74 1202.09 257.26C1203.41 256.74 1204.63 255.94 1205.75 254.86L1210.73 260.26C1207.69 263.74 1203.25 265.48 1197.41 265.48C1193.77 265.48 1190.55 264.78 1187.75 263.38C1184.95 261.94 1182.79 259.96 1181.27 257.44C1179.75 254.92 1178.99 252.06 1178.99 248.86C1178.99 245.7 1179.73 242.86 1181.21 240.34C1182.73 237.78 1184.79 235.8 1187.39 234.4C1190.03 232.96 1192.97 232.24 1196.21 232.24C1199.37 232.24 1202.23 232.92 1204.79 234.28C1207.35 235.64 1209.35 237.6 1210.79 240.16C1212.27 242.68 1213.01 245.62 1213.01 248.98ZM1196.27 239.32C1194.15 239.32 1192.37 239.92 1190.93 241.12C1189.49 242.32 1188.61 243.96 1188.29 246.04H1204.19C1203.87 244 1202.99 242.38 1201.55 241.18C1200.11 239.94 1198.35 239.32 1196.27 239.32ZM1267.73 243.16C1270.13 243.92 1272.01 245.2 1273.37 247C1274.73 248.76 1275.41 250.94 1275.41 253.54C1275.41 257.22 1273.97 260.06 1271.09 262.06C1268.25 264.02 1264.09 265 1258.61 265H1236.89V223H1257.41C1262.53 223 1266.45 223.98 1269.17 225.94C1271.93 227.9 1273.31 230.56 1273.31 233.92C1273.31 235.96 1272.81 237.78 1271.81 239.38C1270.85 240.98 1269.49 242.24 1267.73 243.16ZM1246.55 230.32V240.22H1256.21C1258.61 240.22 1260.43 239.8 1261.67 238.96C1262.91 238.12 1263.53 236.88 1263.53 235.24C1263.53 233.6 1262.91 232.38 1261.67 231.58C1260.43 230.74 1258.61 230.32 1256.21 230.32H1246.55ZM1257.89 257.68C1260.45 257.68 1262.37 257.26 1263.65 256.42C1264.97 255.58 1265.63 254.28 1265.63 252.52C1265.63 249.04 1263.05 247.3 1257.89 247.3H1246.55V257.68H1257.89ZM1295.13 232.24C1300.13 232.24 1303.97 233.44 1306.65 235.84C1309.33 238.2 1310.67 241.78 1310.67 246.58V265H1301.91V260.98C1300.15 263.98 1296.87 265.48 1292.07 265.48C1289.59 265.48 1287.43 265.06 1285.59 264.22C1283.79 263.38 1282.41 262.22 1281.45 260.74C1280.49 259.26 1280.01 257.58 1280.01 255.7C1280.01 252.7 1281.13 250.34 1283.37 248.62C1285.65 246.9 1289.15 246.04 1293.87 246.04H1301.31C1301.31 244 1300.69 242.44 1299.45 241.36C1298.21 240.24 1296.35 239.68 1293.87 239.68C1292.15 239.68 1290.45 239.96 1288.77 240.52C1287.13 241.04 1285.73 241.76 1284.57 242.68L1281.21 236.14C1282.97 234.9 1285.07 233.94 1287.51 233.26C1289.99 232.58 1292.53 232.24 1295.13 232.24ZM1294.41 259.18C1296.01 259.18 1297.43 258.82 1298.67 258.1C1299.91 257.34 1300.79 256.24 1301.31 254.8V251.5H1294.89C1291.05 251.5 1289.13 252.76 1289.13 255.28C1289.13 256.48 1289.59 257.44 1290.51 258.16C1291.47 258.84 1292.77 259.18 1294.41 259.18ZM1335.1 265.48C1331.66 265.48 1328.56 264.78 1325.8 263.38C1323.08 261.94 1320.94 259.96 1319.38 257.44C1317.86 254.92 1317.1 252.06 1317.1 248.86C1317.1 245.66 1317.86 242.8 1319.38 240.28C1320.94 237.76 1323.08 235.8 1325.8 234.4C1328.56 232.96 1331.66 232.24 1335.1 232.24C1338.5 232.24 1341.46 232.96 1343.98 234.4C1346.54 235.8 1348.4 237.82 1349.56 240.46L1342.3 244.36C1340.62 241.4 1338.2 239.92 1335.04 239.92C1332.6 239.92 1330.58 240.72 1328.98 242.32C1327.38 243.92 1326.58 246.1 1326.58 248.86C1326.58 251.62 1327.38 253.8 1328.98 255.4C1330.58 257 1332.6 257.8 1335.04 257.8C1338.24 257.8 1340.66 256.32 1342.3 253.36L1349.56 257.32C1348.4 259.88 1346.54 261.88 1343.98 263.32C1341.46 264.76 1338.5 265.48 1335.1 265.48ZM1368.57 252.34L1364.07 256.78V265H1354.71V220.48H1364.07V245.68L1377.75 232.72H1388.91L1375.47 246.4L1390.11 265H1378.77L1368.57 252.34Z" fill="#000839"/>
<rect x="1031" y="651" width="359" height="99" rx="25" fill="#000839"/>
<path d="M1163.21 690H1168.07V707.04H1178.6V711H1163.21V690ZM1191.13 711.36C1188.95 711.36 1186.98 710.89 1185.22 709.95C1183.48 709.01 1182.11 707.72 1181.11 706.08C1180.13 704.42 1179.64 702.56 1179.64 700.5C1179.64 698.44 1180.13 696.59 1181.11 694.95C1182.11 693.29 1183.48 691.99 1185.22 691.05C1186.98 690.11 1188.95 689.64 1191.13 689.64C1193.31 689.64 1195.27 690.11 1197.01 691.05C1198.75 691.99 1200.12 693.29 1201.12 694.95C1202.12 696.59 1202.62 698.44 1202.62 700.5C1202.62 702.56 1202.12 704.42 1201.12 706.08C1200.12 707.72 1198.75 709.01 1197.01 709.95C1195.27 710.89 1193.31 711.36 1191.13 711.36ZM1191.13 707.22C1192.37 707.22 1193.49 706.94 1194.49 706.38C1195.49 705.8 1196.27 705 1196.83 703.98C1197.41 702.96 1197.7 701.8 1197.7 700.5C1197.7 699.2 1197.41 698.04 1196.83 697.02C1196.27 696 1195.49 695.21 1194.49 694.65C1193.49 694.07 1192.37 693.78 1191.13 693.78C1189.89 693.78 1188.77 694.07 1187.77 694.65C1186.77 695.21 1185.98 696 1185.4 697.02C1184.84 698.04 1184.56 699.2 1184.56 700.5C1184.56 701.8 1184.84 702.96 1185.4 703.98C1185.98 705 1186.77 705.8 1187.77 706.38C1188.77 706.94 1189.89 707.22 1191.13 707.22ZM1220.46 700.17H1224.9V708.69C1223.76 709.55 1222.44 710.21 1220.94 710.67C1219.44 711.13 1217.93 711.36 1216.41 711.36C1214.23 711.36 1212.27 710.9 1210.53 709.98C1208.79 709.04 1207.42 707.75 1206.42 706.11C1205.44 704.45 1204.95 702.58 1204.95 700.5C1204.95 698.42 1205.44 696.56 1206.42 694.92C1207.42 693.26 1208.8 691.97 1210.56 691.05C1212.32 690.11 1214.3 689.64 1216.5 689.64C1218.34 689.64 1220.01 689.95 1221.51 690.57C1223.01 691.19 1224.27 692.09 1225.29 693.27L1222.17 696.15C1220.67 694.57 1218.86 693.78 1216.74 693.78C1215.4 693.78 1214.21 694.06 1213.17 694.62C1212.13 695.18 1211.32 695.97 1210.74 696.99C1210.16 698.01 1209.87 699.18 1209.87 700.5C1209.87 701.8 1210.16 702.96 1210.74 703.98C1211.32 705 1212.12 705.8 1213.14 706.38C1214.18 706.94 1215.36 707.22 1216.68 707.22C1218.08 707.22 1219.34 706.92 1220.46 706.32V700.17ZM1229.42 690H1234.28V711H1229.42V690ZM1258.52 690V711H1254.53L1244.06 698.25V711H1239.26V690H1243.28L1253.72 702.75V690H1258.52Z" fill="white"/>
<line x1="860" y1="442.5" x2="1390.03" y2="442.5" stroke="#000839"/>
<line x1="860" y1="570.5" x2="1390.03" y2="570.5" stroke="#000839"/>
<path opacity="0.3" d="M1194.55 411.39V414H1179.31V393H1194.13V395.61H1182.31V402.06H1192.84V404.61H1182.31V411.39H1194.55ZM1218.88 397.95C1220.88 397.95 1222.46 398.53 1223.62 399.69C1224.8 400.85 1225.39 402.57 1225.39 404.85V414H1222.51V405.18C1222.51 403.64 1222.15 402.48 1221.43 401.7C1220.73 400.92 1219.72 400.53 1218.4 400.53C1216.94 400.53 1215.78 400.99 1214.92 401.91C1214.06 402.81 1213.63 404.11 1213.63 405.81V414H1210.75V405.18C1210.75 403.64 1210.39 402.48 1209.67 401.7C1208.97 400.92 1207.96 400.53 1206.64 400.53C1205.18 400.53 1204.02 400.99 1203.16 401.91C1202.3 402.81 1201.87 404.11 1201.87 405.81V414H1198.99V398.1H1201.75V400.47C1202.33 399.65 1203.09 399.03 1204.03 398.61C1204.97 398.17 1206.04 397.95 1207.24 397.95C1208.48 397.95 1209.58 398.2 1210.54 398.7C1211.5 399.2 1212.24 399.93 1212.76 400.89C1213.36 399.97 1214.19 399.25 1215.25 398.73C1216.33 398.21 1217.54 397.95 1218.88 397.95ZM1236.48 397.95C1238.68 397.95 1240.36 398.49 1241.52 399.57C1242.7 400.65 1243.29 402.26 1243.29 404.4V414H1240.56V411.9C1240.08 412.64 1239.39 413.21 1238.49 413.61C1237.61 413.99 1236.56 414.18 1235.34 414.18C1233.56 414.18 1232.13 413.75 1231.05 412.89C1229.99 412.03 1229.46 410.9 1229.46 409.5C1229.46 408.1 1229.97 406.98 1230.99 406.14C1232.01 405.28 1233.63 404.85 1235.85 404.85H1240.41V404.28C1240.41 403.04 1240.05 402.09 1239.33 401.43C1238.61 400.77 1237.55 400.44 1236.15 400.44C1235.21 400.44 1234.29 400.6 1233.39 400.92C1232.49 401.22 1231.73 401.63 1231.11 402.15L1229.91 399.99C1230.73 399.33 1231.71 398.83 1232.85 398.49C1233.99 398.13 1235.2 397.95 1236.48 397.95ZM1235.82 411.96C1236.92 411.96 1237.87 411.72 1238.67 411.24C1239.47 410.74 1240.05 410.04 1240.41 409.14V406.92H1235.97C1233.53 406.92 1232.31 407.74 1232.31 409.38C1232.31 410.18 1232.62 410.81 1233.24 411.27C1233.86 411.73 1234.72 411.96 1235.82 411.96ZM1248.62 398.1H1251.5V414H1248.62V398.1ZM1250.06 395.04C1249.5 395.04 1249.03 394.86 1248.65 394.5C1248.29 394.14 1248.11 393.7 1248.11 393.18C1248.11 392.66 1248.29 392.22 1248.65 391.86C1249.03 391.48 1249.5 391.29 1250.06 391.29C1250.62 391.29 1251.08 391.47 1251.44 391.83C1251.82 392.17 1252.01 392.6 1252.01 393.12C1252.01 393.66 1251.82 394.12 1251.44 394.5C1251.08 394.86 1250.62 395.04 1250.06 395.04ZM1257 391.74H1259.88V414H1257V391.74ZM1279.22 397.95C1281.42 397.95 1283.1 398.49 1284.26 399.57C1285.44 400.65 1286.03 402.26 1286.03 404.4V414H1283.3V411.9C1282.82 412.64 1282.13 413.21 1281.23 413.61C1280.35 413.99 1279.3 414.18 1278.08 414.18C1276.3 414.18 1274.87 413.75 1273.79 412.89C1272.73 412.03 1272.2 410.9 1272.2 409.5C1272.2 408.1 1272.71 406.98 1273.73 406.14C1274.75 405.28 1276.37 404.85 1278.59 404.85H1283.15V404.28C1283.15 403.04 1282.79 402.09 1282.07 401.43C1281.35 400.77 1280.29 400.44 1278.89 400.44C1277.95 400.44 1277.03 400.6 1276.13 400.92C1275.23 401.22 1274.47 401.63 1273.85 402.15L1272.65 399.99C1273.47 399.33 1274.45 398.83 1275.59 398.49C1276.73 398.13 1277.94 397.95 1279.22 397.95ZM1278.56 411.96C1279.66 411.96 1280.61 411.72 1281.41 411.24C1282.21 410.74 1282.79 410.04 1283.15 409.14V406.92H1278.71C1276.27 406.92 1275.05 407.74 1275.05 409.38C1275.05 410.18 1275.36 410.81 1275.98 411.27C1276.6 411.73 1277.46 411.96 1278.56 411.96ZM1306.45 391.74V414H1303.69V411.48C1303.05 412.36 1302.24 413.03 1301.26 413.49C1300.28 413.95 1299.2 414.18 1298.02 414.18C1296.48 414.18 1295.1 413.84 1293.88 413.16C1292.66 412.48 1291.7 411.53 1291 410.31C1290.32 409.07 1289.98 407.65 1289.98 406.05C1289.98 404.45 1290.32 403.04 1291 401.82C1291.7 400.6 1292.66 399.65 1293.88 398.97C1295.1 398.29 1296.48 397.95 1298.02 397.95C1299.16 397.95 1300.21 398.17 1301.17 398.61C1302.13 399.03 1302.93 399.66 1303.57 400.5V391.74H1306.45ZM1298.26 411.66C1299.26 411.66 1300.17 411.43 1300.99 410.97C1301.81 410.49 1302.45 409.83 1302.91 408.99C1303.37 408.13 1303.6 407.15 1303.6 406.05C1303.6 404.95 1303.37 403.98 1302.91 403.14C1302.45 402.28 1301.81 401.62 1300.99 401.16C1300.17 400.7 1299.26 400.47 1298.26 400.47C1297.24 400.47 1296.32 400.7 1295.5 401.16C1294.7 401.62 1294.06 402.28 1293.58 403.14C1293.12 403.98 1292.89 404.95 1292.89 406.05C1292.89 407.15 1293.12 408.13 1293.58 408.99C1294.06 409.83 1294.7 410.49 1295.5 410.97C1296.32 411.43 1297.24 411.66 1298.26 411.66ZM1326.9 391.74V414H1324.14V411.48C1323.5 412.36 1322.69 413.03 1321.71 413.49C1320.73 413.95 1319.65 414.18 1318.47 414.18C1316.93 414.18 1315.55 413.84 1314.33 413.16C1313.11 412.48 1312.15 411.53 1311.45 410.31C1310.77 409.07 1310.43 407.65 1310.43 406.05C1310.43 404.45 1310.77 403.04 1311.45 401.82C1312.15 400.6 1313.11 399.65 1314.33 398.97C1315.55 398.29 1316.93 397.95 1318.47 397.95C1319.61 397.95 1320.66 398.17 1321.62 398.61C1322.58 399.03 1323.38 399.66 1324.02 400.5V391.74H1326.9ZM1318.71 411.66C1319.71 411.66 1320.62 411.43 1321.44 410.97C1322.26 410.49 1322.9 409.83 1323.36 408.99C1323.82 408.13 1324.05 407.15 1324.05 406.05C1324.05 404.95 1323.82 403.98 1323.36 403.14C1322.9 402.28 1322.26 401.62 1321.44 401.16C1320.62 400.7 1319.71 400.47 1318.71 400.47C1317.69 400.47 1316.77 400.7 1315.95 401.16C1315.15 401.62 1314.51 402.28 1314.03 403.14C1313.57 403.98 1313.34 404.95 1313.34 406.05C1313.34 407.15 1313.57 408.13 1314.03 408.99C1314.51 409.83 1315.15 410.49 1315.95 410.97C1316.77 411.43 1317.69 411.66 1318.71 411.66ZM1335.11 400.77C1335.61 399.85 1336.35 399.15 1337.33 398.67C1338.31 398.19 1339.5 397.95 1340.9 397.95V400.74C1340.74 400.72 1340.52 400.71 1340.24 400.71C1338.68 400.71 1337.45 401.18 1336.55 402.12C1335.67 403.04 1335.23 404.36 1335.23 406.08V414H1332.35V398.1H1335.11V400.77ZM1358.67 406.14C1358.67 406.36 1358.65 406.65 1358.61 407.01H1345.71C1345.89 408.41 1346.5 409.54 1347.54 410.4C1348.6 411.24 1349.91 411.66 1351.47 411.66C1353.37 411.66 1354.9 411.02 1356.06 409.74L1357.65 411.6C1356.93 412.44 1356.03 413.08 1354.95 413.52C1353.89 413.96 1352.7 414.18 1351.38 414.18C1349.7 414.18 1348.21 413.84 1346.91 413.16C1345.61 412.46 1344.6 411.49 1343.88 410.25C1343.18 409.01 1342.83 407.61 1342.83 406.05C1342.83 404.51 1343.17 403.12 1343.85 401.88C1344.55 400.64 1345.5 399.68 1346.7 399C1347.92 398.3 1349.29 397.95 1350.81 397.95C1352.33 397.95 1353.68 398.3 1354.86 399C1356.06 399.68 1356.99 400.64 1357.65 401.88C1358.33 403.12 1358.67 404.54 1358.67 406.14ZM1350.81 400.38C1349.43 400.38 1348.27 400.8 1347.33 401.64C1346.41 402.48 1345.87 403.58 1345.71 404.94H1355.91C1355.75 403.6 1355.2 402.51 1354.26 401.67C1353.34 400.81 1352.19 400.38 1350.81 400.38ZM1367.23 414.18C1365.93 414.18 1364.68 414.01 1363.48 413.67C1362.28 413.31 1361.34 412.86 1360.66 412.32L1361.86 410.04C1362.56 410.54 1363.41 410.94 1364.41 411.24C1365.41 411.54 1366.42 411.69 1367.44 411.69C1369.96 411.69 1371.22 410.97 1371.22 409.53C1371.22 409.05 1371.05 408.67 1370.71 408.39C1370.37 408.11 1369.94 407.91 1369.42 407.79C1368.92 407.65 1368.2 407.5 1367.26 407.34C1365.98 407.14 1364.93 406.91 1364.11 406.65C1363.31 406.39 1362.62 405.95 1362.04 405.33C1361.46 404.71 1361.17 403.84 1361.17 402.72C1361.17 401.28 1361.77 400.13 1362.97 399.27C1364.17 398.39 1365.78 397.95 1367.8 397.95C1368.86 397.95 1369.92 398.08 1370.98 398.34C1372.04 398.6 1372.91 398.95 1373.59 399.39L1372.36 401.67C1371.06 400.83 1369.53 400.41 1367.77 400.41C1366.55 400.41 1365.62 400.61 1364.98 401.01C1364.34 401.41 1364.02 401.94 1364.02 402.6C1364.02 403.12 1364.2 403.53 1364.56 403.83C1364.92 404.13 1365.36 404.35 1365.88 404.49C1366.42 404.63 1367.17 404.79 1368.13 404.97C1369.41 405.19 1370.44 405.43 1371.22 405.69C1372.02 405.93 1372.7 406.35 1373.26 406.95C1373.82 407.55 1374.1 408.39 1374.1 409.47C1374.1 410.91 1373.48 412.06 1372.24 412.92C1371.02 413.76 1369.35 414.18 1367.23 414.18ZM1382.26 414.18C1380.96 414.18 1379.71 414.01 1378.51 413.67C1377.31 413.31 1376.37 412.86 1375.69 412.32L1376.89 410.04C1377.59 410.54 1378.44 410.94 1379.44 411.24C1380.44 411.54 1381.45 411.69 1382.47 411.69C1384.99 411.69 1386.25 410.97 1386.25 409.53C1386.25 409.05 1386.08 408.67 1385.74 408.39C1385.4 408.11 1384.97 407.91 1384.45 407.79C1383.95 407.65 1383.23 407.5 1382.29 407.34C1381.01 407.14 1379.96 406.91 1379.14 406.65C1378.34 406.39 1377.65 405.95 1377.07 405.33C1376.49 404.71 1376.2 403.84 1376.2 402.72C1376.2 401.28 1376.8 400.13 1378 399.27C1379.2 398.39 1380.81 397.95 1382.83 397.95C1383.89 397.95 1384.95 398.08 1386.01 398.34C1387.07 398.6 1387.94 398.95 1388.62 399.39L1387.39 401.67C1386.09 400.83 1384.56 400.41 1382.8 400.41C1381.58 400.41 1380.65 400.61 1380.01 401.01C1379.37 401.41 1379.05 401.94 1379.05 402.6C1379.05 403.12 1379.23 403.53 1379.59 403.83C1379.95 404.13 1380.39 404.35 1380.91 404.49C1381.45 404.63 1382.2 404.79 1383.16 404.97C1384.44 405.19 1385.47 405.43 1386.25 405.69C1387.05 405.93 1387.73 406.35 1388.29 406.95C1388.85 407.55 1389.13 408.39 1389.13 409.47C1389.13 410.91 1388.51 412.06 1387.27 412.92C1386.05 413.76 1384.38 414.18 1382.26 414.18Z" fill="#000839"/>
<path opacity="0.3" d="M1254.45 523C1257.17 523 1259.31 523.65 1260.87 524.95C1262.43 526.25 1263.21 528.04 1263.21 530.32C1263.21 532.6 1262.43 534.39 1260.87 535.69C1259.31 536.99 1257.17 537.64 1254.45 537.64H1249.26V544H1246.26V523H1254.45ZM1254.36 535.03C1256.26 535.03 1257.71 534.63 1258.71 533.83C1259.71 533.01 1260.21 531.84 1260.21 530.32C1260.21 528.8 1259.71 527.64 1258.71 526.84C1257.71 526.02 1256.26 525.61 1254.36 525.61H1249.26V535.03H1254.36ZM1272.84 527.95C1275.04 527.95 1276.72 528.49 1277.88 529.57C1279.06 530.65 1279.65 532.26 1279.65 534.4V544H1276.92V541.9C1276.44 542.64 1275.75 543.21 1274.85 543.61C1273.97 543.99 1272.92 544.18 1271.7 544.18C1269.92 544.18 1268.49 543.75 1267.41 542.89C1266.35 542.03 1265.82 540.9 1265.82 539.5C1265.82 538.1 1266.33 536.98 1267.35 536.14C1268.37 535.28 1269.99 534.85 1272.21 534.85H1276.77V534.28C1276.77 533.04 1276.41 532.09 1275.69 531.43C1274.97 530.77 1273.91 530.44 1272.51 530.44C1271.57 530.44 1270.65 530.6 1269.75 530.92C1268.85 531.22 1268.09 531.63 1267.47 532.15L1266.27 529.99C1267.09 529.33 1268.07 528.83 1269.21 528.49C1270.35 528.13 1271.56 527.95 1272.84 527.95ZM1272.18 541.96C1273.28 541.96 1274.23 541.72 1275.03 541.24C1275.83 540.74 1276.41 540.04 1276.77 539.14V536.92H1272.33C1269.89 536.92 1268.67 537.74 1268.67 539.38C1268.67 540.18 1268.98 540.81 1269.6 541.27C1270.22 541.73 1271.08 541.96 1272.18 541.96ZM1289.54 544.18C1288.24 544.18 1286.99 544.01 1285.79 543.67C1284.59 543.31 1283.65 542.86 1282.97 542.32L1284.17 540.04C1284.87 540.54 1285.72 540.94 1286.72 541.24C1287.72 541.54 1288.73 541.69 1289.75 541.69C1292.27 541.69 1293.53 540.97 1293.53 539.53C1293.53 539.05 1293.36 538.67 1293.02 538.39C1292.68 538.11 1292.25 537.91 1291.73 537.79C1291.23 537.65 1290.51 537.5 1289.57 537.34C1288.29 537.14 1287.24 536.91 1286.42 536.65C1285.62 536.39 1284.93 535.95 1284.35 535.33C1283.77 534.71 1283.48 533.84 1283.48 532.72C1283.48 531.28 1284.08 530.13 1285.28 529.27C1286.48 528.39 1288.09 527.95 1290.11 527.95C1291.17 527.95 1292.23 528.08 1293.29 528.34C1294.35 528.6 1295.22 528.95 1295.9 529.39L1294.67 531.67C1293.37 530.83 1291.84 530.41 1290.08 530.41C1288.86 530.41 1287.93 530.61 1287.29 531.01C1286.65 531.41 1286.33 531.94 1286.33 532.6C1286.33 533.12 1286.51 533.53 1286.87 533.83C1287.23 534.13 1287.67 534.35 1288.19 534.49C1288.73 534.63 1289.48 534.79 1290.44 534.97C1291.72 535.19 1292.75 535.43 1293.53 535.69C1294.33 535.93 1295.01 536.35 1295.57 536.95C1296.13 537.55 1296.41 538.39 1296.41 539.47C1296.41 540.91 1295.79 542.06 1294.55 542.92C1293.33 543.76 1291.66 544.18 1289.54 544.18ZM1304.57 544.18C1303.27 544.18 1302.02 544.01 1300.82 543.67C1299.62 543.31 1298.68 542.86 1298 542.32L1299.2 540.04C1299.9 540.54 1300.75 540.94 1301.75 541.24C1302.75 541.54 1303.76 541.69 1304.78 541.69C1307.3 541.69 1308.56 540.97 1308.56 539.53C1308.56 539.05 1308.39 538.67 1308.05 538.39C1307.71 538.11 1307.28 537.91 1306.76 537.79C1306.26 537.65 1305.54 537.5 1304.6 537.34C1303.32 537.14 1302.27 536.91 1301.45 536.65C1300.65 536.39 1299.96 535.95 1299.38 535.33C1298.8 534.71 1298.51 533.84 1298.51 532.72C1298.51 531.28 1299.11 530.13 1300.31 529.27C1301.51 528.39 1303.12 527.95 1305.14 527.95C1306.2 527.95 1307.26 528.08 1308.32 528.34C1309.38 528.6 1310.25 528.95 1310.93 529.39L1309.7 531.67C1308.4 530.83 1306.87 530.41 1305.11 530.41C1303.89 530.41 1302.96 530.61 1302.32 531.01C1301.68 531.41 1301.36 531.94 1301.36 532.6C1301.36 533.12 1301.54 533.53 1301.9 533.83C1302.26 534.13 1302.7 534.35 1303.22 534.49C1303.76 534.63 1304.51 534.79 1305.47 534.97C1306.75 535.19 1307.78 535.43 1308.56 535.69C1309.36 535.93 1310.04 536.35 1310.6 536.95C1311.16 537.55 1311.44 538.39 1311.44 539.47C1311.44 540.91 1310.82 542.06 1309.58 542.92C1308.36 543.76 1306.69 544.18 1304.57 544.18ZM1338.8 528.1L1332.86 544H1330.1L1325.51 531.94L1320.86 544H1318.1L1312.19 528.1H1314.92L1319.54 540.76L1324.34 528.1H1326.77L1331.48 540.82L1336.22 528.1H1338.8ZM1348.09 544.18C1346.51 544.18 1345.09 543.83 1343.83 543.13C1342.57 542.43 1341.58 541.47 1340.86 540.25C1340.16 539.01 1339.81 537.61 1339.81 536.05C1339.81 534.49 1340.16 533.1 1340.86 531.88C1341.58 530.64 1342.57 529.68 1343.83 529C1345.09 528.3 1346.51 527.95 1348.09 527.95C1349.67 527.95 1351.08 528.3 1352.32 529C1353.58 529.68 1354.56 530.64 1355.26 531.88C1355.98 533.1 1356.34 534.49 1356.34 536.05C1356.34 537.61 1355.98 539.01 1355.26 540.25C1354.56 541.47 1353.58 542.43 1352.32 543.13C1351.08 543.83 1349.67 544.18 1348.09 544.18ZM1348.09 541.66C1349.11 541.66 1350.02 541.43 1350.82 540.97C1351.64 540.49 1352.28 539.83 1352.74 538.99C1353.2 538.13 1353.43 537.15 1353.43 536.05C1353.43 534.95 1353.2 533.98 1352.74 533.14C1352.28 532.28 1351.64 531.62 1350.82 531.16C1350.02 530.7 1349.11 530.47 1348.09 530.47C1347.07 530.47 1346.15 530.7 1345.33 531.16C1344.53 531.62 1343.89 532.28 1343.41 533.14C1342.95 533.98 1342.72 534.95 1342.72 536.05C1342.72 537.15 1342.95 538.13 1343.41 538.99C1343.89 539.83 1344.53 540.49 1345.33 540.97C1346.15 541.43 1347.07 541.66 1348.09 541.66ZM1363.09 530.77C1363.59 529.85 1364.33 529.15 1365.31 528.67C1366.29 528.19 1367.48 527.95 1368.88 527.95V530.74C1368.72 530.72 1368.5 530.71 1368.22 530.71C1366.66 530.71 1365.43 531.18 1364.53 532.12C1363.65 533.04 1363.21 534.36 1363.21 536.08V544H1360.33V528.1H1363.09V530.77ZM1387.28 521.74V544H1384.52V541.48C1383.88 542.36 1383.07 543.03 1382.09 543.49C1381.11 543.95 1380.03 544.18 1378.85 544.18C1377.31 544.18 1375.93 543.84 1374.71 543.16C1373.49 542.48 1372.53 541.53 1371.83 540.31C1371.15 539.07 1370.81 537.65 1370.81 536.05C1370.81 534.45 1371.15 533.04 1371.83 531.82C1372.53 530.6 1373.49 529.65 1374.71 528.97C1375.93 528.29 1377.31 527.95 1378.85 527.95C1379.99 527.95 1381.04 528.17 1382 528.61C1382.96 529.03 1383.76 529.66 1384.4 530.5V521.74H1387.28ZM1379.09 541.66C1380.09 541.66 1381 541.43 1381.82 540.97C1382.64 540.49 1383.28 539.83 1383.74 538.99C1384.2 538.13 1384.43 537.15 1384.43 536.05C1384.43 534.95 1384.2 533.98 1383.74 533.14C1383.28 532.28 1382.64 531.62 1381.82 531.16C1381 530.7 1380.09 530.47 1379.09 530.47C1378.07 530.47 1377.15 530.7 1376.33 531.16C1375.53 531.62 1374.89 532.28 1374.41 533.14C1373.95 533.98 1373.72 534.95 1373.72 536.05C1373.72 537.15 1373.95 538.13 1374.41 538.99C1374.89 539.83 1375.53 540.49 1376.33 540.97C1377.15 541.43 1378.07 541.66 1379.09 541.66Z" fill="#000839"/>
<path d="M891.167 391.833H867.833C866.229 391.833 864.931 393.146 864.931 394.75L864.917 412.25C864.917 413.854 866.229 415.167 867.833 415.167H891.167C892.771 415.167 894.083 413.854 894.083 412.25V394.75C894.083 393.146 892.771 391.833 891.167 391.833ZM891.167 397.667L879.5 404.958L867.833 397.667V394.75L879.5 402.042L891.167 394.75V397.667Z" fill="#F5A328"/>
<path d="M879.5 522.562C872.208 522.562 865.981 527.098 863.458 533.5C865.981 539.902 872.208 544.438 879.5 544.438C886.792 544.438 893.019 539.902 895.542 533.5C893.019 527.098 886.792 522.562 879.5 522.562ZM879.5 540.792C875.475 540.792 872.208 537.525 872.208 533.5C872.208 529.475 875.475 526.208 879.5 526.208C883.525 526.208 886.792 529.475 886.792 533.5C886.792 537.525 883.525 540.792 879.5 540.792ZM879.5 529.125C877.079 529.125 875.125 531.079 875.125 533.5C875.125 535.921 877.079 537.875 879.5 537.875C881.921 537.875 883.875 535.921 883.875 533.5C883.875 531.079 881.921 529.125 879.5 529.125Z" fill="#F5A328"/>
<g filter="url(#filter21_d)">
<path d="M480.639 770.952L474.929 761.725C476.774 756.932 478.888 752.248 481.26 747.693L485.009 750.848L482.086 746.124C485.075 740.521 487.41 737 487.41 737C487.41 737 498.854 755.863 502.406 775.663L494.608 787.199L503.116 780.605C503.368 782.908 503.475 785.225 503.436 787.541C502.966 810.897 494.957 829.676 485.548 829.487C476.139 829.298 468.892 810.211 469.362 786.856C469.508 779.615 471.298 772.073 473.699 765.112L480.639 770.952Z" fill="#E6E6E6"/>
</g>
<g filter="url(#filter22_d)">
<path d="M454.801 781.252L445.144 776.305C444.246 771.248 443.634 766.145 443.31 761.02L448.15 761.783L443.206 759.25C442.869 752.909 443.047 748.688 443.047 748.688C443.047 748.688 462.595 758.92 475.87 774.033L475.157 787.939L479.032 777.897C480.439 779.738 481.728 781.666 482.892 783.669C494.562 803.905 497.413 824.121 489.26 828.823C481.108 833.525 465.038 820.931 453.368 800.695C449.75 794.422 447.385 787.04 445.841 779.84L454.801 781.252Z" fill="#E6E6E6"/>
</g>
<g filter="url(#filter23_d)">
<path d="M503.292 855.94C492.164 856.652 480.039 855.899 467.14 855.94V826.408C478.506 828.177 490.627 827.996 503.292 826.408V855.94Z" fill="#E6E6E6"/>
</g>
<path d="M290.785 634.571C290.802 634.503 290.841 634.442 290.895 634.398C290.95 634.354 291.018 634.328 291.088 634.326C291.158 634.324 291.227 634.345 291.285 634.385C291.342 634.426 291.385 634.484 291.406 634.551L292.8 638.943L294.469 644.205C294.493 644.281 294.488 644.365 294.454 644.438C294.42 644.511 294.36 644.569 294.286 644.6L291.059 645.944L288.224 647.126C288.169 647.149 288.108 647.156 288.05 647.147C287.991 647.137 287.935 647.112 287.89 647.073C287.845 647.034 287.811 646.983 287.793 646.926C287.775 646.87 287.772 646.809 287.787 646.751L289.338 640.452L290.785 634.571Z" fill="#E6E6E6"/>
<path d="M285.609 667.319C285.637 667.206 285.701 667.106 285.791 667.033C285.881 666.96 285.993 666.918 286.108 666.914C286.224 666.911 286.339 666.945 286.433 667.012C286.528 667.079 286.598 667.175 286.633 667.285L287.802 670.967L289.413 676.045C289.453 676.172 289.444 676.31 289.388 676.43C289.332 676.551 289.233 676.646 289.11 676.698L286.061 677.968L283.61 678.99C283.519 679.028 283.419 679.04 283.322 679.024C283.224 679.009 283.133 678.967 283.058 678.903C282.984 678.838 282.928 678.755 282.898 678.661C282.868 678.567 282.864 678.467 282.888 678.371L284.34 672.476L285.609 667.319Z" fill="#E6E6E6"/>
<path d="M341.6 695.052C341.6 698.066 340.25 701.062 338.597 701.739C336.96 702.41 335.642 700.546 335.642 697.58C335.642 694.614 336.96 691.631 338.597 690.913C340.25 690.188 341.6 692.038 341.6 695.052Z" fill="#F2F2F2"/>
<path d="M339.598 695.901C339.598 696.906 339.149 697.908 338.597 698.14C338.047 698.371 337.602 697.748 337.602 696.748C337.602 695.749 338.047 694.748 338.597 694.512C339.149 694.275 339.598 694.897 339.598 695.901Z" fill="white"/>
<path d="M293.61 696.344C293.637 696.231 293.701 696.131 293.791 696.058C293.881 695.984 293.993 695.943 294.109 695.939C294.225 695.935 294.339 695.969 294.434 696.036C294.529 696.103 294.599 696.199 294.634 696.31L295.802 699.992L297.413 705.07C297.454 705.197 297.445 705.334 297.389 705.455C297.333 705.576 297.234 705.671 297.111 705.722L294.062 706.993L291.61 708.014C291.519 708.052 291.42 708.064 291.322 708.049C291.225 708.033 291.134 707.991 291.059 707.927C290.984 707.863 290.929 707.779 290.899 707.686C290.868 707.592 290.865 707.491 290.889 707.396L292.34 701.5L293.61 696.344Z" fill="#E6E6E6"/>
<path d="M273.295 690.187L277.951 685.892C277.951 685.892 288.49 678.633 284.809 674.642C281.128 670.651 273.708 679.957 273.708 679.957L269.103 682.973L273.295 690.187Z" fill="#A0616A"/>
<g filter="url(#filter24_d)">
<path d="M211.737 692.185L209.025 695.918C209.025 695.918 205.235 710.494 224.415 711.268C224.415 711.268 248.911 723.143 254.975 715.703C261.039 708.263 277.77 690.368 277.77 690.368L267.928 680.365L247.87 701.328L228.412 691.578C228.412 691.578 218.389 686.05 211.737 692.185Z" fill="#000839"/>
</g>
<g filter="url(#filter25_d)">
<path d="M201.396 761L176 854.564L179.199 855.204L205.874 761H201.396Z" fill="white"/>
</g>
<path d="M229.76 761.353L255.155 854.917L251.956 855.558L225.281 761.353H229.76Z" fill="#666666"/>
<g filter="url(#filter26_d)">
<path d="M212.41 759.433L216.668 855.074L220.367 855.238L215.609 758.153L212.41 759.433Z" fill="white"/>
</g>
<g filter="url(#filter27_d)">
<path d="M224.247 757.92C224.247 760.346 217.607 762.95 208.891 763.787C199.536 764.685 191.434 763.227 191.434 760.47C191.434 757.712 199.536 754.995 208.891 754.44C217.607 753.922 224.247 755.494 224.247 757.92Z" fill="white"/>
</g>
<path d="M233.526 741.517L239.924 745.996C239.924 745.996 267.438 765.832 264.879 773.51C262.319 781.189 248.242 811.902 248.242 811.902L230.326 806.143L250.802 773.51L239.924 763.272L234.165 749.195L233.526 741.517Z" fill="#000839"/>
<path d="M208.571 729.999C208.571 729.999 195.773 749.835 203.452 755.594C211.13 761.353 232.886 783.748 232.886 783.748L237.365 793.986L253.361 845.815L273.197 835.577L255.281 795.266C255.281 795.266 253.361 780.549 246.963 772.23C240.564 763.912 238.005 751.755 238.005 751.755L239.924 745.996L228.467 727.664L208.571 729.999Z" fill="#000839"/>
<path d="M243.368 808.235L231.868 804.735C231.868 804.735 219.448 804.224 220.088 808.703C220.728 813.182 230.966 842.616 234.165 840.696C237.365 838.776 234.805 829.818 234.805 829.818L243.368 808.235Z" fill="black"/>
<path d="M217.849 667.613L211.45 674.651L221.688 691.288L226.167 678.49L217.849 667.613Z" fill="#A0616A"/>
<path d="M223.928 692.247L212.563 673.427L208.571 674.331V680.73L207.291 734.478L228.407 731.279C228.407 731.279 229.686 696.726 223.928 692.247Z" fill="white"/>
<path d="M218.169 691.607L208.571 674.331L200.253 678.17L185.536 738.318L176.577 755.594C176.577 755.594 206.011 770.311 213.05 755.594C220.088 740.877 220.728 708.244 220.728 708.244L218.169 691.607Z" fill="#000839"/>
<path d="M204.092 680.73L200.253 678.17C200.253 678.17 185.536 674.971 185.536 694.167C185.536 694.167 174.658 719.122 182.336 724.88C190.015 730.639 208.571 746.636 208.571 746.636L218.169 736.398L196.413 717.202L205.371 697.366C205.371 697.366 210.49 687.128 204.092 680.73Z" fill="#000839"/>
<path d="M208.571 742.157L213.05 746.636C213.05 746.636 220.728 756.874 224.567 753.035C228.407 749.195 218.809 742.157 218.809 742.157L215.609 737.678L208.571 742.157Z" fill="#A0616A"/>
<path d="M223.186 686.44L234.165 713.363C234.165 713.363 238.644 726.8 238.644 731.919V745.996L226.487 729.999C226.487 729.999 219.884 688.312 223.186 686.44Z" fill="#000839"/>
<path d="M258.144 840.712C258.144 840.712 254.974 853.193 259.134 854.25C263.295 855.306 298.201 856.2 298.223 850.301C298.246 844.402 275.569 839.528 275.569 839.528L267.191 834.153L258.144 840.712Z" fill="black"/>
<path d="M225.847 679.45C232.208 679.45 237.365 674.293 237.365 667.932C237.365 661.571 232.208 656.415 225.847 656.415C219.486 656.415 214.33 661.571 214.33 667.932C214.33 674.293 219.486 679.45 225.847 679.45Z" fill="#A0616A"/>
<path d="M238.129 665.864C238.129 665.864 240.378 656.115 238.129 653.866V655.365C238.129 655.365 236.629 650.116 233.629 651.616C233.629 651.616 229.88 648.616 229.13 650.116C224.717 646.127 205.152 649.867 214.649 670.812C214.649 670.812 216.381 664.364 216.381 666.614C216.381 666.614 220.881 662.115 221.631 660.615C222.381 659.115 235.129 668.864 238.129 665.864Z" fill="black"/>
</g>
<defs>
<filter id="filter0_d" x="-100" y="-18" width="841.242" height="1064" filterUnits="userSpaceOnUse" color-interpolation-filters="sRGB">
<feFlood flood-opacity="0" result="BackgroundImageFix"/>
<feColorMatrix in="SourceAlpha" type="matrix" values="0 0 0 0 0 0 0 0 0 0 0 0 0 0 0 0 0 0 127 0"/>
<feOffset dx="4" dy="4"/>
<feGaussianBlur stdDeviation="10"/>
<feColorMatrix type="matrix" values="0 0 0 0 0 0 0 0 0 0 0 0 0 0 0 0 0 0 0.25 0"/>
<feBlend mode="normal" in2="BackgroundImageFix" result="effect1_dropShadow"/>
<feBlend mode="normal" in="SourceGraphic" in2="effect1_dropShadow" result="shape"/>
</filter>
<filter id="filter1_d" x="466.5" y="207" width="122.135" height="63.0251" filterUnits="userSpaceOnUse" color-interpolation-filters="sRGB">
<feFlood flood-opacity="0" result="BackgroundImageFix"/>
<feColorMatrix in="SourceAlpha" type="matrix" values="0 0 0 0 0 0 0 0 0 0 0 0 0 0 0 0 0 0 127 0"/>
<feOffset dy="4"/>
<feGaussianBlur stdDeviation="2"/>
<feColorMatrix type="matrix" values="0 0 0 0 0 0 0 0 0 0 0 0 0 0 0 0 0 0 0.25 0"/>
<feBlend mode="normal" in2="BackgroundImageFix" result="effect1_dropShadow"/>
<feBlend mode="normal" in="SourceGraphic" in2="effect1_dropShadow" result="shape"/>
</filter>
<filter id="filter2_d" x="80" y="207" width="122.135" height="63.0251" filterUnits="userSpaceOnUse" color-interpolation-filters="sRGB">
<feFlood flood-opacity="0" result="BackgroundImageFix"/>
<feColorMatrix in="SourceAlpha" type="matrix" values="0 0 0 0 0 0 0 0 0 0 0 0 0 0 0 0 0 0 127 0"/>
<feOffset dy="4"/>
<feGaussianBlur stdDeviation="2"/>
<feColorMatrix type="matrix" values="0 0 0 0 0 0 0 0 0 0 0 0 0 0 0 0 0 0 0.25 0"/>
<feBlend mode="normal" in2="BackgroundImageFix" result="effect1_dropShadow"/>
<feBlend mode="normal" in="SourceGraphic" in2="effect1_dropShadow" result="shape"/>
</filter>
<filter id="filter3_d" x="150.5" y="147" width="58" height="32" filterUnits="userSpaceOnUse" color-interpolation-filters="sRGB">
<feFlood flood-opacity="0" result="BackgroundImageFix"/>
<feColorMatrix in="SourceAlpha" type="matrix" values="0 0 0 0 0 0 0 0 0 0 0 0 0 0 0 0 0 0 127 0"/>
<feOffset dy="4"/>
<feGaussianBlur stdDeviation="2"/>
<feColorMatrix type="matrix" values="0 0 0 0 0 0 0 0 0 0 0 0 0 0 0 0 0 0 0.25 0"/>
<feBlend mode="normal" in2="BackgroundImageFix" result="effect1_dropShadow"/>
<feBlend mode="normal" in="SourceGraphic" in2="effect1_dropShadow" result="shape"/>
</filter>
<filter id="filter4_d" x="306" y="259" width="129.648" height="76.8895" filterUnits="userSpaceOnUse" color-interpolation-filters="sRGB">
<feFlood flood-opacity="0" result="BackgroundImageFix"/>
<feColorMatrix in="SourceAlpha" type="matrix" values="0 0 0 0 0 0 0 0 0 0 0 0 0 0 0 0 0 0 127 0"/>
<feOffset dy="4"/>
<feGaussianBlur stdDeviation="2"/>
<feColorMatrix type="matrix" values="0 0 0 0 0 0 0 0 0 0 0 0 0 0 0 0 0 0 0.25 0"/>
<feBlend mode="normal" in2="BackgroundImageFix" result="effect1_dropShadow"/>
<feBlend mode="normal" in="SourceGraphic" in2="effect1_dropShadow" result="shape"/>
</filter>
<filter id="filter5_d" x="223.8" y="447.901" width="279.053" height="405.189" filterUnits="userSpaceOnUse" color-interpolation-filters="sRGB">
<feFlood flood-opacity="0" result="BackgroundImageFix"/>
<feColorMatrix in="SourceAlpha" type="matrix" values="0 0 0 0 0 0 0 0 0 0 0 0 0 0 0 0 0 0 127 0"/>
<feOffset dy="4"/>
<feGaussianBlur stdDeviation="5"/>
<feColorMatrix type="matrix" values="0 0 0 0 0 0 0 0 0 0 0 0 0 0 0 0 0 0 0.25 0"/>
<feBlend mode="normal" in2="BackgroundImageFix" result="effect1_dropShadow"/>
<feBlend mode="normal" in="SourceGraphic" in2="effect1_dropShadow" result="shape"/>
</filter>
<filter id="filter6_d" x="254.892" y="488.487" width="219.584" height="81.2387" filterUnits="userSpaceOnUse" color-interpolation-filters="sRGB">
<feFlood flood-opacity="0" result="BackgroundImageFix"/>
<feColorMatrix in="SourceAlpha" type="matrix" values="0 0 0 0 0 0 0 0 0 0 0 0 0 0 0 0 0 0 127 0"/>
<feOffset dy="4"/>
<feGaussianBlur stdDeviation="2"/>
<feColorMatrix type="matrix" values="0 0 0 0 0 0 0 0 0 0 0 0 0 0 0 0 0 0 0.25 0"/>
<feBlend mode="normal" in2="BackgroundImageFix" result="effect1_dropShadow"/>
<feBlend mode="normal" in="SourceGraphic" in2="effect1_dropShadow" result="shape"/>
</filter>
<filter id="filter7_d" x="260.994" y="594.277" width="50.724" height="55.4685" filterUnits="userSpaceOnUse" color-interpolation-filters="sRGB">
<feFlood flood-opacity="0" result="BackgroundImageFix"/>
<feColorMatrix in="SourceAlpha" type="matrix" values="0 0 0 0 0 0 0 0 0 0 0 0 0 0 0 0 0 0 127 0"/>
<feOffset dy="4"/>
<feGaussianBlur stdDeviation="2"/>
<feColorMatrix type="matrix" values="0 0 0 0 0 0 0 0 0 0 0 0 0 0 0 0 0 0 0.25 0"/>
<feBlend mode="normal" in2="BackgroundImageFix" result="effect1_dropShadow"/>
<feBlend mode="normal" in="SourceGraphic" in2="effect1_dropShadow" result="shape"/>
</filter>
<filter id="filter8_d" x="313.213" y="594.277" width="50.7241" height="55.4685" filterUnits="userSpaceOnUse" color-interpolation-filters="sRGB">
<feFlood flood-opacity="0" result="BackgroundImageFix"/>
<feColorMatrix in="SourceAlpha" type="matrix" values="0 0 0 0 0 0 0 0 0 0 0 0 0 0 0 0 0 0 127 0"/>
<feOffset dy="4"/>
<feGaussianBlur stdDeviation="2"/>
<feColorMatrix type="matrix" values="0 0 0 0 0 0 0 0 0 0 0 0 0 0 0 0 0 0 0.25 0"/>
<feBlend mode="normal" in2="BackgroundImageFix" result="effect1_dropShadow"/>
<feBlend mode="normal" in="SourceGraphic" in2="effect1_dropShadow" result="shape"/>
</filter>
<filter id="filter9_d" x="365.432" y="594.277" width="50.7241" height="55.4685" filterUnits="userSpaceOnUse" color-interpolation-filters="sRGB">
<feFlood flood-opacity="0" result="BackgroundImageFix"/>
<feColorMatrix in="SourceAlpha" type="matrix" values="0 0 0 0 0 0 0 0 0 0 0 0 0 0 0 0 0 0 127 0"/>
<feOffset dy="4"/>
<feGaussianBlur stdDeviation="2"/>
<feColorMatrix type="matrix" values="0 0 0 0 0 0 0 0 0 0 0 0 0 0 0 0 0 0 0.25 0"/>
<feBlend mode="normal" in2="BackgroundImageFix" result="effect1_dropShadow"/>
<feBlend mode="normal" in="SourceGraphic" in2="effect1_dropShadow" result="shape"/>
</filter>
<filter id="filter10_d" x="417.651" y="594.277" width="50.7241" height="55.4685" filterUnits="userSpaceOnUse" color-interpolation-filters="sRGB">
<feFlood flood-opacity="0" result="BackgroundImageFix"/>
<feColorMatrix in="SourceAlpha" type="matrix" values="0 0 0 0 0 0 0 0 0 0 0 0 0 0 0 0 0 0 127 0"/>
<feOffset dy="4"/>
<feGaussianBlur stdDeviation="2"/>
<feColorMatrix type="matrix" values="0 0 0 0 0 0 0 0 0 0 0 0 0 0 0 0 0 0 0.25 0"/>
<feBlend mode="normal" in2="BackgroundImageFix" result="effect1_dropShadow"/>
<feBlend mode="normal" in="SourceGraphic" in2="effect1_dropShadow" result="shape"/>
</filter>
<filter id="filter11_d" x="260.994" y="646.496" width="50.724" height="55.4685" filterUnits="userSpaceOnUse" color-interpolation-filters="sRGB">
<feFlood flood-opacity="0" result="BackgroundImageFix"/>
<feColorMatrix in="SourceAlpha" type="matrix" values="0 0 0 0 0 0 0 0 0 0 0 0 0 0 0 0 0 0 127 0"/>
<feOffset dy="4"/>
<feGaussianBlur stdDeviation="2"/>
<feColorMatrix type="matrix" values="0 0 0 0 0 0 0 0 0 0 0 0 0 0 0 0 0 0 0.25 0"/>
<feBlend mode="normal" in2="BackgroundImageFix" result="effect1_dropShadow"/>
<feBlend mode="normal" in="SourceGraphic" in2="effect1_dropShadow" result="shape"/>
</filter>
<filter id="filter12_d" x="313.213" y="646.496" width="50.7241" height="55.4685" filterUnits="userSpaceOnUse" color-interpolation-filters="sRGB">
<feFlood flood-opacity="0" result="BackgroundImageFix"/>
<feColorMatrix in="SourceAlpha" type="matrix" values="0 0 0 0 0 0 0 0 0 0 0 0 0 0 0 0 0 0 127 0"/>
<feOffset dy="4"/>
<feGaussianBlur stdDeviation="2"/>
<feColorMatrix type="matrix" values="0 0 0 0 0 0 0 0 0 0 0 0 0 0 0 0 0 0 0.25 0"/>
<feBlend mode="normal" in2="BackgroundImageFix" result="effect1_dropShadow"/>
<feBlend mode="normal" in="SourceGraphic" in2="effect1_dropShadow" result="shape"/>
</filter>
<filter id="filter13_d" x="365.432" y="646.496" width="50.7241" height="55.4685" filterUnits="userSpaceOnUse" color-interpolation-filters="sRGB">
<feFlood flood-opacity="0" result="BackgroundImageFix"/>
<feColorMatrix in="SourceAlpha" type="matrix" values="0 0 0 0 0 0 0 0 0 0 0 0 0 0 0 0 0 0 127 0"/>
<feOffset dy="4"/>
<feGaussianBlur stdDeviation="2"/>
<feColorMatrix type="matrix" values="0 0 0 0 0 0 0 0 0 0 0 0 0 0 0 0 0 0 0.25 0"/>
<feBlend mode="normal" in2="BackgroundImageFix" result="effect1_dropShadow"/>
<feBlend mode="normal" in="SourceGraphic" in2="effect1_dropShadow" result="shape"/>
</filter>
<filter id="filter14_d" x="260.994" y="704.138" width="50.724" height="55.4685" filterUnits="userSpaceOnUse" color-interpolation-filters="sRGB">
<feFlood flood-opacity="0" result="BackgroundImageFix"/>
<feColorMatrix in="SourceAlpha" type="matrix" values="0 0 0 0 0 0 0 0 0 0 0 0 0 0 0 0 0 0 127 0"/>
<feOffset dy="4"/>
<feGaussianBlur stdDeviation="2"/>
<feColorMatrix type="matrix" values="0 0 0 0 0 0 0 0 0 0 0 0 0 0 0 0 0 0 0.25 0"/>
<feBlend mode="normal" in2="BackgroundImageFix" result="effect1_dropShadow"/>
<feBlend mode="normal" in="SourceGraphic" in2="effect1_dropShadow" result="shape"/>
</filter>
<filter id="filter15_d" x="313.213" y="704.138" width="50.7241" height="55.4685" filterUnits="userSpaceOnUse" color-interpolation-filters="sRGB">
<feFlood flood-opacity="0" result="BackgroundImageFix"/>
<feColorMatrix in="SourceAlpha" type="matrix" values="0 0 0 0 0 0 0 0 0 0 0 0 0 0 0 0 0 0 127 0"/>
<feOffset dy="4"/>
<feGaussianBlur stdDeviation="2"/>
<feColorMatrix type="matrix" values="0 0 0 0 0 0 0 0 0 0 0 0 0 0 0 0 0 0 0.25 0"/>
<feBlend mode="normal" in2="BackgroundImageFix" result="effect1_dropShadow"/>
<feBlend mode="normal" in="SourceGraphic" in2="effect1_dropShadow" result="shape"/>
</filter>
<filter id="filter16_d" x="365.432" y="704.138" width="50.7241" height="55.4685" filterUnits="userSpaceOnUse" color-interpolation-filters="sRGB">
<feFlood flood-opacity="0" result="BackgroundImageFix"/>
<feColorMatrix in="SourceAlpha" type="matrix" values="0 0 0 0 0 0 0 0 0 0 0 0 0 0 0 0 0 0 127 0"/>
<feOffset dy="4"/>
<feGaussianBlur stdDeviation="2"/>
<feColorMatrix type="matrix" values="0 0 0 0 0 0 0 0 0 0 0 0 0 0 0 0 0 0 0.25 0"/>
<feBlend mode="normal" in2="BackgroundImageFix" result="effect1_dropShadow"/>
<feBlend mode="normal" in="SourceGraphic" in2="effect1_dropShadow" result="shape"/>
</filter>
<filter id="filter17_d" x="365.432" y="761.78" width="50.7241" height="55.4685" filterUnits="userSpaceOnUse" color-interpolation-filters="sRGB">
<feFlood flood-opacity="0" result="BackgroundImageFix"/>
<feColorMatrix in="SourceAlpha" type="matrix" values="0 0 0 0 0 0 0 0 0 0 0 0 0 0 0 0 0 0 127 0"/>
<feOffset dy="4"/>
<feGaussianBlur stdDeviation="2"/>
<feColorMatrix type="matrix" values="0 0 0 0 0 0 0 0 0 0 0 0 0 0 0 0 0 0 0.25 0"/>
<feBlend mode="normal" in2="BackgroundImageFix" result="effect1_dropShadow"/>
<feBlend mode="normal" in="SourceGraphic" in2="effect1_dropShadow" result="shape"/>
</filter>
<filter id="filter18_d" x="417.651" y="646.496" width="50.7241" height="55.4685" filterUnits="userSpaceOnUse" color-interpolation-filters="sRGB">
<feFlood flood-opacity="0" result="BackgroundImageFix"/>
<feColorMatrix in="SourceAlpha" type="matrix" values="0 0 0 0 0 0 0 0 0 0 0 0 0 0 0 0 0 0 127 0"/>
<feOffset dy="4"/>
<feGaussianBlur stdDeviation="2"/>
<feColorMatrix type="matrix" values="0 0 0 0 0 0 0 0 0 0 0 0 0 0 0 0 0 0 0.25 0"/>
<feBlend mode="normal" in2="BackgroundImageFix" result="effect1_dropShadow"/>
<feBlend mode="normal" in="SourceGraphic" in2="effect1_dropShadow" result="shape"/>
</filter>
<filter id="filter19_d" x="260.994" y="761.78" width="102.943" height="55.4685" filterUnits="userSpaceOnUse" color-interpolation-filters="sRGB">
<feFlood flood-opacity="0" result="BackgroundImageFix"/>
<feColorMatrix in="SourceAlpha" type="matrix" values="0 0 0 0 0 0 0 0 0 0 0 0 0 0 0 0 0 0 127 0"/>
<feOffset dy="4"/>
<feGaussianBlur stdDeviation="2"/>
<feColorMatrix type="matrix" values="0 0 0 0 0 0 0 0 0 0 0 0 0 0 0 0 0 0 0.25 0"/>
<feBlend mode="normal" in2="BackgroundImageFix" result="effect1_dropShadow"/>
<feBlend mode="normal" in="SourceGraphic" in2="effect1_dropShadow" result="shape"/>
</filter>
<filter id="filter20_d" x="413.579" y="704.138" width="54.7899" height="113.117" filterUnits="userSpaceOnUse" color-interpolation-filters="sRGB">
<feFlood flood-opacity="0" result="BackgroundImageFix"/>
<feColorMatrix in="SourceAlpha" type="matrix" values="0 0 0 0 0 0 0 0 0 0 0 0 0 0 0 0 0 0 127 0"/>
<feOffset dy="4"/>
<feGaussianBlur stdDeviation="2"/>
<feColorMatrix type="matrix" values="0 0 0 0 0 0 0 0 0 0 0 0 0 0 0 0 0 0 0.25 0"/>
<feBlend mode="normal" in2="BackgroundImageFix" result="effect1_dropShadow"/>
<feBlend mode="normal" in="SourceGraphic" in2="effect1_dropShadow" result="shape"/>
</filter>
<filter id="filter21_d" x="465.341" y="737" width="42.1036" height="100.488" filterUnits="userSpaceOnUse" color-interpolation-filters="sRGB">
<feFlood flood-opacity="0" result="BackgroundImageFix"/>
<feColorMatrix in="SourceAlpha" type="matrix" values="0 0 0 0 0 0 0 0 0 0 0 0 0 0 0 0 0 0 127 0"/>
<feOffset dy="4"/>
<feGaussianBlur stdDeviation="2"/>
<feColorMatrix type="matrix" values="0 0 0 0 0 0 0 0 0 0 0 0 0 0 0 0 0 0 0.25 0"/>
<feBlend mode="normal" in2="BackgroundImageFix" result="effect1_dropShadow"/>
<feBlend mode="normal" in="SourceGraphic" in2="effect1_dropShadow" result="shape"/>
</filter>
<filter id="filter22_d" x="439" y="748.688" width="58.9082" height="89.1196" filterUnits="userSpaceOnUse" color-interpolation-filters="sRGB">
<feFlood flood-opacity="0" result="BackgroundImageFix"/>
<feColorMatrix in="SourceAlpha" type="matrix" values="0 0 0 0 0 0 0 0 0 0 0 0 0 0 0 0 0 0 127 0"/>
<feOffset dy="4"/>
<feGaussianBlur stdDeviation="2"/>
<feColorMatrix type="matrix" values="0 0 0 0 0 0 0 0 0 0 0 0 0 0 0 0 0 0 0.25 0"/>
<feBlend mode="normal" in2="BackgroundImageFix" result="effect1_dropShadow"/>
<feBlend mode="normal" in="SourceGraphic" in2="effect1_dropShadow" result="shape"/>
</filter>
<filter id="filter23_d" x="463.14" y="826.408" width="44.1515" height="37.8396" filterUnits="userSpaceOnUse" color-interpolation-filters="sRGB">
<feFlood flood-opacity="0" result="BackgroundImageFix"/>
<feColorMatrix in="SourceAlpha" type="matrix" values="0 0 0 0 0 0 0 0 0 0 0 0 0 0 0 0 0 0 127 0"/>
<feOffset dy="4"/>
<feGaussianBlur stdDeviation="2"/>
<feColorMatrix type="matrix" values="0 0 0 0 0 0 0 0 0 0 0 0 0 0 0 0 0 0 0.25 0"/>
<feBlend mode="normal" in2="BackgroundImageFix" result="effect1_dropShadow"/>
<feBlend mode="normal" in="SourceGraphic" in2="effect1_dropShadow" result="shape"/>
</filter>
<filter id="filter24_d" x="204.721" y="680.365" width="77.0495" height="45.7893" filterUnits="userSpaceOnUse" color-interpolation-filters="sRGB">
<feFlood flood-opacity="0" result="BackgroundImageFix"/>
<feColorMatrix in="SourceAlpha" type="matrix" values="0 0 0 0 0 0 0 0 0 0 0 0 0 0 0 0 0 0 127 0"/>
<feOffset dy="4"/>
<feGaussianBlur stdDeviation="2"/>
<feColorMatrix type="matrix" values="0 0 0 0 0 0 0 0 0 0 0 0 0 0 0 0 0 0 0.25 0"/>
<feBlend mode="normal" in2="BackgroundImageFix" result="effect1_dropShadow"/>
<feBlend mode="normal" in="SourceGraphic" in2="effect1_dropShadow" result="shape"/>
</filter>
<filter id="filter25_d" x="172" y="761" width="37.8744" height="102.204" filterUnits="userSpaceOnUse" color-interpolation-filters="sRGB">
<feFlood flood-opacity="0" result="BackgroundImageFix"/>
<feColorMatrix in="SourceAlpha" type="matrix" values="0 0 0 0 0 0 0 0 0 0 0 0 0 0 0 0 0 0 127 0"/>
<feOffset dy="4"/>
<feGaussianBlur stdDeviation="2"/>
<feColorMatrix type="matrix" values="0 0 0 0 0 0 0 0 0 0 0 0 0 0 0 0 0 0 0.25 0"/>
<feBlend mode="normal" in2="BackgroundImageFix" result="effect1_dropShadow"/>
<feBlend mode="normal" in="SourceGraphic" in2="effect1_dropShadow" result="shape"/>
</filter>
<filter id="filter26_d" x="208.41" y="758.153" width="15.957" height="105.085" filterUnits="userSpaceOnUse" color-interpolation-filters="sRGB">
<feFlood flood-opacity="0" result="BackgroundImageFix"/>
<feColorMatrix in="SourceAlpha" type="matrix" values="0 0 0 0 0 0 0 0 0 0 0 0 0 0 0 0 0 0 127 0"/>
<feOffset dy="4"/>
<feGaussianBlur stdDeviation="2"/>
<feColorMatrix type="matrix" values="0 0 0 0 0 0 0 0 0 0 0 0 0 0 0 0 0 0 0.25 0"/>
<feBlend mode="normal" in2="BackgroundImageFix" result="effect1_dropShadow"/>
<feBlend mode="normal" in="SourceGraphic" in2="effect1_dropShadow" result="shape"/>
</filter>
<filter id="filter27_d" x="187.434" y="754.341" width="40.8136" height="17.7104" filterUnits="userSpaceOnUse" color-interpolation-filters="sRGB">
<feFlood flood-opacity="0" result="BackgroundImageFix"/>
<feColorMatrix in="SourceAlpha" type="matrix" values="0 0 0 0 0 0 0 0 0 0 0 0 0 0 0 0 0 0 127 0"/>
<feOffset dy="4"/>
<feGaussianBlur stdDeviation="2"/>
<feColorMatrix type="matrix" values="0 0 0 0 0 0 0 0 0 0 0 0 0 0 0 0 0 0 0.25 0"/>
<feBlend mode="normal" in2="BackgroundImageFix" result="effect1_dropShadow"/>
<feBlend mode="normal" in="SourceGraphic" in2="effect1_dropShadow" result="shape"/>
</filter>
<clipPath id="clip0">
<rect width="1440" height="1024" fill="white"/>
</clipPath>
</defs>
</svg>
